<?xml version="1.0" encoding="UTF-8"?>
<!DOCTYPE svg PUBLIC "-//W3C//DTD SVG 1.1//EN" "http://www.w3.org/Graphics/SVG/1.1/DTD/svg11.dtd">
<svg version="1.1" xmlns="http://www.w3.org/2000/svg" xmlns:xlink="http://www.w3.org/1999/xlink" x="0" y="0" width="800" height="600" viewBox="0, 0, 800, 600">
  <g id="Background">
    <rect x="0" y="0" width="800" height="600" fill="#FFFFFF"/>
  </g>
  <g id="mu">
    <g>
      <path d="M505.737,288.156 L504.967,299.148 L502.8,311.706 L498.186,325.721 L497.207,332.879 L499.619,339.888 L489.13,343.392 L477.173,352.827 L469.868,363.604 L473.189,371.176 L473.503,374.422 L475.811,378.338 L476.125,380.837 L474.622,385.053 L472.175,385.912 L469.449,385.763 L467.105,387.106 L461.338,397.553 L458.051,402.18 L452.668,405.875 L416.658,417.407 L380.23,423.155 L367.364,422.109 L347.297,415.615 L335.411,414.272 L326.321,418.414 L301.604,396.022 L296.149,389.642 L294.262,383.524 L301.079,380.837 L311.707,383.039 L317.581,381.919 L320.168,375.988 L322.405,363.12 L321.916,358.42 L317.232,355.772 L320.693,344.585 L321.112,319.309 L323.105,305.445 L326.042,297.471 L335.796,278.023 L339.362,274.223 L340.235,272.808 L349.744,264.837 L353.87,262.826 L363.169,260.145 L367.365,258.282 L374.706,250.648 L376.035,242.197 L376.314,233.67 L382.816,221.646 L388.131,205.27 L390.753,200.358 L392.641,197.604 L404.492,188.005 L407.429,186.665 L413.197,186.219 L415.68,184.768 L417.567,181.531 L420.154,178.295 L424.699,176.845 L431.481,177.887 L450.744,183.541 L455.883,186.219 L458.085,191.279 L455.673,199.168 L457.352,203.521 L460.393,207.875 L463.644,215.542 L467.281,222.092 L468.399,227.378 L470.567,230.207 L472.314,230.579 L477.383,229.761 L479.062,230.207 L483.851,234.303 L485.11,237.244 L483.712,252.026 L487.033,256.792 L491.473,260.367 L495.599,273.403 L503.849,283.312 L505.737,288.156 z" fill="#CE4346"/>
      <path d="M505.737,288.156 L504.967,299.148 L502.8,311.706 L498.186,325.721 L497.207,332.879 L499.619,339.888 L489.13,343.392 L477.173,352.827 L469.868,363.604 L473.189,371.176 L473.503,374.422 L475.811,378.338 L476.125,380.837 L474.622,385.053 L472.175,385.912 L469.449,385.763 L467.105,387.106 L461.338,397.553 L458.051,402.18 L452.668,405.875 L416.658,417.407 L380.23,423.155 L367.364,422.109 L347.297,415.615 L335.411,414.272 L326.321,418.414 L301.604,396.022 L296.149,389.642 L294.262,383.524 L301.079,380.837 L311.707,383.039 L317.581,381.919 L320.168,375.988 L322.405,363.12 L321.916,358.42 L317.232,355.772 L320.693,344.585 L321.112,319.309 L323.105,305.445 L326.042,297.471 L335.796,278.023 L339.362,274.223 L340.235,272.808 L349.744,264.837 L353.87,262.826 L363.169,260.145 L367.365,258.282 L374.706,250.648 L376.035,242.197 L376.314,233.67 L382.816,221.646 L388.131,205.27 L390.753,200.358 L392.641,197.604 L404.492,188.005 L407.429,186.665 L413.197,186.219 L415.68,184.768 L417.567,181.531 L420.154,178.295 L424.699,176.845 L431.481,177.887 L450.744,183.541 L455.883,186.219 L458.085,191.279 L455.673,199.168 L457.352,203.521 L460.393,207.875 L463.644,215.542 L467.281,222.092 L468.399,227.378 L470.567,230.207 L472.314,230.579 L477.383,229.761 L479.062,230.207 L483.851,234.303 L485.11,237.244 L483.712,252.026 L487.033,256.792 L491.473,260.367 L495.599,273.403 L503.849,283.312 L505.737,288.156 z" fill-opacity="0" stroke="#000000" stroke-width="1" stroke-linecap="round" stroke-linejoin="round"/>
    </g>
  </g>
</svg>
