<?xml version="1.0" encoding="UTF-8"?>
<!DOCTYPE svg PUBLIC "-//W3C//DTD SVG 1.1//EN" "http://www.w3.org/Graphics/SVG/1.1/DTD/svg11.dtd">
<svg version="1.1" xmlns="http://www.w3.org/2000/svg" xmlns:xlink="http://www.w3.org/1999/xlink" x="0" y="0" width="1081.86" height="917.33" viewBox="0, 0, 1081.86, 917.33">
  <g id="Seychelles_Inner_Islands">
    <g id="path9">
      <path d="M79.761,298.17 C78.011,297.17 76.011,298.67 77.261,300.92 C78.511,303.17 78.261,304.42 77.511,305.92 C76.761,307.42 76.261,312.92 77.761,314.67 C79.261,316.42 80.761,318.67 80.761,318.67 C80.761,318.67 79.761,320.92 81.511,321.92 C83.261,322.92 84.511,323.42 86.511,322.42 C88.511,321.42 91.011,320.92 91.511,319.67 C92.011,318.42 92.761,317.92 93.761,317.92 C94.761,317.92 95.011,318.17 95.511,316.17 C96.011,314.17 96.511,312.42 94.511,312.92 C92.511,313.42 92.011,313.17 91.011,311.67 C90.011,310.17 87.761,307.42 87.261,306.42 C86.761,305.42 86.761,304.67 87.261,303.67 C87.761,302.67 86.011,300.92 85.011,300.17 C84.011,299.42 83.011,297.92 83.011,297.92 C83.011,297.92 81.511,299.17 79.761,298.17 z" fill="#CE4346"/>
      <path d="M79.761,298.17 C78.011,297.17 76.011,298.67 77.261,300.92 C78.511,303.17 78.261,304.42 77.511,305.92 C76.761,307.42 76.261,312.92 77.761,314.67 C79.261,316.42 80.761,318.67 80.761,318.67 C80.761,318.67 79.761,320.92 81.511,321.92 C83.261,322.92 84.511,323.42 86.511,322.42 C88.511,321.42 91.011,320.92 91.511,319.67 C92.011,318.42 92.761,317.92 93.761,317.92 C94.761,317.92 95.011,318.17 95.511,316.17 C96.011,314.17 96.511,312.42 94.511,312.92 C92.511,313.42 92.011,313.17 91.011,311.67 C90.011,310.17 87.761,307.42 87.261,306.42 C86.761,305.42 86.761,304.67 87.261,303.67 C87.761,302.67 86.011,300.92 85.011,300.17 C84.011,299.42 83.011,297.92 83.011,297.92 C83.011,297.92 81.511,299.17 79.761,298.17 z" fill-opacity="0" stroke="#000000" stroke-width="1" stroke-linecap="round" stroke-miterlimit="3.864"/>
    </g>
    <g id="path11">
      <path d="M35.761,418.67 C34.011,420.17 33.761,421.67 32.011,422.42 C30.261,423.17 30.261,425.92 28.761,426.42 C27.261,426.92 28.761,432.17 31.261,433.17 C33.761,434.17 33.261,437.42 33.011,438.42 C32.761,439.42 33.261,440.67 33.261,440.67 C33.261,440.67 40.261,445.42 40.511,447.67 C40.761,449.92 40.761,450.67 43.011,450.92 C45.261,451.17 48.761,454.17 50.761,455.67 C52.761,457.17 56.761,462.42 56.761,462.42 C56.761,462.42 58.011,464.92 56.761,465.92 C55.511,466.92 55.761,468.67 56.261,470.42 C56.761,472.17 57.511,473.92 58.511,473.92 C59.511,473.92 62.261,474.67 64.011,474.67 C65.761,474.67 68.011,475.17 69.261,475.92 C70.511,476.67 73.761,476.92 73.761,476.92 C73.761,476.92 76.511,474.92 80.511,474.92 C84.511,474.92 87.511,471.67 87.511,471.67 C87.511,471.67 86.761,468.42 88.761,466.67 C90.761,464.92 90.511,463.42 90.511,462.17 C90.511,460.92 89.261,458.67 92.011,457.92 C94.761,457.17 94.261,456.42 93.261,454.92 C92.261,453.42 92.261,451.42 93.011,450.17 C93.761,448.92 95.011,446.92 97.011,445.42 C99.011,443.92 99.261,443.17 99.261,441.42 C99.261,439.67 100.261,436.92 98.511,437.92 C96.761,438.92 94.761,439.17 93.761,437.67 C92.761,436.17 89.011,430.42 88.511,429.17 C88.011,427.92 84.261,420.17 83.261,418.92 C82.261,417.67 75.511,413.17 75.511,413.17 C75.511,413.17 74.011,411.42 71.261,411.17 C68.511,410.92 66.761,410.67 65.261,409.92 C63.761,409.17 62.011,408.92 60.261,408.92 C58.511,408.92 55.011,409.42 55.011,409.42 C55.011,409.42 53.511,410.42 52.761,411.67 C52.011,412.92 51.761,413.92 50.261,412.67 C48.761,411.42 47.261,411.17 45.511,411.67 C43.761,412.17 41.011,412.42 40.511,413.42 C40.011,414.42 38.261,416.42 38.261,416.42 C38.261,416.42 37.511,417.17 35.761,418.67 z" fill="#CE4346"/>
      <path d="M35.761,418.67 C34.011,420.17 33.761,421.67 32.011,422.42 C30.261,423.17 30.261,425.92 28.761,426.42 C27.261,426.92 28.761,432.17 31.261,433.17 C33.761,434.17 33.261,437.42 33.011,438.42 C32.761,439.42 33.261,440.67 33.261,440.67 C33.261,440.67 40.261,445.42 40.511,447.67 C40.761,449.92 40.761,450.67 43.011,450.92 C45.261,451.17 48.761,454.17 50.761,455.67 C52.761,457.17 56.761,462.42 56.761,462.42 C56.761,462.42 58.011,464.92 56.761,465.92 C55.511,466.92 55.761,468.67 56.261,470.42 C56.761,472.17 57.511,473.92 58.511,473.92 C59.511,473.92 62.261,474.67 64.011,474.67 C65.761,474.67 68.011,475.17 69.261,475.92 C70.511,476.67 73.761,476.92 73.761,476.92 C73.761,476.92 76.511,474.92 80.511,474.92 C84.511,474.92 87.511,471.67 87.511,471.67 C87.511,471.67 86.761,468.42 88.761,466.67 C90.761,464.92 90.511,463.42 90.511,462.17 C90.511,460.92 89.261,458.67 92.011,457.92 C94.761,457.17 94.261,456.42 93.261,454.92 C92.261,453.42 92.261,451.42 93.011,450.17 C93.761,448.92 95.011,446.92 97.011,445.42 C99.011,443.92 99.261,443.17 99.261,441.42 C99.261,439.67 100.261,436.92 98.511,437.92 C96.761,438.92 94.761,439.17 93.761,437.67 C92.761,436.17 89.011,430.42 88.511,429.17 C88.011,427.92 84.261,420.17 83.261,418.92 C82.261,417.67 75.511,413.17 75.511,413.17 C75.511,413.17 74.011,411.42 71.261,411.17 C68.511,410.92 66.761,410.67 65.261,409.92 C63.761,409.17 62.011,408.92 60.261,408.92 C58.511,408.92 55.011,409.42 55.011,409.42 C55.011,409.42 53.511,410.42 52.761,411.67 C52.011,412.92 51.761,413.92 50.261,412.67 C48.761,411.42 47.261,411.17 45.511,411.67 C43.761,412.17 41.011,412.42 40.511,413.42 C40.011,414.42 38.261,416.42 38.261,416.42 C38.261,416.42 37.511,417.17 35.761,418.67 z" fill-opacity="0" stroke="#000000" stroke-width="1" stroke-linecap="round" stroke-miterlimit="3.864"/>
    </g>
    <g id="path13">
      <path d="M434.761,595.92 C433.011,597.67 432.761,600.92 433.761,603.17 C434.761,605.42 434.761,607.42 433.761,609.42 C432.761,611.42 432.511,615.17 435.511,615.67 C438.511,616.17 438.011,613.67 439.261,611.92 C440.511,610.17 440.511,609.17 445.011,609.17 C449.511,609.17 451.261,608.67 453.261,605.67 C455.261,602.67 454.261,601.17 454.261,599.42 C454.261,597.67 454.261,597.17 451.761,597.17 C449.261,597.17 447.261,596.42 446.761,594.42 C446.261,592.42 444.511,590.67 442.761,591.42 C441.011,592.17 438.761,593.92 438.761,593.92 C438.761,593.92 436.511,594.17 434.761,595.92 z" fill="#CE4346"/>
      <path d="M434.761,595.92 C433.011,597.67 432.761,600.92 433.761,603.17 C434.761,605.42 434.761,607.42 433.761,609.42 C432.761,611.42 432.511,615.17 435.511,615.67 C438.511,616.17 438.011,613.67 439.261,611.92 C440.511,610.17 440.511,609.17 445.011,609.17 C449.511,609.17 451.261,608.67 453.261,605.67 C455.261,602.67 454.261,601.17 454.261,599.42 C454.261,597.67 454.261,597.17 451.761,597.17 C449.261,597.17 447.261,596.42 446.761,594.42 C446.261,592.42 444.511,590.67 442.761,591.42 C441.011,592.17 438.761,593.92 438.761,593.92 C438.761,593.92 436.511,594.17 434.761,595.92 z" fill-opacity="0" stroke="#000000" stroke-width="1" stroke-linecap="round" stroke-miterlimit="3.864"/>
    </g>
    <g id="path15">
      <path d="M441.761,622.42 C439.511,622.92 438.761,624.92 439.261,626.42 C439.761,627.92 442.261,629.17 443.761,626.67 C445.261,624.17 444.011,621.92 441.761,622.42 z" fill="#CE4346"/>
      <path d="M441.761,622.42 C439.511,622.92 438.761,624.92 439.261,626.42 C439.761,627.92 442.261,629.17 443.761,626.67 C445.261,624.17 444.011,621.92 441.761,622.42 z" fill-opacity="0" stroke="#000000" stroke-width="1" stroke-linecap="round" stroke-miterlimit="3.864"/>
    </g>
    <g id="path17">
      <path d="M450.761,619.42 C447.761,619.42 446.761,620.92 447.511,622.67 C448.261,624.42 450.011,624.67 452.011,622.67 C454.011,620.67 453.761,619.42 450.761,619.42 z" fill="#CE4346"/>
      <path d="M450.761,619.42 C447.761,619.42 446.761,620.92 447.511,622.67 C448.261,624.42 450.011,624.67 452.011,622.67 C454.011,620.67 453.761,619.42 450.761,619.42 z" fill-opacity="0" stroke="#000000" stroke-width="1" stroke-linecap="round" stroke-miterlimit="3.864"/>
    </g>
    <g id="path19">
      <path d="M445.261,630.92 C444.261,632.42 443.511,634.17 445.761,634.42 C450.241,634.918 451.511,634.67 452.511,635.17 C453.511,635.67 455.511,632.92 453.511,632.17 C451.511,631.42 448.011,629.92 448.011,629.92 C448.011,629.92 446.261,629.42 445.261,630.92 z" fill="#CE4346"/>
      <path d="M445.261,630.92 C444.261,632.42 443.511,634.17 445.761,634.42 C450.241,634.918 451.511,634.67 452.511,635.17 C453.511,635.67 455.511,632.92 453.511,632.17 C451.511,631.42 448.011,629.92 448.011,629.92 C448.011,629.92 446.261,629.42 445.261,630.92 z" fill-opacity="0" stroke="#000000" stroke-width="1" stroke-linecap="round" stroke-miterlimit="3.864"/>
    </g>
    <g id="path21">
      <path d="M427.011,635.42 C425.511,637.67 424.261,640.17 427.511,641.42 C430.761,642.67 434.261,643.67 434.511,645.42 C434.761,647.17 435.761,648.17 436.261,649.42 C436.761,650.67 438.511,650.92 440.261,648.92 C442.011,646.92 442.761,647.92 443.761,647.42 C444.761,646.92 446.511,645.92 445.261,644.42 C444.011,642.92 442.511,640.42 441.761,639.17 C441.011,637.92 440.011,636.92 438.261,636.92 C436.511,636.92 433.011,636.67 431.511,634.92 C430.011,633.17 428.511,633.17 427.011,635.42 z" fill="#CE4346"/>
      <path d="M427.011,635.42 C425.511,637.67 424.261,640.17 427.511,641.42 C430.761,642.67 434.261,643.67 434.511,645.42 C434.761,647.17 435.761,648.17 436.261,649.42 C436.761,650.67 438.511,650.92 440.261,648.92 C442.011,646.92 442.761,647.92 443.761,647.42 C444.761,646.92 446.511,645.92 445.261,644.42 C444.011,642.92 442.511,640.42 441.761,639.17 C441.011,637.92 440.011,636.92 438.261,636.92 C436.511,636.92 433.011,636.67 431.511,634.92 C430.011,633.17 428.511,633.17 427.011,635.42 z" fill-opacity="0" stroke="#000000" stroke-width="1" stroke-linecap="round" stroke-miterlimit="3.864"/>
    </g>
    <g id="path23">
      <path d="M469.011,687.67 C472.011,688.67 474.011,681.17 471.011,680.67 C468.011,680.17 466.011,686.67 469.011,687.67 z" fill="#CE4346"/>
      <path d="M469.011,687.67 C472.011,688.67 474.011,681.17 471.011,680.67 C468.011,680.17 466.011,686.67 469.011,687.67 z" fill-opacity="0" stroke="#000000" stroke-width="1" stroke-linecap="round" stroke-miterlimit="3.864"/>
    </g>
    <g id="path25">
      <path d="M245.011,678.17 C243.011,680.67 244.511,682.17 246.511,684.17 C248.511,686.17 252.511,686.17 255.511,686.17 C258.511,686.17 263.011,687.67 261.511,684.67 C260.011,681.67 259.011,679.67 255.011,679.67 C251.011,679.67 251.011,678.67 249.011,677.67 C247.011,676.67 247.011,675.67 245.011,678.17 z" fill="#CE4346"/>
      <path d="M245.011,678.17 C243.011,680.67 244.511,682.17 246.511,684.17 C248.511,686.17 252.511,686.17 255.511,686.17 C258.511,686.17 263.011,687.67 261.511,684.67 C260.011,681.67 259.011,679.67 255.011,679.67 C251.011,679.67 251.011,678.67 249.011,677.67 C247.011,676.67 247.011,675.67 245.011,678.17 z" fill-opacity="0" stroke="#000000" stroke-width="1" stroke-linecap="round" stroke-miterlimit="3.864"/>
    </g>
    <g id="path27">
      <path d="M296.511,689.17 C293.511,690.17 295.511,695.17 297.011,697.17 C298.511,699.17 300.011,699.17 303.011,701.67 C306.011,704.17 310.511,707.67 310.011,703.67 C309.511,699.67 308.011,697.17 304.511,693.67 C301.011,690.17 299.511,688.17 296.511,689.17 z" fill="#CE4346"/>
      <path d="M296.511,689.17 C293.511,690.17 295.511,695.17 297.011,697.17 C298.511,699.17 300.011,699.17 303.011,701.67 C306.011,704.17 310.511,707.67 310.011,703.67 C309.511,699.67 308.011,697.17 304.511,693.67 C301.011,690.17 299.511,688.17 296.511,689.17 z" fill-opacity="0" stroke="#000000" stroke-width="1" stroke-linecap="round" stroke-miterlimit="3.864"/>
    </g>
    <g id="path29">
      <path d="M254.304,651.878 C251.926,655.048 253.966,659.349 256.946,659.614 C259.926,659.878 261.511,659.878 263.097,661.727 C264.682,663.576 267.662,663.386 269.247,664.707 C270.832,666.028 271.964,666.482 274.077,664.105 C276.191,661.727 277.511,660.67 279.361,661.463 C281.21,662.255 282.341,661.727 283.662,660.406 C284.983,659.085 287.022,659.614 288.418,661.198 C289.813,662.783 290.341,663.841 292.455,662.783 C294.568,661.727 295.964,663.386 297.813,664.971 C299.662,666.557 301.776,667.614 300.719,669.463 C299.662,671.312 299.323,671.312 297.21,669.727 C295.096,668.142 292.983,668.934 291.927,670.783 C290.869,672.633 291.588,675.085 294.832,675.085 C298.077,675.085 299.134,676.934 299.662,678.519 C300.191,680.105 299.927,682.028 302.04,682.028 C304.154,682.028 306.077,681.161 306.341,678.255 C306.605,675.349 309.701,675.085 311.625,675.085 C313.549,675.085 313.813,677.727 314.869,679.048 C315.927,680.369 320.228,683.349 321.813,684.406 C323.398,685.463 326.832,689.764 327.625,690.821 C328.418,691.878 335.699,697.5 337.549,698.028 C339.398,698.557 341.247,700.142 342.832,701.463 C344.418,702.783 345.284,703.576 347.927,702.783 C350.568,701.991 352.492,701.727 354.077,702.783 C355.662,703.841 356.191,703.576 357.511,702.519 C358.832,701.463 362.077,699.878 363.927,701.991 C365.776,704.105 365.701,704.633 368.946,704.105 C372.191,703.576 374.04,705.764 372.719,707.349 C371.398,708.934 370.869,711.766 373.247,712.633 C375.625,713.5 375.625,715.349 375.361,717.198 C375.096,719.048 373.586,722.028 378.077,723.614 C382.568,725.198 384.154,727.915 384.418,730.292 C384.682,732.67 383.964,733.991 386.869,733.991 C389.776,733.991 394.077,734.858 393.813,736.971 C393.549,739.085 393.284,742.709 395.134,743.841 C396.983,744.971 397.511,743.576 398.304,741.727 C399.096,739.878 400.228,738.028 402.341,739.085 C404.455,740.142 409.813,743.651 410.869,744.707 C411.927,745.764 412.719,747.878 412.191,749.463 C411.662,751.048 410.267,752.369 408.418,751.048 C406.568,749.727 405.247,749.917 405.247,751.841 C405.247,753.764 405.776,754.557 407.361,755.349 C408.946,756.142 408.682,757.917 407.625,759.576 C406.568,761.236 406.758,762.292 408.418,763.614 C410.077,764.934 415.889,769.764 415.889,769.764 C415.889,769.764 419.662,773.388 420.191,776.105 C420.719,778.821 422.23,779.085 423.889,780.142 C425.549,781.198 425.739,784.443 424.682,785.764 C423.625,787.085 420.909,788.406 417.21,787.085 C413.511,785.764 410.267,786.028 409.21,787.614 C408.154,789.198 402.795,790.519 400.418,788.67 C398.04,786.821 394.531,786.218 392.946,789.727 C391.361,793.236 388.719,795.878 387.662,797.198 C386.605,798.519 386.341,800.443 389.247,801.764 C392.154,803.085 390.568,805.991 388.455,807.048 C386.341,808.105 386.077,808.971 386.869,810.821 C387.662,812.67 388.455,813.198 390.04,813.991 C391.625,814.783 393.21,818.292 393.21,820.142 C393.21,821.991 393.813,823.576 395.662,823.576 C397.511,823.576 398.568,823.048 398.568,820.934 C398.568,818.821 396.909,815.841 400.682,816.105 C404.455,816.369 405.247,814.783 406.304,813.198 C407.361,811.614 409.549,810.292 412.191,810.557 C414.832,810.821 415.286,813.124 416.418,815.048 C417.549,816.971 418.341,817.236 419.662,817.764 C420.983,818.292 422.114,821.463 419.662,821.727 C417.21,821.991 415.889,822.445 415.889,824.105 C415.889,825.764 415.964,826.028 417.813,826.557 C419.662,827.085 420.455,829.198 420.719,830.783 C420.983,832.369 421.173,834.028 423.361,834.557 C425.549,835.085 428.983,837.198 428.983,837.198 C428.983,837.198 432.946,838.709 430.832,840.369 C428.719,842.028 428.116,844.406 431.361,845.198 C434.605,845.991 436.455,845.727 437.776,846.783 C439.096,847.841 442.003,850.292 440.946,852.934 C439.889,855.576 441.02,858.292 441.549,859.614 C442.077,860.934 442.267,862.783 446.04,863.576 C449.813,864.369 452.719,863.915 453.247,866.821 C453.776,869.727 455.022,869.463 456.946,869.991 C458.869,870.519 461.247,872.707 462.04,874.821 C462.832,876.934 463.699,878.52 466.341,878.255 C468.983,877.991 470.568,877.009 470.04,874.557 C469.511,872.105 470.758,870.519 472.418,871.312 C474.077,872.105 476.983,872.105 478.832,871.312 C480.682,870.519 484.719,871.915 485.776,874.292 C486.832,876.67 487.815,877.198 489.474,876.67 C491.134,876.142 491.398,874.482 491.134,872.369 C490.869,870.255 490.531,869.198 489.21,867.614 C487.889,866.028 485.966,861.991 487.889,860.67 C489.813,859.349 488.154,854.783 486.04,855.576 C483.927,856.369 482.605,856.369 482.341,854.783 C482.077,853.198 481.474,852.142 479.889,852.142 C478.304,852.142 475.208,851.159 474.077,849.764 C472.946,848.369 472.418,847.312 472.682,845.198 C472.946,843.085 473.21,829.463 473.21,829.463 C473.21,829.463 472.682,826.102 471.625,824.971 C470.568,823.841 470.304,822.519 470.304,820.406 C470.304,818.292 470.568,816.897 468.191,816.369 C465.813,815.841 464.418,815.048 464.682,812.406 C464.946,809.764 465.21,808.633 463.625,807.312 C462.04,805.991 462.04,804.406 462.04,803.085 C462.04,801.764 462.04,793.838 462.04,792.971 C462.04,792.105 462.758,788.67 464.946,787.349 C467.134,786.028 472.492,781.991 474.869,780.934 C477.247,779.878 478.568,779.159 478.832,777.5 C479.096,775.841 479.889,776.105 477.511,774.783 C475.134,773.463 472.946,772.744 472.946,770.292 C472.946,767.841 472.154,764.216 471.625,762.292 C471.096,760.369 468.983,747.424 468.191,744.971 C467.398,742.519 467.662,739.424 468.983,737.236 C470.304,735.048 475.927,723.159 476.455,721.5 C476.983,719.841 478.304,716.48 478.304,714.292 C478.304,712.105 479.022,709.463 480.682,707.878 C482.341,706.292 485.511,703.576 486.04,701.991 C486.568,700.406 487.096,698.366 484.719,696.971 C482.341,695.576 481.21,696.443 479.625,698.028 C478.04,699.614 475.472,698.895 474.077,697.5 C472.682,696.105 465.21,688.369 463.625,687.576 C462.04,686.783 456.418,684.142 454.304,684.406 C452.191,684.67 451.927,686.594 451.662,688.707 C451.398,690.821 450.003,691.349 448.418,690.821 C446.832,690.292 442.795,688.707 440.946,688.707 C439.096,688.707 435.662,684.67 435.662,684.67 C435.662,684.67 431.625,679.576 429.247,678.255 C426.869,676.934 423.625,674.631 423.096,673.236 C422.568,671.841 420.793,670.519 418.869,670.783 C416.946,671.048 414.304,670.519 412.719,669.198 C411.134,667.878 408.418,663.841 408.418,663.841 C408.418,663.841 396.983,651.085 396.191,650.028 C395.398,648.971 389.511,641.69 389.247,640.369 C388.983,639.048 387.852,635.878 385.474,635.878 C383.096,635.878 381.437,632.369 384.418,632.369 C387.398,632.369 388.191,631.048 387.398,629.727 C386.605,628.406 385.474,628.142 382.832,628.406 C380.191,628.67 377.813,627.011 380.191,624.369 C382.568,621.727 382.568,620.406 382.304,618.821 C382.04,617.236 381.915,612.314 383.889,609.764 C386.605,606.255 385.21,603.952 384.682,601.236 C384.154,598.519 383.889,595.424 383.096,593.236 C382.304,591.048 383.022,587.688 384.418,585.5 C385.813,583.312 386.341,581.991 386.341,580.142 C386.341,578.292 386.869,576.105 388.191,574.783 C389.511,573.463 389.511,571.952 389.247,568.707 C388.983,565.463 388.983,564.406 387.398,563.085 C385.813,561.764 385.474,560.369 384.154,559.312 C382.832,558.255 382.304,556.934 382.304,554.821 C382.304,552.707 382.642,549.727 379.927,549.727 C377.21,549.727 375.625,549.198 375.361,547.349 C375.096,545.5 373.85,543.312 371.398,542.783 C368.946,542.255 367.096,541.124 365.511,543.048 C363.927,544.971 361.21,545.426 359.361,544.105 C357.511,542.783 356.381,540.934 352.682,541.727 C348.983,542.519 346.077,543.386 346.077,545.764 C346.077,548.142 346.003,549.198 345.21,550.783 C344.418,552.369 344.418,554.292 344.682,555.878 C344.946,557.463 345.474,567.502 345.474,568.633 C345.474,569.764 346.003,571.878 344.418,573.198 C342.832,574.519 342.304,577.236 342.832,579.614 C343.361,581.991 343.889,595.614 343.889,595.614 C343.889,595.614 341.776,600.443 341.247,602.028 C340.719,603.614 337.474,612.67 336.418,613.463 C335.361,614.255 332.529,615.312 330.341,615.312 C328.154,615.312 325.776,615.238 324.455,616.105 C323.134,616.971 311.625,619.614 310.568,619.878 C309.511,620.142 305.739,620.934 303.625,619.878 C301.511,618.821 299.323,617.5 297.21,618.292 C295.096,619.085 292.001,621.463 290.605,621.991 C289.21,622.519 283.398,624.369 283.398,624.369 C283.398,624.369 281.474,627.614 280.154,628.934 C278.832,630.255 276.983,629.124 275.398,631.312 C273.813,633.5 273.739,632.633 272.154,632.369 C270.568,632.105 269.247,632.179 267.927,634.028 C266.605,635.878 264.417,638.709 264.417,640.633 C264.417,642.557 264.492,643.349 266.341,643.349 C268.191,643.349 270.04,643.085 270.04,645.463 C270.04,647.841 271.286,648.443 272.682,649.5 C274.077,650.557 274.267,652.406 273.21,653.991 C272.154,655.576 269.247,655.048 267.927,652.934 C266.605,650.821 265.474,650.292 264.154,651.085 C262.832,651.878 261.776,651.349 260.455,650.292 C259.134,649.236 256.682,648.707 254.304,651.878 z" fill="#CE4346"/>
      <path d="M254.304,651.878 C251.926,655.048 253.966,659.349 256.946,659.614 C259.926,659.878 261.511,659.878 263.097,661.727 C264.682,663.576 267.662,663.386 269.247,664.707 C270.832,666.028 271.964,666.482 274.077,664.105 C276.191,661.727 277.511,660.67 279.361,661.463 C281.21,662.255 282.341,661.727 283.662,660.406 C284.983,659.085 287.022,659.614 288.418,661.198 C289.813,662.783 290.341,663.841 292.455,662.783 C294.568,661.727 295.964,663.386 297.813,664.971 C299.662,666.557 301.776,667.614 300.719,669.463 C299.662,671.312 299.323,671.312 297.21,669.727 C295.096,668.142 292.983,668.934 291.927,670.783 C290.869,672.633 291.588,675.085 294.832,675.085 C298.077,675.085 299.134,676.934 299.662,678.519 C300.191,680.105 299.927,682.028 302.04,682.028 C304.154,682.028 306.077,681.161 306.341,678.255 C306.605,675.349 309.701,675.085 311.625,675.085 C313.549,675.085 313.813,677.727 314.869,679.048 C315.927,680.369 320.228,683.349 321.813,684.406 C323.398,685.463 326.832,689.764 327.625,690.821 C328.418,691.878 335.699,697.5 337.549,698.028 C339.398,698.557 341.247,700.142 342.832,701.463 C344.418,702.783 345.284,703.576 347.927,702.783 C350.568,701.991 352.492,701.727 354.077,702.783 C355.662,703.841 356.191,703.576 357.511,702.519 C358.832,701.463 362.077,699.878 363.927,701.991 C365.776,704.105 365.701,704.633 368.946,704.105 C372.191,703.576 374.04,705.764 372.719,707.349 C371.398,708.934 370.869,711.766 373.247,712.633 C375.625,713.5 375.625,715.349 375.361,717.198 C375.096,719.048 373.586,722.028 378.077,723.614 C382.568,725.198 384.154,727.915 384.418,730.292 C384.682,732.67 383.964,733.991 386.869,733.991 C389.776,733.991 394.077,734.858 393.813,736.971 C393.549,739.085 393.284,742.709 395.134,743.841 C396.983,744.971 397.511,743.576 398.304,741.727 C399.096,739.878 400.228,738.028 402.341,739.085 C404.455,740.142 409.813,743.651 410.869,744.707 C411.927,745.764 412.719,747.878 412.191,749.463 C411.662,751.048 410.267,752.369 408.418,751.048 C406.568,749.727 405.247,749.917 405.247,751.841 C405.247,753.764 405.776,754.557 407.361,755.349 C408.946,756.142 408.682,757.917 407.625,759.576 C406.568,761.236 406.758,762.292 408.418,763.614 C410.077,764.934 415.889,769.764 415.889,769.764 C415.889,769.764 419.662,773.388 420.191,776.105 C420.719,778.821 422.23,779.085 423.889,780.142 C425.549,781.198 425.739,784.443 424.682,785.764 C423.625,787.085 420.909,788.406 417.21,787.085 C413.511,785.764 410.267,786.028 409.21,787.614 C408.154,789.198 402.795,790.519 400.418,788.67 C398.04,786.821 394.531,786.218 392.946,789.727 C391.361,793.236 388.719,795.878 387.662,797.198 C386.605,798.519 386.341,800.443 389.247,801.764 C392.154,803.085 390.568,805.991 388.455,807.048 C386.341,808.105 386.077,808.971 386.869,810.821 C387.662,812.67 388.455,813.198 390.04,813.991 C391.625,814.783 393.21,818.292 393.21,820.142 C393.21,821.991 393.813,823.576 395.662,823.576 C397.511,823.576 398.568,823.048 398.568,820.934 C398.568,818.821 396.909,815.841 400.682,816.105 C404.455,816.369 405.247,814.783 406.304,813.198 C407.361,811.614 409.549,810.292 412.191,810.557 C414.832,810.821 415.286,813.124 416.418,815.048 C417.549,816.971 418.341,817.236 419.662,817.764 C420.983,818.292 422.114,821.463 419.662,821.727 C417.21,821.991 415.889,822.445 415.889,824.105 C415.889,825.764 415.964,826.028 417.813,826.557 C419.662,827.085 420.455,829.198 420.719,830.783 C420.983,832.369 421.173,834.028 423.361,834.557 C425.549,835.085 428.983,837.198 428.983,837.198 C428.983,837.198 432.946,838.709 430.832,840.369 C428.719,842.028 428.116,844.406 431.361,845.198 C434.605,845.991 436.455,845.727 437.776,846.783 C439.096,847.841 442.003,850.292 440.946,852.934 C439.889,855.576 441.02,858.292 441.549,859.614 C442.077,860.934 442.267,862.783 446.04,863.576 C449.813,864.369 452.719,863.915 453.247,866.821 C453.776,869.727 455.022,869.463 456.946,869.991 C458.869,870.519 461.247,872.707 462.04,874.821 C462.832,876.934 463.699,878.52 466.341,878.255 C468.983,877.991 470.568,877.009 470.04,874.557 C469.511,872.105 470.758,870.519 472.418,871.312 C474.077,872.105 476.983,872.105 478.832,871.312 C480.682,870.519 484.719,871.915 485.776,874.292 C486.832,876.67 487.815,877.198 489.474,876.67 C491.134,876.142 491.398,874.482 491.134,872.369 C490.869,870.255 490.531,869.198 489.21,867.614 C487.889,866.028 485.966,861.991 487.889,860.67 C489.813,859.349 488.154,854.783 486.04,855.576 C483.927,856.369 482.605,856.369 482.341,854.783 C482.077,853.198 481.474,852.142 479.889,852.142 C478.304,852.142 475.208,851.159 474.077,849.764 C472.946,848.369 472.418,847.312 472.682,845.198 C472.946,843.085 473.21,829.463 473.21,829.463 C473.21,829.463 472.682,826.102 471.625,824.971 C470.568,823.841 470.304,822.519 470.304,820.406 C470.304,818.292 470.568,816.897 468.191,816.369 C465.813,815.841 464.418,815.048 464.682,812.406 C464.946,809.764 465.21,808.633 463.625,807.312 C462.04,805.991 462.04,804.406 462.04,803.085 C462.04,801.764 462.04,793.838 462.04,792.971 C462.04,792.105 462.758,788.67 464.946,787.349 C467.134,786.028 472.492,781.991 474.869,780.934 C477.247,779.878 478.568,779.159 478.832,777.5 C479.096,775.841 479.889,776.105 477.511,774.783 C475.134,773.463 472.946,772.744 472.946,770.292 C472.946,767.841 472.154,764.216 471.625,762.292 C471.096,760.369 468.983,747.424 468.191,744.971 C467.398,742.519 467.662,739.424 468.983,737.236 C470.304,735.048 475.927,723.159 476.455,721.5 C476.983,719.841 478.304,716.48 478.304,714.292 C478.304,712.105 479.022,709.463 480.682,707.878 C482.341,706.292 485.511,703.576 486.04,701.991 C486.568,700.406 487.096,698.366 484.719,696.971 C482.341,695.576 481.21,696.443 479.625,698.028 C478.04,699.614 475.472,698.895 474.077,697.5 C472.682,696.105 465.21,688.369 463.625,687.576 C462.04,686.783 456.418,684.142 454.304,684.406 C452.191,684.67 451.927,686.594 451.662,688.707 C451.398,690.821 450.003,691.349 448.418,690.821 C446.832,690.292 442.795,688.707 440.946,688.707 C439.096,688.707 435.662,684.67 435.662,684.67 C435.662,684.67 431.625,679.576 429.247,678.255 C426.869,676.934 423.625,674.631 423.096,673.236 C422.568,671.841 420.793,670.519 418.869,670.783 C416.946,671.048 414.304,670.519 412.719,669.198 C411.134,667.878 408.418,663.841 408.418,663.841 C408.418,663.841 396.983,651.085 396.191,650.028 C395.398,648.971 389.511,641.69 389.247,640.369 C388.983,639.048 387.852,635.878 385.474,635.878 C383.096,635.878 381.437,632.369 384.418,632.369 C387.398,632.369 388.191,631.048 387.398,629.727 C386.605,628.406 385.474,628.142 382.832,628.406 C380.191,628.67 377.813,627.011 380.191,624.369 C382.568,621.727 382.568,620.406 382.304,618.821 C382.04,617.236 381.915,612.314 383.889,609.764 C386.605,606.255 385.21,603.952 384.682,601.236 C384.154,598.519 383.889,595.424 383.096,593.236 C382.304,591.048 383.022,587.688 384.418,585.5 C385.813,583.312 386.341,581.991 386.341,580.142 C386.341,578.292 386.869,576.105 388.191,574.783 C389.511,573.463 389.511,571.952 389.247,568.707 C388.983,565.463 388.983,564.406 387.398,563.085 C385.813,561.764 385.474,560.369 384.154,559.312 C382.832,558.255 382.304,556.934 382.304,554.821 C382.304,552.707 382.642,549.727 379.927,549.727 C377.21,549.727 375.625,549.198 375.361,547.349 C375.096,545.5 373.85,543.312 371.398,542.783 C368.946,542.255 367.096,541.124 365.511,543.048 C363.927,544.971 361.21,545.426 359.361,544.105 C357.511,542.783 356.381,540.934 352.682,541.727 C348.983,542.519 346.077,543.386 346.077,545.764 C346.077,548.142 346.003,549.198 345.21,550.783 C344.418,552.369 344.418,554.292 344.682,555.878 C344.946,557.463 345.474,567.502 345.474,568.633 C345.474,569.764 346.003,571.878 344.418,573.198 C342.832,574.519 342.304,577.236 342.832,579.614 C343.361,581.991 343.889,595.614 343.889,595.614 C343.889,595.614 341.776,600.443 341.247,602.028 C340.719,603.614 337.474,612.67 336.418,613.463 C335.361,614.255 332.529,615.312 330.341,615.312 C328.154,615.312 325.776,615.238 324.455,616.105 C323.134,616.971 311.625,619.614 310.568,619.878 C309.511,620.142 305.739,620.934 303.625,619.878 C301.511,618.821 299.323,617.5 297.21,618.292 C295.096,619.085 292.001,621.463 290.605,621.991 C289.21,622.519 283.398,624.369 283.398,624.369 C283.398,624.369 281.474,627.614 280.154,628.934 C278.832,630.255 276.983,629.124 275.398,631.312 C273.813,633.5 273.739,632.633 272.154,632.369 C270.568,632.105 269.247,632.179 267.927,634.028 C266.605,635.878 264.417,638.709 264.417,640.633 C264.417,642.557 264.492,643.349 266.341,643.349 C268.191,643.349 270.04,643.085 270.04,645.463 C270.04,647.841 271.286,648.443 272.682,649.5 C274.077,650.557 274.267,652.406 273.21,653.991 C272.154,655.576 269.247,655.048 267.927,652.934 C266.605,650.821 265.474,650.292 264.154,651.085 C262.832,651.878 261.776,651.349 260.455,650.292 C259.134,649.236 256.682,648.707 254.304,651.878 z" fill-opacity="0" stroke="#000000" stroke-width="1" stroke-linecap="round" stroke-miterlimit="3.864"/>
    </g>
    <g id="path31">
      <path d="M803.511,564.17 C799.511,563.17 796.511,570.17 800.011,571.17 C803.511,572.17 807.511,565.17 803.511,564.17 z" fill="#CE4346"/>
      <path d="M803.511,564.17 C799.511,563.17 796.511,570.17 800.011,571.17 C803.511,572.17 807.511,565.17 803.511,564.17 z" fill-opacity="0" stroke="#000000" stroke-width="1" stroke-linecap="round" stroke-miterlimit="3.864"/>
    </g>
    <g id="path33">
      <path d="M1035.761,570.67 C1034.261,571.67 1033.511,573.92 1034.761,576.17 C1036.011,578.42 1038.261,580.67 1041.261,583.42 C1044.261,586.17 1046.011,586.17 1047.761,586.17 C1049.511,586.17 1052.761,585.92 1054.511,585.92 C1056.261,585.92 1057.011,585.17 1057.011,583.67 C1057.011,582.17 1057.011,580.92 1058.511,580.92 C1060.011,580.92 1062.011,578.42 1059.761,578.42 C1057.511,578.42 1056.761,576.67 1055.761,575.17 C1054.761,573.67 1053.011,571.42 1051.761,569.67 C1050.511,567.92 1047.261,564.92 1045.011,566.17 C1042.761,567.42 1040.761,569.42 1038.761,569.42 C1036.761,569.42 1037.261,569.67 1035.761,570.67 z" fill="#CE4346"/>
      <path d="M1035.761,570.67 C1034.261,571.67 1033.511,573.92 1034.761,576.17 C1036.011,578.42 1038.261,580.67 1041.261,583.42 C1044.261,586.17 1046.011,586.17 1047.761,586.17 C1049.511,586.17 1052.761,585.92 1054.511,585.92 C1056.261,585.92 1057.011,585.17 1057.011,583.67 C1057.011,582.17 1057.011,580.92 1058.511,580.92 C1060.011,580.92 1062.011,578.42 1059.761,578.42 C1057.511,578.42 1056.761,576.67 1055.761,575.17 C1054.761,573.67 1053.011,571.42 1051.761,569.67 C1050.511,567.92 1047.261,564.92 1045.011,566.17 C1042.761,567.42 1040.761,569.42 1038.761,569.42 C1036.761,569.42 1037.261,569.67 1035.761,570.67 z" fill-opacity="0" stroke="#000000" stroke-width="1" stroke-linecap="round" stroke-miterlimit="3.864"/>
    </g>
    <g id="path35">
      <path d="M999.511,594.17 C995.511,594.17 992.011,600.67 996.511,601.67 C1001.012,602.67 1003.512,594.17 999.511,594.17 z" fill="#CE4346"/>
      <path d="M999.511,594.17 C995.511,594.17 992.011,600.67 996.511,601.67 C1001.012,602.67 1003.512,594.17 999.511,594.17 z" fill-opacity="0" stroke="#000000" stroke-width="1" stroke-linecap="round" stroke-miterlimit="3.864"/>
    </g>
    <g id="path37">
      <path d="M678.011,125.42 C675.511,124.92 675.761,127.67 677.261,127.92 C678.761,128.17 680.511,125.92 678.011,125.42 z" fill="#CE4346"/>
      <path d="M678.011,125.42 C675.511,124.92 675.761,127.67 677.261,127.92 C678.761,128.17 680.511,125.92 678.011,125.42 z" fill-opacity="0" stroke="#000000" stroke-width="1" stroke-linecap="round" stroke-miterlimit="3.864"/>
    </g>
    <g id="path39">
      <path d="M659.261,60.17 C658.511,61.42 657.761,63.42 659.261,64.17 C660.761,64.92 662.511,64.42 663.511,64.92 C664.511,65.42 668.511,66.17 669.761,66.17 C671.011,66.17 674.261,66.92 675.261,66.17 C676.261,65.42 677.011,63.42 675.261,62.67 C673.511,61.92 671.011,61.67 669.511,60.92 C668.011,60.17 667.261,60.67 664.761,60.92 C662.261,61.17 660.011,58.92 659.261,60.17 z" fill="#CE4346"/>
      <path d="M659.261,60.17 C658.511,61.42 657.761,63.42 659.261,64.17 C660.761,64.92 662.511,64.42 663.511,64.92 C664.511,65.42 668.511,66.17 669.761,66.17 C671.011,66.17 674.261,66.92 675.261,66.17 C676.261,65.42 677.011,63.42 675.261,62.67 C673.511,61.92 671.011,61.67 669.511,60.92 C668.011,60.17 667.261,60.67 664.761,60.92 C662.261,61.17 660.011,58.92 659.261,60.17 z" fill-opacity="0" stroke="#000000" stroke-width="1" stroke-linecap="round" stroke-miterlimit="3.864"/>
    </g>
    <g id="path41">
      <path d="M657.511,226.17 C655.511,225.92 654.261,227.42 656.511,228.17 C658.761,228.92 658.761,229.42 659.761,230.67 C660.761,231.92 661.761,232.42 663.761,231.67 C665.761,230.92 668.261,230.42 668.511,228.67 C668.761,226.92 668.261,224.67 667.761,223.67 C667.261,222.67 664.761,221.92 662.761,223.17 C660.761,224.42 658.761,225.42 658.761,225.42 C658.761,225.42 659.511,226.42 657.511,226.17 z" fill="#CE4346"/>
      <path d="M657.511,226.17 C655.511,225.92 654.261,227.42 656.511,228.17 C658.761,228.92 658.761,229.42 659.761,230.67 C660.761,231.92 661.761,232.42 663.761,231.67 C665.761,230.92 668.261,230.42 668.511,228.67 C668.761,226.92 668.261,224.67 667.761,223.67 C667.261,222.67 664.761,221.92 662.761,223.17 C660.761,224.42 658.761,225.42 658.761,225.42 C658.761,225.42 659.511,226.42 657.511,226.17 z" fill-opacity="0" stroke="#000000" stroke-width="1" stroke-linecap="round" stroke-miterlimit="3.864"/>
    </g>
    <g id="path43">
      <path d="M638.011,250.17 C636.761,250.42 635.761,252.17 637.761,253.17 C639.761,254.17 641.261,254.42 641.761,256.17 C642.261,257.92 642.011,258.17 644.261,258.42 C646.511,258.67 646.261,259.42 647.511,258.92 C648.761,258.42 649.511,258.67 647.761,257.42 C646.011,256.17 645.261,256.42 645.261,254.42 C645.261,252.42 645.011,250.92 643.761,249.92 C642.511,248.92 642.011,248.42 640.761,249.42 C639.511,250.42 639.261,249.92 638.011,250.17 z" fill="#CE4346"/>
      <path d="M638.011,250.17 C636.761,250.42 635.761,252.17 637.761,253.17 C639.761,254.17 641.261,254.42 641.761,256.17 C642.261,257.92 642.011,258.17 644.261,258.42 C646.511,258.67 646.261,259.42 647.511,258.92 C648.761,258.42 649.511,258.67 647.761,257.42 C646.011,256.17 645.261,256.42 645.261,254.42 C645.261,252.42 645.011,250.92 643.761,249.92 C642.511,248.92 642.011,248.42 640.761,249.42 C639.511,250.42 639.261,249.92 638.011,250.17 z" fill-opacity="0" stroke="#000000" stroke-width="1" stroke-linecap="round" stroke-miterlimit="3.864"/>
    </g>
    <g id="path45">
      <path d="M686.261,178.17 C684.511,178.17 684.511,179.17 684.511,180.67 C684.511,182.17 682.011,183.42 685.511,185.17 C689.011,186.92 688.761,189.42 688.761,190.42 C688.761,191.42 689.011,193.42 691.511,195.17 C694.011,196.92 693.261,201.42 693.261,201.42 C693.261,201.42 694.011,207.67 694.011,208.67 C694.011,209.67 693.761,210.92 695.011,212.17 C696.261,213.42 701.011,217.17 701.761,218.17 C702.511,219.17 706.011,220.17 707.761,219.92 C709.511,219.67 720.261,218.17 725.011,219.17 C729.761,220.17 735.261,221.92 737.011,223.17 C738.761,224.42 740.761,227.17 741.261,228.17 C741.761,229.17 743.261,231.67 744.261,232.67 C745.261,233.67 744.511,233.92 743.511,235.42 C742.511,236.92 742.761,238.42 743.261,239.42 C743.761,240.42 744.761,245.17 746.011,245.92 C747.261,246.67 750.011,248.42 751.511,249.67 C753.011,250.92 755.011,252.42 757.761,252.67 C760.511,252.92 764.511,252.67 764.511,252.67 C764.511,252.67 771.011,254.42 772.011,254.92 C773.011,255.42 783.261,261.42 784.011,262.42 C784.761,263.42 787.011,266.92 788.011,267.67 C789.011,268.42 792.761,267.42 794.011,267.92 C795.261,268.42 798.511,268.17 798.511,266.42 C798.511,264.67 797.511,261.17 797.511,261.17 C797.511,261.17 800.511,260.67 802.261,260.67 C804.011,260.67 807.511,260.92 808.511,259.92 C809.511,258.92 812.261,255.92 810.761,254.67 C809.261,253.42 804.511,249.67 804.511,249.67 C804.511,249.67 799.511,248.92 798.761,247.67 C798.011,246.42 797.011,243.17 797.011,243.17 C797.011,243.17 794.761,240.42 796.511,238.545 C798.261,236.67 799.136,235.67 798.636,233.295 C798.136,230.92 797.761,228.67 798.636,227.295 C799.511,225.92 801.761,223.295 801.761,223.295 C801.761,223.295 806.636,220.295 808.636,220.295 C810.636,220.295 813.011,220.42 814.761,221.42 C816.511,222.42 818.636,224.42 819.261,224.795 C819.886,225.17 820.261,226.045 819.261,227.545 C818.261,229.045 817.261,229.92 817.136,230.67 C817.011,231.42 817.261,233.17 819.261,233.795 C821.261,234.42 823.136,235.295 826.011,235.17 C828.886,235.045 830.886,234.67 833.136,234.17 C835.386,233.67 835.386,233.295 836.761,231.92 C838.136,230.545 839.136,229.42 838.511,228.42 C837.886,227.42 836.636,226.17 835.386,226.045 C834.136,225.92 830.636,225.295 829.636,224.42 C828.636,223.545 824.136,218.795 823.886,217.92 C823.636,217.045 822.511,216.295 823.636,214.795 C824.761,213.295 824.136,212.17 823.386,211.045 C822.636,209.92 821.386,206.92 819.886,207.045 C818.386,207.17 813.511,207.295 811.761,206.795 C810.011,206.295 809.636,206.17 805.886,205.92 C802.136,205.67 801.386,206.295 801.386,207.045 C801.386,207.795 803.011,209.67 801.511,209.795 C800.011,209.92 799.761,210.92 799.386,211.795 C799.011,212.67 797.511,213.67 796.511,213.67 C795.511,213.67 787.011,211.795 784.261,209.67 C781.511,207.545 778.011,204.795 776.886,203.795 C775.761,202.795 773.636,201.795 772.011,200.795 C770.386,199.795 770.511,198.545 770.136,196.67 C769.761,194.795 767.886,192.92 767.011,192.17 C766.136,191.42 765.886,190.92 764.261,191.295 C762.636,191.67 762.136,192.545 762.511,193.42 C762.886,194.295 762.761,196.795 761.386,196.795 C760.011,196.795 757.886,196.42 757.386,196.67 C756.886,196.92 755.386,197.17 754.011,197.545 C752.636,197.92 751.386,198.42 750.011,197.795 C748.636,197.17 746.636,196.17 746.136,196.17 C745.636,196.17 744.261,195.92 742.761,194.67 C741.261,193.42 739.636,192.42 739.261,191.545 C738.886,190.67 737.386,188.295 736.136,186.42 C734.886,184.545 733.261,182.42 731.886,181.545 C730.511,180.67 730.261,178.17 729.011,176.295 C727.761,174.42 728.011,172.795 726.511,171.92 C725.011,171.045 723.511,170.045 722.761,170.045 C722.011,170.045 720.636,170.17 719.761,169.67 C718.886,169.17 717.011,168.295 716.761,168.795 C716.511,169.295 716.511,170.545 717.136,170.92 C717.761,171.295 718.886,171.795 717.886,173.17 C716.886,174.545 715.636,177.17 714.886,177.545 C714.136,177.92 712.886,178.295 711.386,177.42 C709.886,176.545 707.761,176.295 707.136,176.295 C706.511,176.295 705.261,176.295 704.761,176.92 C704.261,177.545 700.886,177.42 699.886,177.045 C698.886,176.67 699.261,177.17 698.511,176.17 C697.761,175.17 696.761,174.67 695.511,174.295 C694.261,173.92 693.386,173.795 691.761,173.92 C690.136,174.045 688.886,174.67 688.386,176.045 C687.886,177.42 688.011,178.17 686.261,178.17 z" fill="#CE4346"/>
      <path d="M686.261,178.17 C684.511,178.17 684.511,179.17 684.511,180.67 C684.511,182.17 682.011,183.42 685.511,185.17 C689.011,186.92 688.761,189.42 688.761,190.42 C688.761,191.42 689.011,193.42 691.511,195.17 C694.011,196.92 693.261,201.42 693.261,201.42 C693.261,201.42 694.011,207.67 694.011,208.67 C694.011,209.67 693.761,210.92 695.011,212.17 C696.261,213.42 701.011,217.17 701.761,218.17 C702.511,219.17 706.011,220.17 707.761,219.92 C709.511,219.67 720.261,218.17 725.011,219.17 C729.761,220.17 735.261,221.92 737.011,223.17 C738.761,224.42 740.761,227.17 741.261,228.17 C741.761,229.17 743.261,231.67 744.261,232.67 C745.261,233.67 744.511,233.92 743.511,235.42 C742.511,236.92 742.761,238.42 743.261,239.42 C743.761,240.42 744.761,245.17 746.011,245.92 C747.261,246.67 750.011,248.42 751.511,249.67 C753.011,250.92 755.011,252.42 757.761,252.67 C760.511,252.92 764.511,252.67 764.511,252.67 C764.511,252.67 771.011,254.42 772.011,254.92 C773.011,255.42 783.261,261.42 784.011,262.42 C784.761,263.42 787.011,266.92 788.011,267.67 C789.011,268.42 792.761,267.42 794.011,267.92 C795.261,268.42 798.511,268.17 798.511,266.42 C798.511,264.67 797.511,261.17 797.511,261.17 C797.511,261.17 800.511,260.67 802.261,260.67 C804.011,260.67 807.511,260.92 808.511,259.92 C809.511,258.92 812.261,255.92 810.761,254.67 C809.261,253.42 804.511,249.67 804.511,249.67 C804.511,249.67 799.511,248.92 798.761,247.67 C798.011,246.42 797.011,243.17 797.011,243.17 C797.011,243.17 794.761,240.42 796.511,238.545 C798.261,236.67 799.136,235.67 798.636,233.295 C798.136,230.92 797.761,228.67 798.636,227.295 C799.511,225.92 801.761,223.295 801.761,223.295 C801.761,223.295 806.636,220.295 808.636,220.295 C810.636,220.295 813.011,220.42 814.761,221.42 C816.511,222.42 818.636,224.42 819.261,224.795 C819.886,225.17 820.261,226.045 819.261,227.545 C818.261,229.045 817.261,229.92 817.136,230.67 C817.011,231.42 817.261,233.17 819.261,233.795 C821.261,234.42 823.136,235.295 826.011,235.17 C828.886,235.045 830.886,234.67 833.136,234.17 C835.386,233.67 835.386,233.295 836.761,231.92 C838.136,230.545 839.136,229.42 838.511,228.42 C837.886,227.42 836.636,226.17 835.386,226.045 C834.136,225.92 830.636,225.295 829.636,224.42 C828.636,223.545 824.136,218.795 823.886,217.92 C823.636,217.045 822.511,216.295 823.636,214.795 C824.761,213.295 824.136,212.17 823.386,211.045 C822.636,209.92 821.386,206.92 819.886,207.045 C818.386,207.17 813.511,207.295 811.761,206.795 C810.011,206.295 809.636,206.17 805.886,205.92 C802.136,205.67 801.386,206.295 801.386,207.045 C801.386,207.795 803.011,209.67 801.511,209.795 C800.011,209.92 799.761,210.92 799.386,211.795 C799.011,212.67 797.511,213.67 796.511,213.67 C795.511,213.67 787.011,211.795 784.261,209.67 C781.511,207.545 778.011,204.795 776.886,203.795 C775.761,202.795 773.636,201.795 772.011,200.795 C770.386,199.795 770.511,198.545 770.136,196.67 C769.761,194.795 767.886,192.92 767.011,192.17 C766.136,191.42 765.886,190.92 764.261,191.295 C762.636,191.67 762.136,192.545 762.511,193.42 C762.886,194.295 762.761,196.795 761.386,196.795 C760.011,196.795 757.886,196.42 757.386,196.67 C756.886,196.92 755.386,197.17 754.011,197.545 C752.636,197.92 751.386,198.42 750.011,197.795 C748.636,197.17 746.636,196.17 746.136,196.17 C745.636,196.17 744.261,195.92 742.761,194.67 C741.261,193.42 739.636,192.42 739.261,191.545 C738.886,190.67 737.386,188.295 736.136,186.42 C734.886,184.545 733.261,182.42 731.886,181.545 C730.511,180.67 730.261,178.17 729.011,176.295 C727.761,174.42 728.011,172.795 726.511,171.92 C725.011,171.045 723.511,170.045 722.761,170.045 C722.011,170.045 720.636,170.17 719.761,169.67 C718.886,169.17 717.011,168.295 716.761,168.795 C716.511,169.295 716.511,170.545 717.136,170.92 C717.761,171.295 718.886,171.795 717.886,173.17 C716.886,174.545 715.636,177.17 714.886,177.545 C714.136,177.92 712.886,178.295 711.386,177.42 C709.886,176.545 707.761,176.295 707.136,176.295 C706.511,176.295 705.261,176.295 704.761,176.92 C704.261,177.545 700.886,177.42 699.886,177.045 C698.886,176.67 699.261,177.17 698.511,176.17 C697.761,175.17 696.761,174.67 695.511,174.295 C694.261,173.92 693.386,173.795 691.761,173.92 C690.136,174.045 688.886,174.67 688.386,176.045 C687.886,177.42 688.011,178.17 686.261,178.17 z" fill-opacity="0" stroke="#000000" stroke-width="1" stroke-linecap="round" stroke-miterlimit="3.864"/>
    </g>
    <g id="path47">
      <path d="M799.261,238.92 C797.886,239.045 797.011,239.545 797.761,240.67 C798.511,241.795 799.011,243.17 798.886,244.045 C798.761,244.92 799.761,246.545 800.386,246.92 C801.011,247.295 802.261,248.17 803.136,247.17 C804.011,246.17 803.511,245.92 803.136,244.545 C802.761,243.17 802.636,242.295 802.761,240.795 C802.886,239.295 801.636,238.795 801.636,238.795 C801.636,238.795 800.636,238.795 799.261,238.92 z" fill="#CE4346"/>
      <path d="M799.261,238.92 C797.886,239.045 797.011,239.545 797.761,240.67 C798.511,241.795 799.011,243.17 798.886,244.045 C798.761,244.92 799.761,246.545 800.386,246.92 C801.011,247.295 802.261,248.17 803.136,247.17 C804.011,246.17 803.511,245.92 803.136,244.545 C802.761,243.17 802.636,242.295 802.761,240.795 C802.886,239.295 801.636,238.795 801.636,238.795 C801.636,238.795 800.636,238.795 799.261,238.92 z" fill-opacity="0" stroke="#000000" stroke-width="1" stroke-linecap="round" stroke-miterlimit="3.864"/>
    </g>
    <g id="path49">
      <path d="M836.011,239.795 C834.886,240.045 834.261,241.295 834.886,242.17 C835.511,243.045 835.261,244.17 837.011,243.795 C838.761,243.42 840.261,242.67 841.261,242.17 C842.261,241.67 843.761,240.42 843.136,239.545 C842.511,238.67 842.386,237.67 841.011,238.17 C839.636,238.67 835.511,239.795 835.511,239.795 C835.511,239.795 837.136,239.545 836.011,239.795 z" fill="#CE4346"/>
      <path d="M836.011,239.795 C834.886,240.045 834.261,241.295 834.886,242.17 C835.511,243.045 835.261,244.17 837.011,243.795 C838.761,243.42 840.261,242.67 841.261,242.17 C842.261,241.67 843.761,240.42 843.136,239.545 C842.511,238.67 842.386,237.67 841.011,238.17 C839.636,238.67 835.511,239.795 835.511,239.795 C835.511,239.795 837.136,239.545 836.011,239.795 z" fill-opacity="0" stroke="#000000" stroke-width="1" stroke-linecap="round" stroke-miterlimit="3.864"/>
    </g>
    <g id="path51">
      <path d="M732.136,154.67 C731.136,155.545 731.636,156.795 731.511,157.42 C731.386,158.045 732.136,159.045 732.761,160.17 C733.386,161.295 734.636,161.92 735.386,162.42 C736.136,162.92 738.136,164.17 738.761,165.045 C739.386,165.92 741.011,168.17 742.136,168.295 C743.261,168.42 747.261,168.545 748.011,169.295 C748.761,170.045 750.011,170.67 751.636,171.17 C753.261,171.67 754.261,172.67 755.386,172.92 C756.511,173.17 757.011,173.045 757.761,171.795 C758.511,170.545 758.886,168.92 757.636,168.92 C756.386,168.92 754.511,168.795 754.511,167.545 C754.511,166.295 753.761,165.045 753.261,164.545 C752.761,164.045 752.511,163.045 753.636,162.795 C754.761,162.545 756.386,163.92 758.011,163.045 C759.636,162.17 763.761,160.17 765.386,160.17 C767.011,160.17 768.261,160.545 769.386,159.42 C770.511,158.295 770.511,156.795 772.511,155.67 C774.511,154.545 775.386,153.295 774.261,153.545 C773.136,153.795 767.011,154.92 765.136,154.92 C763.261,154.92 762.886,155.045 760.261,154.42 C757.636,153.795 756.886,154.92 756.636,155.42 C756.386,155.92 755.386,155.17 754.636,153.92 C753.886,152.67 751.636,150.92 749.511,152.045 C747.386,153.17 745.886,154.045 745.386,154.045 C744.886,154.045 743.011,153.545 742.386,153.295 C741.761,153.045 739.761,152.42 737.261,152.92 C734.761,153.42 733.136,153.795 732.136,154.67 z" fill="#CE4346"/>
      <path d="M732.136,154.67 C731.136,155.545 731.636,156.795 731.511,157.42 C731.386,158.045 732.136,159.045 732.761,160.17 C733.386,161.295 734.636,161.92 735.386,162.42 C736.136,162.92 738.136,164.17 738.761,165.045 C739.386,165.92 741.011,168.17 742.136,168.295 C743.261,168.42 747.261,168.545 748.011,169.295 C748.761,170.045 750.011,170.67 751.636,171.17 C753.261,171.67 754.261,172.67 755.386,172.92 C756.511,173.17 757.011,173.045 757.761,171.795 C758.511,170.545 758.886,168.92 757.636,168.92 C756.386,168.92 754.511,168.795 754.511,167.545 C754.511,166.295 753.761,165.045 753.261,164.545 C752.761,164.045 752.511,163.045 753.636,162.795 C754.761,162.545 756.386,163.92 758.011,163.045 C759.636,162.17 763.761,160.17 765.386,160.17 C767.011,160.17 768.261,160.545 769.386,159.42 C770.511,158.295 770.511,156.795 772.511,155.67 C774.511,154.545 775.386,153.295 774.261,153.545 C773.136,153.795 767.011,154.92 765.136,154.92 C763.261,154.92 762.886,155.045 760.261,154.42 C757.636,153.795 756.886,154.92 756.636,155.42 C756.386,155.92 755.386,155.17 754.636,153.92 C753.886,152.67 751.636,150.92 749.511,152.045 C747.386,153.17 745.886,154.045 745.386,154.045 C744.886,154.045 743.011,153.545 742.386,153.295 C741.761,153.045 739.761,152.42 737.261,152.92 C734.761,153.42 733.136,153.795 732.136,154.67 z" fill-opacity="0" stroke="#000000" stroke-width="1" stroke-linecap="round" stroke-miterlimit="3.864"/>
    </g>
    <g id="path53">
      <path d="M818.886,257.42 C818.136,257.545 817.386,259.045 818.886,259.045 C820.386,259.045 819.636,257.295 818.886,257.42 z" fill="#CE4346"/>
      <path d="M818.886,257.42 C818.136,257.545 817.386,259.045 818.886,259.045 C820.386,259.045 819.636,257.295 818.886,257.42 z" fill-opacity="0" stroke="#000000" stroke-width="1" stroke-linecap="round" stroke-miterlimit="3.864"/>
    </g>
    <g id="path55">
      <path d="M895.011,234.67 C895.011,234.67 892.261,240.17 891.511,241.42 C890.761,242.67 890.761,244.92 891.261,246.17 C891.761,247.42 891.011,249.17 890.011,249.17 C889.011,249.17 886.511,250.17 886.261,251.42 C886.011,252.67 883.511,264.67 883.261,265.67 C883.011,266.67 883.761,269.67 885.261,270.92 C886.761,272.17 887.261,276.42 887.261,276.42 C887.261,276.42 887.761,279.42 889.511,281.42 C891.261,283.42 892.511,285.67 892.511,285.67 L894.761,291.17 C894.761,291.17 899.011,292.17 900.011,293.67 C901.011,295.17 904.011,297.67 904.011,297.67 C904.011,297.67 906.761,296.42 908.011,297.17 C909.261,297.92 910.261,296.92 910.261,294.17 C910.261,291.42 911.261,286.42 911.261,286.42 C911.261,286.42 916.011,280.92 917.261,280.17 C918.511,279.42 918.511,279.42 920.761,279.42 C923.011,279.42 920.761,278.17 922.261,276.17 C923.761,274.17 923.511,273.17 926.261,274.17 C929.011,275.17 930.261,273.67 929.761,272.17 C929.261,270.67 927.761,269.17 927.761,269.17 C927.761,269.17 925.011,268.42 923.761,266.67 C922.511,264.92 917.761,251.67 917.011,250.67 C916.261,249.67 914.761,246.42 912.761,245.42 C910.761,244.42 910.011,242.92 907.261,241.17 C904.511,239.42 902.261,236.92 900.011,235.67 C897.761,234.42 895.011,234.67 895.011,234.67 z" fill="#CE4346"/>
      <path d="M895.011,234.67 C895.011,234.67 892.261,240.17 891.511,241.42 C890.761,242.67 890.761,244.92 891.261,246.17 C891.761,247.42 891.011,249.17 890.011,249.17 C889.011,249.17 886.511,250.17 886.261,251.42 C886.011,252.67 883.511,264.67 883.261,265.67 C883.011,266.67 883.761,269.67 885.261,270.92 C886.761,272.17 887.261,276.42 887.261,276.42 C887.261,276.42 887.761,279.42 889.511,281.42 C891.261,283.42 892.511,285.67 892.511,285.67 L894.761,291.17 C894.761,291.17 899.011,292.17 900.011,293.67 C901.011,295.17 904.011,297.67 904.011,297.67 C904.011,297.67 906.761,296.42 908.011,297.17 C909.261,297.92 910.261,296.92 910.261,294.17 C910.261,291.42 911.261,286.42 911.261,286.42 C911.261,286.42 916.011,280.92 917.261,280.17 C918.511,279.42 918.511,279.42 920.761,279.42 C923.011,279.42 920.761,278.17 922.261,276.17 C923.761,274.17 923.511,273.17 926.261,274.17 C929.011,275.17 930.261,273.67 929.761,272.17 C929.261,270.67 927.761,269.17 927.761,269.17 C927.761,269.17 925.011,268.42 923.761,266.67 C922.511,264.92 917.761,251.67 917.011,250.67 C916.261,249.67 914.761,246.42 912.761,245.42 C910.761,244.42 910.011,242.92 907.261,241.17 C904.511,239.42 902.261,236.92 900.011,235.67 C897.761,234.42 895.011,234.67 895.011,234.67 z" fill-opacity="0" stroke="#000000" stroke-width="1" stroke-linecap="round" stroke-miterlimit="3.864"/>
    </g>
    <g id="path57">
      <path d="M943.511,212.42 C942.511,213.67 943.261,216.17 943.261,216.17 C943.261,216.17 946.261,219.67 946.261,221.67 C946.261,223.67 947.761,226.17 949.511,227.67 C951.261,229.17 950.511,230.42 954.261,230.42 C958.011,230.42 958.761,231.42 959.011,232.92 C959.261,234.42 958.511,237.17 962.011,236.67 C965.511,236.17 966.511,234.92 967.761,233.92 C969.011,232.92 969.761,230.42 968.761,229.42 C967.761,228.42 965.761,227.92 965.761,225.42 C965.761,222.92 966.511,222.42 964.511,221.42 C962.511,220.42 961.261,217.42 961.261,217.42 L960.511,215.17 C960.511,215.17 959.261,212.17 957.261,211.92 C955.261,211.67 953.761,210.92 953.761,210.92 L952.011,207.67 C952.011,207.67 952.261,206.42 950.011,206.42 C947.761,206.42 945.511,206.17 945.511,206.17 C945.511,206.17 943.761,207.42 943.511,208.42 C943.261,209.42 944.511,211.17 943.511,212.42 z" fill="#CE4346"/>
      <path d="M943.511,212.42 C942.511,213.67 943.261,216.17 943.261,216.17 C943.261,216.17 946.261,219.67 946.261,221.67 C946.261,223.67 947.761,226.17 949.511,227.67 C951.261,229.17 950.511,230.42 954.261,230.42 C958.011,230.42 958.761,231.42 959.011,232.92 C959.261,234.42 958.511,237.17 962.011,236.67 C965.511,236.17 966.511,234.92 967.761,233.92 C969.011,232.92 969.761,230.42 968.761,229.42 C967.761,228.42 965.761,227.92 965.761,225.42 C965.761,222.92 966.511,222.42 964.511,221.42 C962.511,220.42 961.261,217.42 961.261,217.42 L960.511,215.17 C960.511,215.17 959.261,212.17 957.261,211.92 C955.261,211.67 953.761,210.92 953.761,210.92 L952.011,207.67 C952.011,207.67 952.261,206.42 950.011,206.42 C947.761,206.42 945.511,206.17 945.511,206.17 C945.511,206.17 943.761,207.42 943.511,208.42 C943.261,209.42 944.511,211.17 943.511,212.42 z" fill-opacity="0" stroke="#000000" stroke-width="1" stroke-linecap="round" stroke-miterlimit="3.864"/>
    </g>
    <g id="path59">
      <path d="M939.761,201.17 C939.761,202.42 943.511,200.17 943.511,198.92 C943.511,197.67 939.761,199.92 939.761,201.17 z" fill="#CE4346"/>
      <path d="M939.761,201.17 C939.761,202.42 943.511,200.17 943.511,198.92 C943.511,197.67 939.761,199.92 939.761,201.17 z" fill-opacity="0" stroke="#000000" stroke-width="1" stroke-linecap="round" stroke-miterlimit="3.864"/>
    </g>
    <g id="path61">
      <path d="M1016.762,231.92 C1016.762,231.92 1015.012,234.92 1014.512,235.92 C1014.012,236.92 1013.762,239.17 1014.262,240.42 C1014.762,241.67 1015.012,245.42 1015.012,245.42 C1015.012,245.42 1016.012,250.42 1016.762,252.17 C1017.512,253.92 1019.262,254.67 1020.262,254.17 C1021.262,253.67 1021.512,253.17 1020.512,251.17 C1019.512,249.17 1019.512,249.17 1020.762,247.17 C1022.012,245.17 1023.262,242.17 1023.262,242.17 C1023.262,242.17 1024.011,237.67 1023.762,236.42 C1023.512,235.17 1023.262,233.42 1022.512,232.42 C1021.762,231.42 1021.012,230.67 1019.512,230.42 C1018.012,230.17 1016.762,231.92 1016.762,231.92 z" fill="#CE4346"/>
      <path d="M1016.762,231.92 C1016.762,231.92 1015.012,234.92 1014.512,235.92 C1014.012,236.92 1013.762,239.17 1014.262,240.42 C1014.762,241.67 1015.012,245.42 1015.012,245.42 C1015.012,245.42 1016.012,250.42 1016.762,252.17 C1017.512,253.92 1019.262,254.67 1020.262,254.17 C1021.262,253.67 1021.512,253.17 1020.512,251.17 C1019.512,249.17 1019.512,249.17 1020.762,247.17 C1022.012,245.17 1023.262,242.17 1023.262,242.17 C1023.262,242.17 1024.011,237.67 1023.762,236.42 C1023.512,235.17 1023.262,233.42 1022.512,232.42 C1021.762,231.42 1021.012,230.67 1019.512,230.42 C1018.012,230.17 1016.762,231.92 1016.762,231.92 z" fill-opacity="0" stroke="#000000" stroke-width="1" stroke-linecap="round" stroke-miterlimit="3.864"/>
    </g>
    <g id="path63">
      <path d="M923.511,160.17 C922.511,161.17 922.011,162.42 923.511,163.92 C925.011,165.42 927.511,168.92 928.761,169.67 C930.011,170.42 931.511,170.92 932.511,171.42 C933.511,171.92 934.761,170.92 934.261,169.92 C933.761,168.92 933.261,168.67 933.511,167.17 C933.761,165.67 933.011,164.67 931.761,164.67 C930.511,164.67 927.761,163.17 927.761,163.17 L926.011,160.92 C926.011,160.92 924.511,159.17 923.511,160.17 z" fill="#CE4346"/>
      <path d="M923.511,160.17 C922.511,161.17 922.011,162.42 923.511,163.92 C925.011,165.42 927.511,168.92 928.761,169.67 C930.011,170.42 931.511,170.92 932.511,171.42 C933.511,171.92 934.761,170.92 934.261,169.92 C933.761,168.92 933.261,168.67 933.511,167.17 C933.761,165.67 933.011,164.67 931.761,164.67 C930.511,164.67 927.761,163.17 927.761,163.17 L926.011,160.92 C926.011,160.92 924.511,159.17 923.511,160.17 z" fill-opacity="0" stroke="#000000" stroke-width="1" stroke-linecap="round" stroke-miterlimit="3.864"/>
    </g>
    <g id="path65">
      <path d="M944.261,159.67 C942.511,159.67 941.511,161.17 941.761,162.17 C942.011,163.17 942.261,167.42 942.261,167.42 C942.261,167.42 944.011,170.42 945.011,171.17 C946.011,171.92 948.011,175.67 948.261,177.17 C948.511,178.67 952.011,180.42 953.261,179.17 C954.511,177.92 954.261,175.42 953.011,174.67 C951.761,173.92 948.761,172.42 950.011,170.67 C951.261,168.92 951.761,167.92 951.761,167.92 C951.761,167.92 950.261,164.42 949.511,163.17 C948.761,161.92 948.511,160.42 946.761,159.67 C945.011,158.92 946.011,159.67 944.261,159.67 z" fill="#CE4346"/>
      <path d="M944.261,159.67 C942.511,159.67 941.511,161.17 941.761,162.17 C942.011,163.17 942.261,167.42 942.261,167.42 C942.261,167.42 944.011,170.42 945.011,171.17 C946.011,171.92 948.011,175.67 948.261,177.17 C948.511,178.67 952.011,180.42 953.261,179.17 C954.511,177.92 954.261,175.42 953.011,174.67 C951.761,173.92 948.761,172.42 950.011,170.67 C951.261,168.92 951.761,167.92 951.761,167.92 C951.761,167.92 950.261,164.42 949.511,163.17 C948.761,161.92 948.511,160.42 946.761,159.67 C945.011,158.92 946.011,159.67 944.261,159.67 z" fill-opacity="0" stroke="#000000" stroke-width="1" stroke-linecap="round" stroke-miterlimit="3.864"/>
    </g>
    <g id="path67">
      <path d="M491.511,436.17 C490.261,436.92 489.511,438.17 491.011,438.92 C492.511,439.67 493.761,439.17 493.761,439.17 C493.761,439.17 493.261,438.17 493.761,436.92 C494.261,435.67 492.761,435.42 491.511,436.17 z" fill="#CE4346"/>
      <path d="M491.511,436.17 C490.261,436.92 489.511,438.17 491.011,438.92 C492.511,439.67 493.761,439.17 493.761,439.17 C493.761,439.17 493.261,438.17 493.761,436.92 C494.261,435.67 492.761,435.42 491.511,436.17 z" fill-opacity="0" stroke="#000000" stroke-width="1" stroke-linecap="round" stroke-miterlimit="3.864"/>
    </g>
  </g>
</svg>
