<svg id="Group_14" data-name="Group 14" xmlns="http://www.w3.org/2000/svg" width="363.967" height="53.226" viewBox="0 0 363.967 53.226">
  <path id="Path_178" data-name="Path 178" d="M370.711,46.7V42.761h.326a2.313,2.313,0,0,1,1.661.482,1.96,1.96,0,0,1,.672,1.484,2,2,0,0,1-.672,1.5,2.372,2.372,0,0,1-1.661.473ZM369.5,47.71h1.773a3.3,3.3,0,0,0,2.222-.688,2.933,2.933,0,0,0,1.129-2.287,3.037,3.037,0,0,0-3.341-2.984H369.5Zm-4.534-2.2h-1.774l.9-2.144Zm.382.937.532,1.261h1.3l-2.614-6.084h-.914l-2.7,6.084h1.288l.561-1.261Zm-7.458,1.261V42.761h1.4v-1.01h-4v1.01h1.391V47.71Zm-4.824-5.4a2.791,2.791,0,0,0-1.829-.663,1.8,1.8,0,0,0-1.941,1.707c0,.823.391,1.242,1.53,1.635a4.925,4.925,0,0,1,.84.34.7.7,0,0,1,.364.615.872.872,0,0,1-.942.841,1.441,1.441,0,0,1-1.325-.8l-.785.724a2.447,2.447,0,0,0,2.156,1.135,1.971,1.971,0,0,0,2.146-1.957c0-.947-.41-1.375-1.792-1.858-.727-.259-.942-.429-.942-.751,0-.375.383-.66.9-.66a1.282,1.282,0,0,1,.981.482Zm-9.042,2.179V42.761h.419c.831,0,1.214.268,1.214.857s-.373.876-1.138.876Zm0,1.009h.784c1.343,0,2.1-.679,2.1-1.885a1.859,1.859,0,0,0-.635-1.412,2.292,2.292,0,0,0-1.643-.455h-1.819V47.71h1.213Zm-5.749.009H336.5l.9-2.144Zm.383.937.532,1.261h1.3l-2.613-6.084h-.915l-2.7,6.084h1.288l.559-1.261Zm-8.222-.937H328.66l.9-2.144Zm.382.937.533,1.261h1.3l-2.613-6.084h-.915l-2.7,6.084h1.288l.561-1.261Zm-10-2.178v-2.52H319.6V47.71h1.213V45.173l.15-.144,2.212,2.681h1.6L322,44.5l2.633-2.751H323.1Zm-13.99,3.439h1.213V43.681l3.79,4.145h.84V41.751h-1.214v4.011l-3.789-4.145h-.84Zm-4.535-2.2h-1.773l.9-2.144Zm.383.937.532,1.261h1.3l-2.613-6.084h-.914l-2.7,6.084h1.287l.561-1.261ZM292,41.751h-1.325l2.64,6.11h.655l2.687-6.11h-1.315l-1.681,4ZM283.7,47.71V42.761h1.4v-1.01h-4v1.01h1.39V47.71Zm-4.965-5.959h-1.213V47.71h1.213Zm-3.976,1.01v-1.01h-3.444V47.71h3.444V46.7h-2.231V45.093h2.147V44.082h-2.147V42.761Zm-7.215,4.949V42.761h1.4v-1.01h-4v1.01h1.391V47.71Zm-4.964-5.959h-1.213V47.71h1.213Zm-4.087.564a2.792,2.792,0,0,0-1.83-.663,1.8,1.8,0,0,0-1.94,1.707c0,.823.391,1.242,1.53,1.635a4.887,4.887,0,0,1,.84.34.7.7,0,0,1,.364.615.872.872,0,0,1-.942.841,1.447,1.447,0,0,1-1.327-.8l-.783.724a2.45,2.45,0,0,0,2.157,1.135A1.971,1.971,0,0,0,258.7,45.9c0-.947-.411-1.375-1.792-1.858-.728-.259-.943-.429-.943-.751,0-.375.383-.66.9-.66a1.278,1.278,0,0,1,.98.482Zm-9.416,2.179v-1.8h.373c.756,0,1.167.3,1.167.883,0,.6-.411.921-1.185.921Zm1.372.705a1.6,1.6,0,0,0,1.418-1.688c0-1.116-.8-1.76-2.2-1.76h-1.8V47.71h1.214v-2.4h.158l1.681,2.4h1.493ZM245.1,42.761v-1.01h-3.446V47.71H245.1V46.7h-2.231V45.093h2.147V44.082h-2.147V42.761Zm-10.425-1.01h-1.325l2.641,6.11h.654l2.688-6.11h-1.316l-1.68,4Zm-3.629,0H229.83V47.71h1.214Zm-10.07,5.959h1.213V43.681l3.79,4.145h.839V41.751H225.6v4.011l-3.79-4.145h-.839Zm-6.8-5.959h-1.214V45.4a2.413,2.413,0,0,0,.457,1.589,2.861,2.861,0,0,0,4.088,0,2.413,2.413,0,0,0,.458-1.589V41.751h-1.213v3.413a1.743,1.743,0,0,1-.2,1.063,1.355,1.355,0,0,1-2.184,0,1.736,1.736,0,0,1-.2-1.063ZM207,43.448a1.238,1.238,0,1,0,1.278,1.234A1.269,1.269,0,0,0,207,43.448Zm-7.979,2.064h-1.773l.9-2.144Zm.382.937.532,1.261h1.3l-2.613-6.084h-.914l-2.7,6.084H196.3l.56-1.261Zm-9.052-1.955V42.761h.421c.83,0,1.213.268,1.213.857s-.373.876-1.139.876Zm0,1.009h.785c1.344,0,2.1-.679,2.1-1.885a1.862,1.862,0,0,0-.635-1.412,2.292,2.292,0,0,0-1.643-.455h-1.82V47.71h1.213Zm-5.748.009h-1.773l.9-2.144Zm.383.937.532,1.261h1.3l-2.613-6.084h-.915l-2.7,6.084h1.288l.56-1.261Zm-10-2.178v-2.52h-1.213V47.71h1.213V45.173l.15-.144,2.212,2.681h1.6L176.173,44.5l2.632-2.751h-1.531Zm-3.977-1.51v-1.01h-3.444V47.71h3.444V46.7h-2.23V45.093h2.146V44.082H168.78V42.761Zm-6.317-.446a2.792,2.792,0,0,0-1.83-.663,1.8,1.8,0,0,0-1.941,1.707c0,.823.392,1.242,1.531,1.635a4.9,4.9,0,0,1,.839.34.7.7,0,0,1,.365.615.872.872,0,0,1-.943.841,1.442,1.442,0,0,1-1.325-.8l-.785.724a2.449,2.449,0,0,0,2.157,1.135,1.972,1.972,0,0,0,2.147-1.957c0-.947-.411-1.375-1.793-1.858-.728-.259-.942-.429-.942-.751,0-.375.382-.66.9-.66a1.278,1.278,0,0,1,.98.482Zm-8.213,3.2h-1.773l.9-2.144Zm.383.937.532,1.261h1.3l-2.613-6.084h-.915l-2.7,6.084h1.288l.56-1.261Zm-9.333-1.472V47.71h1.213V44.977l2.184-3.226H149.48l-1.316,2.072-1.344-2.072h-1.437Zm-8.315-3.226H138V47.71h1.214Zm-8.073,2.305V41.751h-1.214V47.71h1.214V45.065h2.632V47.71h1.213V41.751h-1.213v2.305Zm-4.984,3.654V42.761h1.4v-1.01h-4v1.01h1.39V47.71Zm-4.965-5.959H119.98V47.71h1.213Zm-4.087.564a2.788,2.788,0,0,0-1.829-.663,1.8,1.8,0,0,0-1.941,1.707c0,.823.392,1.242,1.531,1.635a4.9,4.9,0,0,1,.839.34.7.7,0,0,1,.365.615.872.872,0,0,1-.943.841,1.441,1.441,0,0,1-1.325-.8l-.784.724a2.446,2.446,0,0,0,2.156,1.135,1.971,1.971,0,0,0,2.146-1.957c0-.947-.41-1.375-1.792-1.858-.728-.259-.942-.429-.942-.751,0-.375.382-.66.9-.66a1.278,1.278,0,0,1,.98.482Zm-6.441.446v-1.01h-3.443V47.71h3.443V46.7h-2.23V45.093h2.146V44.082h-2.146V42.761Zm-10.423-1.01H98.916l2.642,6.11h.653l2.688-6.11h-1.316l-1.68,4Zm-3.63,0H95.4V47.71h1.213ZM86.542,47.71h1.213V43.681l3.79,4.145h.84V41.751H91.171v4.011l-3.789-4.145h-.84Zm-6.8-5.959H78.526V45.4a2.407,2.407,0,0,0,.458,1.589,2.861,2.861,0,0,0,4.088,0,2.407,2.407,0,0,0,.457-1.589V41.751H82.316v3.413a1.736,1.736,0,0,1-.2,1.063,1.355,1.355,0,0,1-2.184,0,1.736,1.736,0,0,1-.2-1.063Zm-6.86,3.226V47.71h1.213V44.977l2.184-3.226H74.831l-1.316,2.072-1.344-2.072H70.733Zm-4.395-3.226H67.272V47.71h1.213Z" transform="translate(-10.654 -9.442)" fill="#008cd4"/>
  <path id="Path_179" data-name="Path 179" d="M361.182,33.695h2.791V23.929l8.715,10.048h1.933V19.251H371.83v9.724l-8.716-10.049h-1.932ZM340.037,19.251H337.1l5.066,14.726h1.954l3.349-9.442,3.178,9.442H352.6l5.387-14.726h-2.941l-3.435,9.832-3.328-9.962h-1.524l-3.5,9.962ZM327.011,21.5a4.973,4.973,0,1,1-4.788,4.959A4.867,4.867,0,0,1,327.011,21.5Zm0-2.577a7.548,7.548,0,0,0-7.665,7.58,7.654,7.654,0,1,0,7.665-7.58ZM313.55,33.695v-12h3.219V19.251H307.56V21.7h3.2v12Zm-17.284-12V19.251h-7.922V33.695h7.922V31.249h-5.131v-3.9h4.937V24.9h-4.937V21.7ZM278.15,25.9V21.7h.967c1.91,0,2.79.65,2.79,2.079s-.858,2.122-2.619,2.122Zm0,2.448h1.8c3.092,0,4.831-1.646,4.831-4.57a4.606,4.606,0,0,0-1.46-3.421c-.9-.8-1.91-1.105-3.778-1.105h-4.187V33.695h2.791Zm-11.075.021H263l2.082-5.2Zm.88,2.274,1.225,3.053h2.983l-6.011-14.747h-2.1l-6.2,14.747h2.963l1.287-3.053ZM255.378,19.814a7.082,7.082,0,0,0-3.436-.888,7.56,7.56,0,0,0-7.621,7.558,7.447,7.447,0,0,0,7.557,7.537,7.625,7.625,0,0,0,3.5-.845V29.862a4.449,4.449,0,0,1-3.371,1.581,4.7,4.7,0,0,1-4.809-4.981,4.783,4.783,0,0,1,4.68-4.959,4.65,4.65,0,0,1,3.5,1.624ZM231.66,21.7V19.251h-7.579V33.695h2.791V27.351h4.487V24.9h-4.487V21.7Zm-19.3-.195a4.973,4.973,0,1,1-4.787,4.959A4.867,4.867,0,0,1,212.364,21.5Zm0-2.577a7.548,7.548,0,0,0-7.665,7.58,7.655,7.655,0,1,0,7.665-7.58Zm-26.792,8.143v6.626h2.791V27.069l5.024-7.818h-3.328l-3.027,5.024-3.092-5.024h-3.306Zm-9.7,6.626v-12h3.22V19.251h-9.21V21.7h3.2v12ZM166.6,19.251H163.8V33.695H166.6Zm-7.254,1.364a6.236,6.236,0,0,0-4.208-1.6,4.222,4.222,0,0,0-4.466,4.136c0,1.993.9,3.01,3.521,3.963a11.235,11.235,0,0,1,1.933.823,1.733,1.733,0,0,1,.837,1.494,2.048,2.048,0,0,1-2.169,2.036,3.3,3.3,0,0,1-3.048-1.927l-1.8,1.754a5.559,5.559,0,0,0,4.96,2.75,4.638,4.638,0,0,0,4.938-4.743c0-2.3-.945-3.334-4.122-4.5-1.675-.628-2.169-1.039-2.169-1.819,0-.91.881-1.6,2.083-1.6a2.884,2.884,0,0,1,2.254,1.169ZM139.831,25.9V21.525h.858c1.74,0,2.684.736,2.684,2.144,0,1.451-.944,2.23-2.726,2.23Zm3.156,1.711a3.834,3.834,0,0,0,3.263-4.093c0-2.706-1.846-4.266-5.066-4.266H137.04V33.695h2.791v-5.8h.365l3.864,5.8H147.5ZM132.83,21.7V19.251h-7.922V33.695h7.922V31.249H127.7v-3.9h4.938V24.9H127.7V21.7ZM111,19.251h-3.048l6.075,14.813h1.5l6.183-14.813h-3.027l-3.865,9.7Zm-6.2,0h-2.791V33.695H104.8ZM83.782,33.695h2.791V23.929L95.29,33.977h1.932V19.251H94.431v9.724L85.714,18.926H83.782Zm-13.5-14.444H67.492v8.836a6.079,6.079,0,0,0,1.052,3.854,6.355,6.355,0,0,0,9.4,0A6.079,6.079,0,0,0,79,28.087V19.251H76.208v8.272a4.406,4.406,0,0,1-.45,2.578,3.022,3.022,0,0,1-5.024,0,4.4,4.4,0,0,1-.451-2.578Z" transform="translate(-10.654 -9.442)" fill="#008cd4"/>
  <g id="Group_13" data-name="Group 13">
    <path id="Path_180" data-name="Path 180" d="M10.654,9.442H51.649V35.159c0,20.631-20.5,27.509-20.5,27.509s-20.5-6.878-20.5-27.48Z" transform="translate(-10.654 -9.442)" fill="#1a1818"/>
    <path id="Path_181" data-name="Path 181" d="M51.046,10.04V35.159c0,19.023-17.835,26.118-19.894,26.874-2.06-.756-19.9-7.849-19.9-26.845V10.04Z" transform="translate(-10.654 -9.442)" fill="#fff"/>
    <path id="Path_182" data-name="Path 182" d="M49.238,35.159c0,16.5-14.425,23.452-18.087,24.947-3.662-1.495-18.086-8.444-18.086-24.918V11.835H49.238Z" transform="translate(-10.654 -9.442)" fill="#1a1818"/>
    <path id="Path_183" data-name="Path 183" d="M31.151,59.458c-3.966-1.665-17.483-8.52-17.483-24.27V12.433H48.635V35.159C48.635,50.935,35.117,57.793,31.151,59.458Z" transform="translate(-10.654 -9.442)" fill="#1a1818"/>
    <path id="Path_184" data-name="Path 184" d="M31.308,29.359a1.231,1.231,0,0,1,1.283,1.284,1.009,1.009,0,0,1-.2.646H32.3s-.029,0-.029-.057.068-.19.089-.286a2.09,2.09,0,0,0,.034-.351c0-.376-.309-1.024-.756-1.024H31.3c-.063,0-.069.044-.115.086.052.2.237.185.381.318a1.1,1.1,0,0,1,.311.737c0,.16-.143.6-.411.6h-1.08c-.231,0-.287-.366-.287-.461,0-.058-.05-.128-.05-.187A1.294,1.294,0,0,1,31.308,29.359Z" transform="translate(-10.654 -9.442)" fill="#fff"/>
    <path id="Path_185" data-name="Path 185" d="M31.419,28.371a1.2,1.2,0,0,1,.692.223c.052.067.16.106.16.165a2.435,2.435,0,0,1,.269.545v.267a1.769,1.769,0,0,0-1.232-.495,1.727,1.727,0,0,0-1.128.447c-.009-.035-.034-.022-.034-.081a.605.605,0,0,1,.057-.168A1.241,1.241,0,0,1,31.419,28.371Z" transform="translate(-10.654 -9.442)" fill="#fff"/>
    <path id="Path_186" data-name="Path 186" d="M33.267,28.254a8.9,8.9,0,0,1,2.658.881.457.457,0,0,1-.159.074c-.687.085-1.384.173-2.082.219-.153-.359-.45-1.057-.45-1.116S33.237,28.28,33.267,28.254Z" transform="translate(-10.654 -9.442)" fill="#fff"/>
    <path id="Path_187" data-name="Path 187" d="M29.32,28.23l.257.029a3.531,3.531,0,0,0-.546,1.287h-.375a11.756,11.756,0,0,1-2.187-.362A8.9,8.9,0,0,1,29.32,28.23Z" transform="translate(-10.654 -9.442)" fill="#fff"/>
    <path id="Path_188" data-name="Path 188" d="M32.161,28.088a2.615,2.615,0,0,1,.422.055c.325.114.651.866.651,1.134a.791.791,0,0,0,.048.214c-.027.03-.023.045,0,.327a1.373,1.373,0,0,1-.412.93,10.7,10.7,0,0,1-.106-1.26,1.259,1.259,0,0,0-.361-.871,1.178,1.178,0,0,0-.985-.434,1.454,1.454,0,0,0-1.469,1.329.164.164,0,0,1-.035.1c-.015.093,0,.19-.009.281a3.346,3.346,0,0,0-.158.854c-.191,0-.341-.569-.341-.726,0-.058-.05-.141-.05-.2,0-.524.438-1.6.9-1.707Z" transform="translate(-10.654 -9.442)" fill="#fff"/>
    <path id="Path_189" data-name="Path 189" d="M27.9,27.64c.118,0,.2.436.2.436,0,.18-.165.131-.33.2a7.64,7.64,0,0,1-.741.259c-.3.1-.616.253-.919.395a.944.944,0,0,1-.208-.458C25.9,28.271,27.817,27.64,27.9,27.64Z" transform="translate(-10.654 -9.442)" fill="#fff"/>
    <path id="Path_190" data-name="Path 190" d="M34.481,27.618c.132,0,2.085.643,2.085.87,0,.081-.14.4-.208.4s-.568-.233-.845-.348c-.337-.141-.722-.228-1.086-.367a.15.15,0,0,1-.107-.156C34.32,28,34.391,27.618,34.481,27.618Z" transform="translate(-10.654 -9.442)" fill="#fff"/>
    <path id="Path_191" data-name="Path 191" d="M26.24,27.336a1.923,1.923,0,0,1,.179.47c0,.094-.522.305-.632.329a2.206,2.206,0,0,1-.233-.469C25.554,27.576,26.049,27.335,26.24,27.336Z" transform="translate(-10.654 -9.442)" fill="#fff"/>
    <path id="Path_192" data-name="Path 192" d="M36.209,27.313c.068,0,.7.283.7.376a2.237,2.237,0,0,1-.2.445c-.047-.009-.711-.221-.711-.375C36,27.683,36.147,27.313,36.209,27.313Z" transform="translate(-10.654 -9.442)" fill="#fff"/>
    <path id="Path_193" data-name="Path 193" d="M31.543,27.17c.06,0,.1.006.568.023a8.542,8.542,0,0,1,2.133.382V27.7c0,.1-.088.368-.171.368-.062,0-.681-.16-1-.206-.293-.044-.617-.054-.913-.1l-.744-.026c-.028-.024-.054-.049-.081-.076v-.384A.339.339,0,0,1,31.543,27.17Z" transform="translate(-10.654 -9.442)" fill="#fff"/>
    <path id="Path_194" data-name="Path 194" d="M31.128,27.171a.451.451,0,0,1,.081.235c0,.347-.127.353-.461.353h-.313c-.393,0-1.886.329-2.053.329-.13,0-.211-.317-.211-.411a.156.156,0,0,1,.036-.122c.17-.055.367-.1.567-.144.536-.117,1.087-.152,1.631-.218Z" transform="translate(-10.654 -9.442)" fill="#fff"/>
    <path id="Path_195" data-name="Path 195" d="M33.073,26.44c.265,0,2.876.578,2.876.813a1.3,1.3,0,0,1-.206.482c-.526-.166-1.062-.351-1.611-.489a6.482,6.482,0,0,1-1.217-.269c.022-.267.026-.281,0-.312C32.942,26.614,32.932,26.44,33.073,26.44Z" transform="translate(-10.654 -9.442)" fill="#fff"/>
    <path id="Path_196" data-name="Path 196" d="M29.449,26.44a.715.715,0,0,1,.106.471c0,.144-.186.126-.307.147a9.84,9.84,0,0,0-1.208.259c-.436.135-1,.35-1.441.44a1.83,1.83,0,0,1-.18-.444c0-.167.52-.284.552-.293A12.605,12.605,0,0,1,29.449,26.44Z" transform="translate(-10.654 -9.442)" fill="#fff"/>
    <path id="Path_197" data-name="Path 197" d="M31.959,26.321c.061,0,.5.048.749.078a.189.189,0,0,1,.081.146.847.847,0,0,1-.05.234c.022.017-.011.123-.029.2-.625-.021-.862-.069-.924-.069H30.607c-.062,0-.546.048-.823.07a.64.64,0,0,1-.106-.4.286.286,0,0,1,.029-.155,6.344,6.344,0,0,1,.752-.105Z" transform="translate(-10.654 -9.442)" fill="#fff"/>
    <path id="Path_198" data-name="Path 198" d="M27.493,26.017c.062,0,.085,0,.1.03a2.684,2.684,0,0,1,.109.362v.144l-2.238.805a1.13,1.13,0,0,1-.181-.423c0-.094.294-.229.328-.243A9.122,9.122,0,0,1,27.493,26.017Z" transform="translate(-10.654 -9.442)" fill="#fff"/>
    <path id="Path_199" data-name="Path 199" d="M34.889,25.993a9.421,9.421,0,0,1,2.345.918,1.837,1.837,0,0,1-.159.394c-.016.024-.026.03-.088.03s-1.02-.4-1.548-.584c-.212-.074-.479-.113-.693-.2a.154.154,0,0,1-.08-.144,1.467,1.467,0,0,1,.134-.38C34.822,26.017,34.827,25.993,34.889,25.993Z" transform="translate(-10.654 -9.442)" fill="#fff"/>
    <path id="Path_200" data-name="Path 200" d="M25.654,25.8c.061,0,.065.025.086.033a1.467,1.467,0,0,1,.136.392c0,.1-.6.345-.708.376a1.519,1.519,0,0,1-.2-.46A2.575,2.575,0,0,1,25.654,25.8Z" transform="translate(-10.654 -9.442)" fill="#fff"/>
    <path id="Path_201" data-name="Path 201" d="M36.752,25.756a2.277,2.277,0,0,1,.778.413c0,.1-.138.412-.222.412-.062,0-.487-.212-.735-.316-.025-.015-.031-.025-.031-.084s.075-.212.075-.27S36.69,25.756,36.752,25.756Z" transform="translate(-10.654 -9.442)" fill="#fff"/>
    <path id="Path_202" data-name="Path 202" d="M31.715,25.475c.062,0,.4.006.89.046a6.788,6.788,0,0,1,2.012.46,1.011,1.011,0,0,1-.157.48c-.353-.069-.722-.148-1.068-.2-.515-.082-1.519-.17-1.581-.17h-.346a.267.267,0,0,1-.109-.127.535.535,0,0,0,0-.237C31.363,25.448,31.523,25.475,31.715,25.475Z" transform="translate(-10.654 -9.442)" fill="#fff"/>
    <path id="Path_203" data-name="Path 203" d="M31.023,25.475c.061,0,.073.023.152.051a1.768,1.768,0,0,1,.033.483c-.027.028-.052.051-.081.078h-.446c-.585,0-2.6.376-2.749.4A1.649,1.649,0,0,1,27.8,26.1V25.95a10.472,10.472,0,0,1,2.206-.4C30.427,25.507,30.962,25.475,31.023,25.475Z" transform="translate(-10.654 -9.442)" fill="#fff"/>
    <path id="Path_204" data-name="Path 204" d="M35.758,25.429h.1c.037,0,.633.208.633.294s-.135.411-.235.411a3.554,3.554,0,0,1-.6-.2.139.139,0,0,1-.057-.121A2.247,2.247,0,0,1,35.758,25.429Z" transform="translate(-10.654 -9.442)" fill="#fff"/>
    <path id="Path_205" data-name="Path 205" d="M26.629,25.428c.074,0,.184.434.184.447,0,.06,0,.068-.03.083a3.8,3.8,0,0,1-.661.248c-.082,0-.221-.424-.221-.461A3.414,3.414,0,0,1,26.629,25.428Z" transform="translate(-10.654 -9.442)" fill="#fff"/>
    <path id="Path_206" data-name="Path 206" d="M33.189,24.817h.178c.061,0,.425.093.629.144,0,.031.027.019.027.078s-.089.436-.171.436c-.063,0-.438-.066-.657-.1a.17.17,0,0,1-.111-.145A1.934,1.934,0,0,1,33.189,24.817Z" transform="translate(-10.654 -9.442)" fill="#fff"/>
    <path id="Path_207" data-name="Path 207" d="M29.222,24.816c.1,0,.135.379.135.411,0,.245-.731.248-.858.245a1.611,1.611,0,0,1-.105-.409C28.394,24.938,29.122,24.816,29.222,24.816Z" transform="translate(-10.654 -9.442)" fill="#fff"/>
    <path id="Path_208" data-name="Path 208" d="M32.153,24.724c.087,0,.809-.076.809.2a2.368,2.368,0,0,1-.053.361.541.541,0,0,1-.207.028,1.352,1.352,0,0,1-.593-.081.236.236,0,0,1-.036-.154A1.1,1.1,0,0,1,32.153,24.724Z" transform="translate(-10.654 -9.442)" fill="#fff"/>
    <path id="Path_209" data-name="Path 209" d="M30.039,24.723h.275a.62.62,0,0,1,.08.34.258.258,0,0,1-.021.125.763.763,0,0,1-.438.12h-.352a3.5,3.5,0,0,1-.077-.387C29.506,24.734,29.873,24.722,30.039,24.723Z" transform="translate(-10.654 -9.442)" fill="#fff"/>
    <path id="Path_210" data-name="Path 210" d="M36.036,24.6a9.237,9.237,0,0,1,1.84.766,1.959,1.959,0,0,1-.231.482c-.6-.26-1.193-.5-1.785-.719-.008-.018-.034,0-.034-.058S35.943,24.6,36.036,24.6Z" transform="translate(-10.654 -9.442)" fill="#fff"/>
    <path id="Path_211" data-name="Path 211" d="M26.419,24.6c.092,0,.2.482.2.482,0,.06-.055.081-.08.1-.347.125-.968.386-1.031.386s-.514.2-.659.258a2.2,2.2,0,0,1-.2-.457C24.641,25.195,26.37,24.6,26.419,24.6Z" transform="translate(-10.654 -9.442)" fill="#fff"/>
    <path id="Path_212" data-name="Path 212" d="M32.332,23.875c.185,0,1.562.2,1.783.241a.128.128,0,0,1,.057.111c0,.1-.054.4-.2.448l-1.8-.264a2.659,2.659,0,0,1,0-.478C32.172,23.875,32.271,23.875,32.332,23.875Z" transform="translate(-10.654 -9.442)" fill="#fff"/>
    <path id="Path_213" data-name="Path 213" d="M30.015,23.879a1.7,1.7,0,0,1,.319.073c.01.05.035.3.035.358s-.05.1-.079.141c-.623.059-1.265.129-1.914.222a1.931,1.931,0,0,1-.106-.433.172.172,0,0,1,.03-.121A17.282,17.282,0,0,1,30.015,23.879Z" transform="translate(-10.654 -9.442)" fill="#fff"/>
    <path id="Path_214" data-name="Path 214" d="M29.468,22.461l3.8.011c.121-.029.359.162.461.3v.066H28.941A.578.578,0,0,1,29.468,22.461Z" transform="translate(-10.654 -9.442)" fill="#fff"/>
    <path id="Path_215" data-name="Path 215" d="M29.762,22.085l3.095.02c0,.032.179.086.178.162a.382.382,0,0,1-.16.053L29.612,22.3c-.029-.025-.032-.022-.032-.081C29.58,22.1,29.669,22.127,29.762,22.085Z" transform="translate(-10.654 -9.442)" fill="#fff"/>
    <path id="Path_216" data-name="Path 216" d="M30.184,21.639l2.249.022c.053.008.183.082.183.143s-.079.092-.083.147l-2.276-.007c-.122-.034-.233-.025-.233-.152A.155.155,0,0,1,30.184,21.639Z" transform="translate(-10.654 -9.442)" fill="#fff"/>
    <path id="Path_217" data-name="Path 217" d="M30.666,21.167l1.4.011c.122.014.228.073.228.178,0,.052-.024.111-.135.118l-1.714-.006a.483.483,0,0,1-.2-.2C30.347,21.156,30.548,21.167,30.666,21.167Z" transform="translate(-10.654 -9.442)" fill="#fff"/>
    <path id="Path_218" data-name="Path 218" d="M30.248,20.464a9.667,9.667,0,0,0,1.122.138,9.433,9.433,0,0,0,1.022-.138v.1a1.73,1.73,0,0,1-.185.38,1.678,1.678,0,0,1-.356.059H30.466c-.028-.025-.04-.073-.063-.084a1.615,1.615,0,0,1-.155-.373Z" transform="translate(-10.654 -9.442)" fill="#fff"/>
    <path id="Path_219" data-name="Path 219" d="M28.74,19.471c.16,0,.451.267.441.422H29.05a.834.834,0,0,1-.434-.315A.117.117,0,0,1,28.74,19.471Z" transform="translate(-10.654 -9.442)" fill="#fff"/>
    <path id="Path_220" data-name="Path 220" d="M29.381,19.449c.263,0,.46.441.519.578-.027.031-.026.057-.086.057a.836.836,0,0,1-.58-.518C29.234,19.466,29.332,19.449,29.381,19.449Z" transform="translate(-10.654 -9.442)" fill="#fff"/>
    <path id="Path_221" data-name="Path 221" d="M30.1,19.425c.249,0,.3.468.3.531a.27.27,0,0,1-.135.2c-.113-.027-.309-.38-.309-.529C29.95,19.5,29.983,19.425,30.1,19.425Z" transform="translate(-10.654 -9.442)" fill="#fff"/>
    <path id="Path_222" data-name="Path 222" d="M33.32,19.4a.107.107,0,0,1,.111.117c0,.144-.308.437-.428.494h-.109c-.026-.027-.03-.011-.03-.07C32.864,19.865,33.123,19.4,33.32,19.4Z" transform="translate(-10.654 -9.442)" fill="#fff"/>
    <path id="Path_223" data-name="Path 223" d="M32.716,19.4a.14.14,0,0,1,.148.14c0,.081-.285.542-.458.542a.1.1,0,0,1-.111-.119C32.295,19.857,32.5,19.4,32.716,19.4Z" transform="translate(-10.654 -9.442)" fill="#fff"/>
    <path id="Path_224" data-name="Path 224" d="M31.962,19.4c.148,0,.21.185.21.247,0,.093-.135.552-.3.552-.18,0-.148-.32-.148-.33C31.728,19.763,31.731,19.4,31.962,19.4Z" transform="translate(-10.654 -9.442)" fill="#fff"/>
    <path id="Path_225" data-name="Path 225" d="M31.344,19.4c.2,0,.211.276.211.352s-.04.447-.2.447c-.194,0-.221-.476-.221-.494C31.135,19.569,31.166,19.4,31.344,19.4Z" transform="translate(-10.654 -9.442)" fill="#fff"/>
    <path id="Path_226" data-name="Path 226" d="M30.7,19.4c.206,0,.283.264.283.386,0,.065-.073.39-.173.39-.2,0-.3-.525-.3-.542C30.518,19.531,30.555,19.4,30.7,19.4Z" transform="translate(-10.654 -9.442)" fill="#fff"/>
    <path id="Path_227" data-name="Path 227" d="M26.585,17.776c.191-.02.2.286.2.354,0,.5-.641.636-.888.636a2.745,2.745,0,0,1-1.708-.99Z" transform="translate(-10.654 -9.442)" fill="#fff"/>
    <path id="Path_228" data-name="Path 228" d="M35.626,17.738A3.149,3.149,0,0,1,34.2,19.284c-.056.025-.236-.118-.3-.118s-.259.118-.32.118-.236-.094-.3-.094-.185.094-.247.094-.234-.094-.32-.094c-.062,0-.322.094-.348.094-.06,0-.258-.094-.32-.094s-.3.116-.357.116-.272-.116-.335-.116-.234.094-.3.094-.235-.094-.3-.094-.321.14-.383.14-.272-.094-.334-.094-.21.094-.271.094-.309-.116-.37-.116-.272.116-.334.116-.309-.094-.37-.094c-.2,0-.321.189-.371.189s-.18-.1-.254-.162a3.781,3.781,0,0,1-.8-.928c-.093-.148-.287-.6-.287-.6Z" transform="translate(-10.654 -9.442)" fill="#fff"/>
    <path id="Path_229" data-name="Path 229" d="M36.534,17.279v.211c-.041-.074-.054-.042-.077-.042H27.213a2.2,2.2,0,0,1-.422-.03v-.139Z" transform="translate(-10.654 -9.442)" fill="#fff"/>
    <path id="Path_230" data-name="Path 230" d="M23.184,16.952c.17,0,.293.33.559.33H26.46a.217.217,0,0,1,.079.163H23.4c-.1,0-.435-.207-.435-.351C22.962,17,23.169,16.952,23.184,16.952Z" transform="translate(-10.654 -9.442)" fill="#fff"/>
    <path id="Path_231" data-name="Path 231" d="M32.571,16.342h.079a7.077,7.077,0,0,1,.83.62.178.178,0,0,1-.16.086c-.294,0-.778-.433-.778-.624C32.542,16.363,32.567,16.376,32.571,16.342Z" transform="translate(-10.654 -9.442)" fill="#fff"/>
    <path id="Path_232" data-name="Path 232" d="M31.506,16.294c.126,0,.222.382.222.411a.255.255,0,0,1-.272.27c-.2,0-.222-.078-.222-.187C31.234,16.711,31.375,16.294,31.506,16.294Z" transform="translate(-10.654 -9.442)" fill="#fff"/>
    <path id="Path_233" data-name="Path 233" d="M31.931,16.27h.1c.17,0,.534.523.534.553,0,.133-.139.177-.221.177-.264,0-.47-.457-.47-.565A.348.348,0,0,1,31.931,16.27Z" transform="translate(-10.654 -9.442)" fill="#fff"/>
    <path id="Path_234" data-name="Path 234" d="M30.509,16.27a.125.125,0,0,1,.058.106c0,.127-.439.624-.584.623h-.3c-.027-.026-.032-.011-.032-.07A3.165,3.165,0,0,1,30.509,16.27Z" transform="translate(-10.654 -9.442)" fill="#fff"/>
    <path id="Path_235" data-name="Path 235" d="M31.061,16.223c.092,0,.1.1.1.118,0,.174-.244.659-.457.659-.1,0-.185-.05-.185-.152C30.518,16.724,30.832,16.223,31.061,16.223Z" transform="translate(-10.654 -9.442)" fill="#fff"/>
    <path id="Path_236" data-name="Path 236" d="M30.627,15.753l1.906-.015c0,.032.083.073.083.132s-.069.06-.163.08l-1.953.013c-.029-.025-.053-.025-.08-.054v-.08A1.257,1.257,0,0,1,30.627,15.753Z" transform="translate(-10.654 -9.442)" fill="#fff"/>
    <path id="Path_237" data-name="Path 237" d="M37.851,15.611c.706,0,1.63.415,1.63,1.247,0,1-1.415,1.784-2.283,1.936-.347.063-.717.2-1.062.245a3.61,3.61,0,0,0-1.878.738c-.033-.026-.036-.023-.036-.082,0-.326,1.047-.77,1.094-.781a20.322,20.322,0,0,0,2.542-.79c.71-.325,1.08-.783,1.08-1.312,0-.566-.683-.8-1.062-.8a1.756,1.756,0,0,0-.963.319c.023.041.1.063.142.09a.5.5,0,0,1,.153.24.434.434,0,0,1-.48.389c-.262,0-.556-.145-.556-.437a.761.761,0,0,1,.142-.289A1.966,1.966,0,0,1,37.851,15.611Z" transform="translate(-10.654 -9.442)" fill="#fff"/>
    <path id="Path_238" data-name="Path 238" d="M31.518,14.669a.379.379,0,0,1,.407.343.4.4,0,0,1-.79.022A.363.363,0,0,1,31.518,14.669Z" transform="translate(-10.654 -9.442)" fill="#fff"/>
    <path id="Path_239" data-name="Path 239" d="M28.565,13.991c-.182.29-.521.233-.768.422-.2.155-.032.562-.379.562-.06,0-.518-.094-.58-.094-.129,0-.174-.031-.319.153.182.235.443.365.443.624,0,.059-.025.094-.025.153,0,.162-.5.319-.7.365l-.743-.024c-.137-.022-.408.195-.515.354a.7.7,0,0,1-.261-.412c0-.268.388-.178.459-.178h.388a.611.611,0,0,0,.486-.434c0-.375-.667-.392-.667-.8,0-.314.407-.388.6-.388.062,0,.889.189.95.189.235,0,.444-.225.649-.346a1.272,1.272,0,0,1,.549-.125A2.724,2.724,0,0,0,28.565,13.991Z" transform="translate(-10.654 -9.442)" fill="#fff"/>
    <path id="Path_240" data-name="Path 240" d="M31.347,46.7a.622.622,0,0,1,.668.623c.049,3.238.061,3.252.056,3.276.007.114.056.269.056.327a4.49,4.49,0,0,0,.116.444,1.324,1.324,0,0,0,1.229,1c1.467,0,4.342-1.995,5.441-3.044-.12-.11-.38-.388-.463-.448-.03-.023-.279-.224-.279-.343A14.673,14.673,0,0,1,39.9,47.462c.227-.15.451-.3.643-.446a2.33,2.33,0,0,1,.728-.425c.163,0,.018.749.044.778-.048.264-.146.756-.146.816s-.149.517-.149.577a4.563,4.563,0,0,1-.452,1.3.564.564,0,0,1-.125.17c-.3-.021-.855-.533-.947-.533a17.906,17.906,0,0,0-1.863,1.63c-.306.281-.663.528-.938.768-.6.53-4.19,3.291-5.437,3.291s-4.835-2.761-5.437-3.291c-.275-.24-.632-.487-.938-.768a18.024,18.024,0,0,0-1.862-1.63c-.092,0-.649.512-.948.533a.564.564,0,0,1-.125-.17,4.562,4.562,0,0,1-.451-1.3c0-.06-.149-.519-.149-.577s-.1-.552-.148-.816c.028-.029-.117-.778.047-.778a2.337,2.337,0,0,1,.727.425c.191.148.416.3.641.446a14.617,14.617,0,0,1,1.726,1.078c0,.119-.248.32-.279.343-.083.06-.343.338-.463.448,1.1,1.049,3.971,3.044,5.44,3.044a1.326,1.326,0,0,0,1.23-1c.036-.14.117-.385.117-.444s.048-.213.055-.327c-.006-.024.008-.038.057-3.276a.62.62,0,0,1,.667-.623Z" transform="translate(-10.654 -9.442)" fill="#fff"/>
    <path id="Path_241" data-name="Path 241" d="M22.133,36.464l0,7.457s.782.612,3.711-.161c0,0,2.94-1.1,5.2.245V36.336s-1.451-1.286-5.032-.35a9.148,9.148,0,0,1-3.309.491C21.934,36.294,22.133,36.464,22.133,36.464Z" transform="translate(-10.654 -9.442)" fill="#fff"/>
    <path id="Path_242" data-name="Path 242" d="M30.979,46.062a.345.345,0,0,1-.241,0c0-.029-.027-.029-.027-.089a4.131,4.131,0,0,1,.262-.892A7.927,7.927,0,0,1,30.979,46.062Z" transform="translate(-10.654 -9.442)" fill="#fff"/>
    <path id="Path_243" data-name="Path 243" d="M31.192,45.059c.017.066.078.147.1.232a2.4,2.4,0,0,1,.037.509v.288l-.2.01a.542.542,0,0,0-.022-.16v-.616c0-.058.038-.03,0-.035C31.131,45.229,31.156,45.137,31.192,45.059Z" transform="translate(-10.654 -9.442)" fill="#fff"/>
    <path id="Path_244" data-name="Path 244" d="M30.782,45.035v.173a7.464,7.464,0,0,1-.222.74h-.112a.172.172,0,0,1-.056-.127A3.554,3.554,0,0,1,30.782,45.035Z" transform="translate(-10.654 -9.442)" fill="#fff"/>
    <path id="Path_245" data-name="Path 245" d="M30.634,44.943c-.1.249-.219.506-.346.77-.031,0-.019.025-.081.025a.118.118,0,0,1-.111-.116A3.052,3.052,0,0,1,30.634,44.943Z" transform="translate(-10.654 -9.442)" fill="#fff"/>
    <path id="Path_246" data-name="Path 246" d="M30.462,44.754l-.027.1c-.148.191-.292.382-.446.6-.123-.059-.115-.123-.115-.128C29.874,45.214,30.341,44.8,30.462,44.754Z" transform="translate(-10.654 -9.442)" fill="#fff"/>
    <path id="Path_247" data-name="Path 247" d="M40.3,36.464l0,7.457s-.78.612-3.711-.161c0,0-2.9-1.1-5.2.245V36.322s1.446-1.272,5.026-.336a9.148,9.148,0,0,0,3.309.491C40.5,36.294,40.3,36.464,40.3,36.464Z" transform="translate(-10.654 -9.442)" fill="#fff"/>
    <path id="Path_248" data-name="Path 248" d="M31.456,46.062a.345.345,0,0,0,.241,0c0-.029.027-.029.027-.089a4.192,4.192,0,0,0-.261-.892A7.871,7.871,0,0,0,31.456,46.062Z" transform="translate(-10.654 -9.442)" fill="#fff"/>
    <path id="Path_249" data-name="Path 249" d="M31.654,45.035v.173a7.543,7.543,0,0,0,.223.74h.11a.169.169,0,0,0,.057-.127A3.6,3.6,0,0,0,31.654,45.035Z" transform="translate(-10.654 -9.442)" fill="#fff"/>
    <path id="Path_250" data-name="Path 250" d="M31.8,44.943c.094.249.216.506.344.77.031,0,.019.025.08.025a.119.119,0,0,0,.112-.116A3.075,3.075,0,0,0,31.8,44.943Z" transform="translate(-10.654 -9.442)" fill="#fff"/>
    <path id="Path_251" data-name="Path 251" d="M40.644,36.626v7.7l-.1-.123-.12-.176v-7.6Zm.3.137v7.943l-.211-.284V36.636Zm.265.179v8.086l-.062-.064-.118-.149V36.894Z" transform="translate(-10.654 -9.442)" fill="#fff"/>
    <path id="Path_252" data-name="Path 252" d="M31.973,44.754l.029.1c.147.191.289.382.446.6.122-.059.112-.123.112-.128C32.56,45.214,32.1,44.8,31.973,44.754Z" transform="translate(-10.654 -9.442)" fill="#fff"/>
    <path id="Path_253" data-name="Path 253" d="M41.448,37.174h.3v8.464l-8.987,0,0-.022a1.84,1.84,0,0,1-1.5.879h-.073a1.842,1.842,0,0,1-1.5-.879l0,.022H20.689V37.174h.3v8.182h8.728l-.023.167a1.727,1.727,0,0,0,3.051,0l-.023-.167h8.728Z" transform="translate(-10.654 -9.442)" fill="#fff"/>
    <g id="Group_9" data-name="Group 9" transform="translate(14.137 7.272)">
      <path id="Path_254" data-name="Path 254" d="M24.791,16.887a.182.182,0,0,1,.364,0,.182.182,0,0,1-.364,0Z" transform="translate(-24.791 -16.714)" fill="#fff"/>
    </g>
    <path id="Path_255" data-name="Path 255" d="M33.924,19.471c-.16,0-.451.267-.442.422h.13a.831.831,0,0,0,.436-.315A.117.117,0,0,0,33.924,19.471Z" transform="translate(-10.654 -9.442)" fill="#fff"/>
    <path id="Path_256" data-name="Path 256" d="M31.207,36.029l-.716-.462c0-.159,0-.442,0-.621a.62.62,0,0,1,.667-.624h.187a.622.622,0,0,1,.668.624c0,.179.005.462.008.621Z" transform="translate(-10.654 -9.442)" fill="#fff"/>
    <path id="Path_257" data-name="Path 257" d="M26.07,31.623l1.108-.015v1.6l-1.1-.2Z" transform="translate(-10.654 -9.442)" fill="#fff"/>
    <path id="Path_258" data-name="Path 258" d="M24.2,31.788h1.651v1.076L24.2,32.617Z" transform="translate(-10.654 -9.442)" fill="#fff"/>
    <path id="Path_259" data-name="Path 259" d="M24.077,31.812l-.335.239v.834l.336-.206Z" transform="translate(-10.654 -9.442)" fill="#fff"/>
    <path id="Path_260" data-name="Path 260" d="M26.556,31.759a.222.222,0,0,1,.081-.013.264.264,0,1,1,0,.527c-.06,0-.159-.1-.2-.126.109-.035.239-.014.239-.173A.278.278,0,0,0,26.556,31.759Z" transform="translate(-10.654 -9.442)" fill="#1a1818"/>
    <path id="Path_261" data-name="Path 261" d="M26.556,32.42a.224.224,0,0,1,.081-.015.263.263,0,1,1,0,.526c-.06,0-.159-.094-.2-.125.109-.035.239-.013.239-.172A.275.275,0,0,0,26.556,32.42Z" transform="translate(-10.654 -9.442)" fill="#1a1818"/>
    <path id="Path_262" data-name="Path 262" d="M24.161,32.745,25.839,33v.233l-1.991-.3Z" transform="translate(-10.654 -9.442)" fill="#fff"/>
    <path id="Path_263" data-name="Path 263" d="M26.085,33.155l1.093.2,0,.214-1.091-.218Z" transform="translate(-10.654 -9.442)" fill="#fff"/>
    <path id="Path_264" data-name="Path 264" d="M27.381,33.317l3.827.666v.189l-3.827-.621Z" transform="translate(-10.654 -9.442)" fill="#fff"/>
    <path id="Path_265" data-name="Path 265" d="M36.328,31.608H35.236v1.6l1.1-.2Z" transform="translate(-10.654 -9.442)" fill="#fff"/>
    <path id="Path_266" data-name="Path 266" d="M38.218,31.788H36.566v1.076l1.651-.247Z" transform="translate(-10.654 -9.442)" fill="#fff"/>
    <path id="Path_267" data-name="Path 267" d="M35.622,31.759a.223.223,0,0,1,.083-.013.264.264,0,1,1,0,.527c-.061,0-.159-.1-.2-.126.109-.035.238-.014.238-.173A.275.275,0,0,0,35.622,31.759Z" transform="translate(-10.654 -9.442)" fill="#1a1818"/>
    <path id="Path_268" data-name="Path 268" d="M35.622,32.42a.223.223,0,0,1,.083-.015.263.263,0,1,1,0,.526c-.061,0-.159-.094-.2-.125.109-.035.238-.013.238-.172A.272.272,0,0,0,35.622,32.42Z" transform="translate(-10.654 -9.442)" fill="#1a1818"/>
    <path id="Path_269" data-name="Path 269" d="M38.218,32.735,36.575,33v.233l1.5-.254Z" transform="translate(-10.654 -9.442)" fill="#fff"/>
    <path id="Path_270" data-name="Path 270" d="M36.328,33.155l-1.092.2v.177l1.094-.181Z" transform="translate(-10.654 -9.442)" fill="#fff"/>
    <path id="Path_271" data-name="Path 271" d="M31.207,33.768l-3.813-.657V31.8H35.02v1.309Z" transform="translate(-10.654 -9.442)" fill="#fff"/>
    <path id="Path_272" data-name="Path 272" d="M35.033,33.317l-3.826.666v.189l3.826-.621Z" transform="translate(-10.654 -9.442)" fill="#fff"/>
    <g id="Group_12" data-name="Group 12" transform="translate(12.308 28.806)">
      <g id="Group_10" data-name="Group 10" transform="translate(9.025 0.002)">
        <path id="Path_273" data-name="Path 273" d="M32.817,38.25c.425.011.756.222.756.566a.508.508,0,0,1-.273.44c.131.186.4.352.4.587,0,.513-.57.6-.916.6-.063,0-.238,0-.711-.023-.03-.025-.054-.025-.083-.058a1.562,1.562,0,0,0,.161-.261V38.478c-.034-.069-.11-.14-.133-.2A6.8,6.8,0,0,1,32.817,38.25Z" transform="translate(-31.987 -38.25)" fill="#1a1818"/>
        <path id="Path_274" data-name="Path 274" d="M34.973,38.391a.921.921,0,0,1,.879,1.005,1.053,1.053,0,0,1-.954,1.122,1.008,1.008,0,0,1-.954-1.005A1.066,1.066,0,0,1,34.973,38.391Z" transform="translate(-31.987 -38.25)" fill="#1a1818"/>
        <path id="Path_275" data-name="Path 275" d="M36.161,38.486c.808,0,.576.553,1.139,1.18a1.035,1.035,0,0,0,.112-.637c0-.169,0-.179-.172-.345.036-.009.036-.033.1-.033a2.245,2.245,0,0,1,.495.1c-.331.189-.238.566-.272.852-.059.518-.052.829-.108,1.144-.465-.5-.621-1.037-1-1.512-.019,0-.035.044-.052.066-.029.279-.13.834-.13.892a.875.875,0,0,0,.2.407,1.027,1.027,0,0,1-.591-.023.158.158,0,0,1,.007-.056c.258-.107.214-.528.214-.717,0-.06.123-.852.123-.911a.588.588,0,0,0-.2-.329C36.084,38.5,36.118,38.486,36.161,38.486Z" transform="translate(-31.987 -38.25)" fill="#1a1818"/>
        <path id="Path_276" data-name="Path 276" d="M38.362,38.747c.2.023.577.023.657.048,0,0,.029,0,.029.058s-.075.1-.075.166a4.937,4.937,0,0,0,.238.7,2.206,2.206,0,0,0,.478.992V40.8a3.576,3.576,0,0,1-.76,0s-.031,0-.031-.055.1-.143.1-.2c0-.142-.109-.378-.288-.378h-.416a.743.743,0,0,0-.163.391c0,.056.048.111.1.192a1.71,1.71,0,0,1-.566-.023c.049-.082.185-.131.237-.245a11.314,11.314,0,0,0,.53-1.459c0-.062-.1-.142-.1-.2S38.333,38.773,38.362,38.747Z" transform="translate(-31.987 -38.25)" fill="#1a1818"/>
        <path id="Path_277" data-name="Path 277" d="M35.02,38.557c.269,0,.317.25.361.508-.025.284-.028.3,0,.328-.009.058-.074.96-.508.96-.384,0-.434-.592-.434-.733C34.439,39.416,34.529,38.557,35.02,38.557Z" transform="translate(-31.987 -38.25)" fill="#fff"/>
        <path id="Path_278" data-name="Path 278" d="M38.536,39.406a1.286,1.286,0,0,1,.239.461c0,.06-.025.025-.028.081h-.312a.143.143,0,0,1-.057-.116A1.5,1.5,0,0,1,38.536,39.406Z" transform="translate(-31.987 -38.25)" fill="#fff"/>
        <path id="Path_279" data-name="Path 279" d="M32.781,39.383a.393.393,0,0,1,.42.415.448.448,0,0,1-.408.46.412.412,0,0,1-.211-.077v-.647C32.581,39.412,32.665,39.383,32.781,39.383Z" transform="translate(-31.987 -38.25)" fill="#fff"/>
        <path id="Path_280" data-name="Path 280" d="M32.817,38.462c.232,0,.334.095.334.331s-.114.4-.37.4a.25.25,0,0,1-.174-.079,4.684,4.684,0,0,1,.027-.623A.389.389,0,0,1,32.817,38.462Z" transform="translate(-31.987 -38.25)" fill="#fff"/>
      </g>
      <g id="Group_11" data-name="Group 11">
        <path id="Path_281" data-name="Path 281" d="M29.221,38.248h.5a1.751,1.751,0,0,1,0,.541c-.1,0-.16-.274-.309-.324a.569.569,0,0,0-.169-.028c-.131,0-.334.05-.334.223,0,.472,1.04.453,1.04,1.205a.576.576,0,0,1-.644.578c-.062,0-.436-.07-.637-.1a.69.69,0,0,1-.081-.427.536.536,0,0,1,.06-.2.877.877,0,0,0,.695.543.244.244,0,0,0,.261-.248c0-.434-1.041-.526-1.041-1.192C28.561,38.406,28.886,38.248,29.221,38.248Z" transform="translate(-22.962 -38.248)" fill="#1a1818"/>
        <path id="Path_282" data-name="Path 282" d="M27.866,38.437c.063,0,.094.047.144.076v.513a2.48,2.48,0,0,0-.238-.279.614.614,0,0,0-.315-.1c-.058,0-.358.042-.382.179.024.282.02.314,0,.331.032.045-.016.293.124.293.167,0,.213-.164.336-.259a1.4,1.4,0,0,1,.059.155c-.027.03-.025.046-.007.434-.112-.088-.194-.187-.315-.187s-.133.1-.148.154c.025.3.021.337,0,.357a1.761,1.761,0,0,0,.055.3c.043.088.142.062.193.062a.673.673,0,0,0,.7-.472c.035.028.038.06.038.119a3.028,3.028,0,0,1-.086.421,8.908,8.908,0,0,1-1.167.191h-.328c0-.057.081-.131.113-.18A.568.568,0,0,0,26.7,40.3l-.074-1.322a.5.5,0,0,0-.2-.314c0-.029.028-.062.056-.081C26.936,38.531,27.805,38.437,27.866,38.437Z" transform="translate(-22.962 -38.248)" fill="#1a1818"/>
        <path id="Path_283" data-name="Path 283" d="M25.527,38.72c.429,0,.73.227.73.625,0,.446-.236.674-.927.678-.083.03-.064.188-.064.208a1.615,1.615,0,0,0,.1.48c.025.056.113.088.192.143-.074.144-.325.088-.457.109-.322,0-.38,0-.407-.03,0-.052.064-.076.09-.128a.931.931,0,0,0,.032-.35l-.049-1.3a.6.6,0,0,0-.149-.263A1.884,1.884,0,0,1,25.527,38.72Z" transform="translate(-22.962 -38.248)" fill="#1a1818"/>
        <path id="Path_284" data-name="Path 284" d="M23.508,38.79a6.35,6.35,0,0,0,.639.03c-.06.092,0,.233,0,.312a1.068,1.068,0,0,1-.058.271c-.086-.073-.115-.208-.2-.285A.651.651,0,0,0,23.569,39c-.129,0-.286.038-.286.214,0,.259.836.656.783.731-.029.041.085.075.123.122a.44.44,0,0,1,.091.192c.017.022.07.016.07.076s-.05-.036-.05.022.05.037.05.1-.05.034-.05.1.012.011.048.017a1.224,1.224,0,0,1-.251.346.864.864,0,0,1-.367.12,3.731,3.731,0,0,1-.461-.136,1.165,1.165,0,0,0-.253-.009,2.243,2.243,0,0,1-.029-.457.374.374,0,0,1,.062-.177c.19.268.319.567.644.567a.308.308,0,0,0,.285-.26c0-.443-1.016-.46-1.016-1.168A.564.564,0,0,1,23.508,38.79Z" transform="translate(-22.962 -38.248)" fill="#1a1818"/>
        <path id="Path_285" data-name="Path 285" d="M25.439,38.908c.3,0,.372.3.372.46,0,.252-.111.485-.384.485-.057,0-.189.011-.186-.154a3.459,3.459,0,0,0-.025-.532C25.216,38.965,25.241,38.908,25.439,38.908Z" transform="translate(-22.962 -38.248)" fill="#fff"/>
      </g>
    </g>
    <path id="Path_286" data-name="Path 286" d="M31.151,59.458c-3.966-1.665-17.483-8.52-17.483-24.27V33.537c.929-.285,3.263-.972,4.184-1.222,0,0,1.413-.641,3.928.373A32.637,32.637,0,0,0,30.019,34.7c.126.033.077.744.1.851l-.161-.038c-.061,0-.108-.042-.189-.052a10.438,10.438,0,0,0-1.44-.1,10.386,10.386,0,0,0-2.043.27c-.181.026-.728.172-.922.23a7.1,7.1,0,0,1-1.993.363c-.063,0-.65-.077-.848-.107a1.4,1.4,0,0,0-.493.046c-.135,0-.877.64-1.112.752-.111.053-.478-.077-.479.116l.015,8.784H29.5c.1,0,.617.8.617.8v4c0,.059-.122.414-.122.473a2.539,2.539,0,0,1-.384.658.887.887,0,0,1-.752.3c-1.257,0-3.97-1.873-4.84-2.791.012-.015.642-.549.642-.728,0-.245-.633-.5-.71-.541-.1-.055-.217-.142-.347-.221-.29-.179-.629-.35-.938-.557-.21-.14-1.1-.868-1.453-.884-.238-.009-.362.336-.362.435l.032.94c0,.058.114.64.179.943a9.718,9.718,0,0,0,.345,1.176c.013.041.343.768.551.768,0,0,.943-.563,1-.563.124,0,.7.676.876.831.364.334.755.772,1.193,1.138.624.526,1.316.994,1.967,1.475.235.173.468.362.7.527.333.234.7.472,1.087.7.159.1.382.157.542.251a4.3,4.3,0,0,0,1.746.746h.367a4.3,4.3,0,0,0,1.747-.746c.159-.094.382-.153.543-.251.383-.232.753-.47,1.086-.7.23-.165.465-.354.7-.527.65-.481,1.341-.949,1.966-1.475.438-.366.829-.8,1.193-1.138.172-.155.752-.831.875-.831.057,0,1,.563,1,.563.206,0,.537-.727.55-.768a10.093,10.093,0,0,0,.345-1.176c.064-.3.179-.885.179-.943V46.661c0-.1-.147-.391-.347-.391-.351,0-1.226.789-1.436.929-.309.207-.649.378-.939.557-.129.079-.247.166-.347.221-.077.042-.709.3-.709.541,0,.179.629.713.641.728-.869.918-3.582,2.791-4.838,2.791a.9.9,0,0,1-.755-.3,2.519,2.519,0,0,1-.382-.658c0-.059-.122-.414-.122-.473v-4s.526-.8.632-.8h9.047V37.031c0-.193-.425-.14-.537-.192-.234-.112-.9-.733-1.038-.733-.061,0-.429.037-.672.077a1.8,1.8,0,0,1-.8.091,8.179,8.179,0,0,1-1.98-.4,4.088,4.088,0,0,0-.861-.257,9.893,9.893,0,0,0-1.969-.282,10.53,10.53,0,0,0-1.442.038c-.081.009-.151.036-.212.036l-.138.035c.019-.108-.064-.709.063-.742a32.622,32.622,0,0,0,8.237-2.015c2.517-1.014,3.929-.373,3.929-.373.971.265,3.256.991,3.989,1.232v1.612C48.635,50.935,35.117,57.793,31.151,59.458Z" transform="translate(-10.654 -9.442)" fill="#008cd4"/>
    <path id="Path_287" data-name="Path 287" d="M21.408,44.782l-.181.24V37.03l.181-.118Zm.6-8.261v7.46l-.217.289V36.662Zm-.306.2v7.669l-.211.28V36.856Z" transform="translate(-10.654 -9.442)" fill="#fff"/>
    <path id="Path_288" data-name="Path 288" d="M21.7,44.893c.036.013.08.03.131.047a4.4,4.4,0,0,0,.518.122,8.489,8.489,0,0,0,2.591-.006l.631-.125,1.239-.285a5.34,5.34,0,0,1,1.1-.177,3.406,3.406,0,0,1,2.031.433l-.037.038a3.359,3.359,0,0,0-1.991-.42,5.6,5.6,0,0,0-.9.128,6.944,6.944,0,0,1,.993-.087,3.385,3.385,0,0,1,1.863.42l-.037.039a3.323,3.323,0,0,0-1.826-.407,6.72,6.72,0,0,0-1.145.115l-1.28.253-.647.149a8.133,8.133,0,0,1-2.591-.007,4.089,4.089,0,0,1-.526-.134c-.057-.017-.107-.034-.148-.049Zm.472-.694q.033.015.075.03a4.922,4.922,0,0,0,2.691.012l1.818-.449a7.6,7.6,0,0,1,1.436-.178,3.725,3.725,0,0,1,2.4.617l-.036.038a3.678,3.678,0,0,0-2.364-.6,7.515,7.515,0,0,0-1.424.177l-1.818.449a4.954,4.954,0,0,1-2.721-.014c-.034-.012-.063-.023-.088-.034Zm-.25.366a4.227,4.227,0,0,0,.736.187,5.686,5.686,0,0,0,2.28-.1l1.818-.449a6.309,6.309,0,0,1,1.3-.181,3.294,3.294,0,0,1,2.186.576l-.036.037a3.261,3.261,0,0,0-2.149-.563,6.3,6.3,0,0,0-1.287.181l-1.818.449a5.738,5.738,0,0,1-2.3.1,4.23,4.23,0,0,1-.757-.193Z" transform="translate(-10.654 -9.442)" fill="#fff"/>
    <path id="Path_289" data-name="Path 289" d="M40.557,44.989a7,7,0,0,1-3.117.141l-.65-.149-1.275-.253A4.862,4.862,0,0,0,32.578,45l-.037-.038a3.432,3.432,0,0,1,1.829-.4,6.935,6.935,0,0,1,.989.087,4.12,4.12,0,0,0-2.858.27l-.037-.038a3.432,3.432,0,0,1,1.995-.411,5.323,5.323,0,0,1,1.1.177l1.236.284.635.126a8.481,8.481,0,0,0,2.59.006,4.587,4.587,0,0,0,.519-.122,2.122,2.122,0,0,0,.248-.1l.039.049A2.607,2.607,0,0,1,40.557,44.989Zm-.26-.774a4.456,4.456,0,0,1-2.875.076L35.6,43.842s-2.456-.6-3.755.4l-.036-.037a3.759,3.759,0,0,1,2.368-.592,7.6,7.6,0,0,1,1.436.178l1.817.449a4.922,4.922,0,0,0,2.691-.012c.062-.023.108-.042.139-.056Zm.281.356a5.26,5.26,0,0,1-3.156.128L35.6,44.25s-2.179-.6-3.4.356l-.036-.038a3.337,3.337,0,0,1,2.154-.549,6.324,6.324,0,0,1,1.3.181l1.817.449a5.7,5.7,0,0,0,2.282.1,4,4,0,0,0,.829-.223Z" transform="translate(-10.654 -9.442)" fill="#fff"/>
  </g>
</svg>
