<?xml version="1.0" encoding="UTF-8"?>
<svg width="153.16" height="158.75" version="1.1" viewBox="0 0 153.16 158.75" xmlns="http://www.w3.org/2000/svg">
 <defs>
  <clipPath id="clipPath862">
   <path d="m438.08 670.14c-0.811 0.5848-1.9185 1.2685-2.7294 1.8536l-0.9604 0.8895-1.2671 1.3034-0.0422 0.8441-0.362 0.4947-1.673 2.368-0.9624 0.3467-0.0978 0.9176 0.1429 0.8923-0.1168 0.4391-0.4927 0.3022 0.2744 0.64 0.4374 0.4023 0.2296 0.7948 0.4244 0.8833 0.0668 1.7532-0.2984 1.4375-0.6662 1.2421c1.4669 0.0335 2.1237 1.9018 2.467 3.7712l0.669 0.3765 3.9827 0.8869 0.873 1.2373 1.2924 1.8647 1.4901 0.7826 0.5607 0.7739 0.2988 1.2325 1.4199-0.3402 0.4997 0.6435c3.8894-1.4168 5.099 1.5809 7.166 1.4808l0.7271-0.0621 0.7381-0.3277 1.5358-0.8869 2.5277-1.7238c-0.483-3.579-0.2251-0.9825 3.7383-3.1286l0.9394 0.1537 0.7163 0.3036c0.1225-0.2089 0.6341-0.3033 0.9227-0.4618 0.6072-0.3336 1.1917-0.3725 1.8303-0.203l0.0471 1.8681 1.7714 0.8164c1.0105-2.4566 2.7088-3.4722 5.5641-3.2936 0.1888-1.0593 0.1307-2.3159 0.1715-3.4243l0.4059-0.6979 0.0142-1.1364 0.0176-1.4159c1.7804-2.8273 4.3055-6.3986 4.9569-8.1941 0.7112-1.8553 3.1022-0.9442 4.6534-1.4162l0.0966-2.6867c-0.4127-1.1403-1.3521-2.264-2.4233-2.8771-2.0755-0.4896-3.0175-2.7309-3.6417-5.463-0.5678-1.3234-2.0251-1.758-3.0373-2.637-0.2211-2.8452-2.122-4.2081-3.1337-6.164-0.7818-0.9606-0.5757-3.6008-1.0117-4.9569-0.7962-0.9777-2.1773-1.5605-3.9453-2.9336-0.517-0.843-1.1415-1.686-1.9218-2.529l-1.9066-0.9769-1.7354-1.0462c-0.6406-0.665-1.2815-0.9349-1.9222-0.8093l-0.2355 0.2222-0.2254 0.2129-0.5082 3.6113c-0.3215 1.1174-1.0877 2.63-1.4587 3.9453-1.3278 1.1778-2.2646 2.4335-2.9336 3.7429l-0.1976 1.2469 0.1976 0.4728c1.3697 1.533 2.4553 3.1607 3.0348 4.957l-0.9026 2.4117-0.1089 0.6231 0.7957 1.9097 0.2158 1.8286-0.6189 0.4875-0.9479 0.4323-1.3189-0.1355-1.0077 0.0321-0.7319 1.3067-0.4326 0.2084-0.6956 0.3251-1.429-0.0218-0.9533-0.2886-0.6159-0.5159c-0.8093-0.0564-1.8162-0.0142-2.4772-0.7129l-1.2317 0.1868c-0.6531 0.1304-1.2634 0.1341-2.302 0.072l-0.8382-0.2957z" clip-rule="evenodd"/>
  </clipPath>
 </defs>
 <g transform="translate(-145.02 -51.046)">
  <g transform="matrix(.35278 0 0 -.35278 -160.6 319.13)">
   <path d="m1083.4 759.92c119.87 0 217.08-100.51 217.08-224.45 0-123.94-86.279-229.42-218.07-225.44-131.79 3.9749-216.09 101.5-216.09 225.44 0 123.94 97.209 224.45 217.08 224.45zm0-45.263c95.696 0 173.3-80.241 173.3-179.19s-79.593-175.21-175.29-175.21c-95.697 0-171.32 76.267-171.32 175.21s77.607 179.19 173.3 179.19" fill="#008f54" fill-rule="evenodd"/>
   <path d="m1074.3 693.68 1.7986 7.796 7.796-7.1962 3.2981 6.8956 3.2984-8.0952 7.795 6.5964 0.9-8.3951 9.2951 5.3969-1.7993-7.7957 10.494 1.4988-3.8979-8.3948 7.1953-2.0989-6.5955-5.6972 5.6961-4.1974-8.0952-2.9988 0.5998-8.695-8.0955 3.2981-2.6983-7.795-7.4958 4.7972-2.9989-5.6975-6.8957 5.3973-4.4979-6.5958-5.3969 9.2941-2.0986 1.1996-5.9967-4.4976-1.1995 9.595-12.293-1.7993 6.8961 8.9948-7.4958 5.0974 9.5943 5.0974-5.0967 7.7953 9.5946-2.3981 1.1992 8.9946z" fill="none" stroke="#9c2136" stroke-miterlimit="10" stroke-width="2.377"/>
   <path d="m1082.5 677.53 17.938 0.85107 0.3095 0.10602 0.1774 0.15495 0.095 0.12336 0.1166 0.18689 0.07 0.21477 0.048 0.22054v0.21102l-0.043 0.36408-0.1254 0.3617-1.1224 1.0589-0.4881 0.33879-1.4902 0.86942-6.3 3.405-4.2109 2.0438-1.7396 0.72204-1.1099 0.29394-0.9723 0.24942-1.2594 0.17705-0.7902-0.0272-1.5049-0.16481-1.0369-0.21578-0.7227-0.25316-0.8494-0.40346-1.2002-0.55359-0.7913-0.52165-0.8993-0.55359-1.7338-1.5453-0.9041-1.08-0.6602-0.97337-0.3841-0.56514-0.5855-0.98013-0.5325-1.2291-0.2128-0.70878-0.2168-0.83921-0.2059-0.99474-0.1118-1.1051 0.01-0.80659 0.072-0.90985 0.1193-0.82595 0.1474-0.76142 0.6827-1.5752 0.4996-0.70063 0.4197-0.59029 0.6507-0.78857 0.3709-0.40316 0.2926-0.29462 0.2236-0.17806 0.3391-0.24874 0.5699-0.36744 0.4619-0.30244 0.5671-0.30753 0.2583-0.0962 0.2562-0.0965 0.4908-0.13286 0.5335-0.12607 0.5563-0.1203 0.4765-0.0812 0.5383-0.0962 0.8066-0.10976 0.881-0.085 0.7346-0.0703 0.5651-0.0432 0.5641-0.0493 0.518-0.034 0.4649-0.0306 0.5998-0.0411 0.9934-0.0306 0.597-7e-3 0.7183-7e-3 0.5652 0.0102 1.5643 0.0408 0.5997 0.0102 0.5563 0.0272 0.7346 0.0394 0.6076 0.0306 0.6575 0.0394 0.572 0.0452 0.4377 0.0347 0.4795 0.054 0.6239 0.0676 0.5652 0.0731 0.847 0.1349 0.7414 0.11078 0.8174 0.11554 0.8518 0.15597 0.825 0.16481 0.6018 0.1254 0.6171 0.16073 0.4004 0.0955 0.2728 0.0873 0.2396 0.085 0.3726 0.13083 0.5094 0.21306 0.4303 0.23516 0.2263 0.16277 0.2562 0.17024 0.2179 0.16006 0.299 0.28034 0.1889 0.18792 0.2495 0.27729 0.2351 0.28408 0.1811 0.25826 0.1067 0.18486 0.1129 0.2304 0.067 0.17432 0.085 0.22054 0.095 0.30787 0.08 0.25826 0.099 0.40142 0.067 0.29904 0.056 0.27083 0.036 0.25044 0.027 0.23108 0.027 0.43605 0.01 0.32622-0.01 0.3668-0.024 0.36305-0.048 0.34845-0.071 0.26573-0.1135 0.30618-0.1281 0.25622-0.1406 0.26471-0.2033 0.28341-0.2072 0.26675-0.3437 0.33302-0.3252 0.28171-0.2817 0.21102-0.3458 0.22428-0.541 0.27899-0.6843 0.18519" fill="none" stroke="#008f54" stroke-miterlimit="10" stroke-width="2.377"/>
   <path d="m1137.4 633.21c92.876-55.929 72.536-198.02-49.299-214.4l-0.7278-49.796c176.69 11.626 211.29 229.79 76.337 308.3l-2.5377-4.0761c20.751-11.753 38.063-28.269 52.526-48.731l-4.0252-3.8065c-12.549 18.039-28.77 34.37-51.539 47.658l-2.3577-3.7861c21.208-13.008 37.108-29.109 47.993-46.768l-5.9186-3.9597c-10.698 15.742-23.457 30.271-46.242 44.034l-2.6898-4.3203c15.198-9.5549 30.788-23.761 44.414-42.026l-4.676-4.5988c-9.5297 15.043-23.898 28.786-42.959 41.452l-2.7391-4.3995c16.549-10.341 30.568-23.23 41.614-39.116l-4.4158-3.507c-9.5712 13.643-21.182 26.296-39.402 36.773z" fill="#6b300d" fill-rule="evenodd"/>
   <path d="m1028.2 633.21c-92.876-55.929-72.536-198.02 49.3-214.4l0.7268-49.796c-176.7 11.626-211.29 229.79-76.337 308.3l2.538-4.0761c-20.751-11.753-38.063-28.269-52.527-48.731l4.0252-3.8065c12.549 18.039 28.771 34.37 51.54 47.658l2.3576-3.7861c-21.208-13.008-37.108-29.109-47.993-46.768l5.9186-3.9597c10.698 15.742 23.458 30.271 46.242 44.034l2.6898-4.3203c-15.197-9.5549-30.788-23.761-44.414-42.026l4.6749-4.5988c9.5301 15.043 23.898 28.786 42.959 41.452l2.7397-4.3995c-16.55-10.341-30.568-23.23-41.614-39.116l4.4151-3.507c9.5719 13.643 21.183 26.296 39.402 36.773z" fill="#6b300d" fill-rule="evenodd"/>
   <g fill="#008f54" fill-rule="evenodd" stroke="#008f54" stroke-miterlimit="10" stroke-width=".73358">
    <path d="m1000.4 577.49 0.1512 0.38888-2.1403 1.9976c-0.93191 0.93871-1.9763 1.6183-3.4244 1.9572-0.8633-0.21782-1.0664-0.63236-1.1581-1.5354 0.34777-0.67687 0.51214-1.2142 1.2987-1.8051 0.81848-0.37933 1.7531-0.59196 2.6572-0.79911 1.0736-0.23311 1.5422-0.22937 2.6158-0.20423z"/>
    <path d="m990.92 580.83 0.38684 0.19845 0.4439 1.2274c0.26846 1.296-0.26777 2.3655-0.78453 3.7603-0.6575 0.59978-0.72985 1.2073-1.5338 0.78487-0.18588-0.33132-0.24263-0.61132-0.26539-0.95504-0.0238-0.34675-0.14646-0.73288-0.10127-1.2997 0.13593-0.8915 0.053-0.80488 0.37937-1.6733-2e-3 -0.26098 1.188-2.0398 0.96963-2.0523-0.0238-1e-3 0.19845 0.0887 0.50534 0.0102z"/>
    <path d="m997.36 586.46 0.53117 0.17432 0.61064 1.079c0.36952 1.1401-0.36781 2.0806-1.0783 3.3069-0.90305 0.52776-1.0032 1.062-2.1074 0.69047-0.25622-0.29191-0.33404-0.53729-0.36578-0.84057-0.0306-0.30379-0.20049-0.64395-0.13898-1.1418 0.18587-0.78453 0.0734-0.70848 0.52202-1.473-3e-3 -0.22801 1.6315-1.7935 1.3323-1.8041-0.034-1e-3 0.27253 0.0771 0.69421 0.0102z"/>
    <path d="m997.22 594.35 0.51148 0.14374 0.25521 1.2284c0.35524 0.93191-0.0204 1.3564-0.70471 2.3597-0.86942 0.43133-0.46697 3e-3 -1.529-0.30039-0.24637-0.23787-0.82123 0.42453-0.85076 0.17738-0.0306-0.24874-0.19268-0.52675-0.13423-0.93395 0.0136-0.81545-0.59467-1.963-0.16277-2.5876-3e-3 -0.1869 2.2354-0.085 1.9467-0.0935-0.0306-1e-3 0.26301 0.0636 0.66804 7e-3z"/>
    <path d="m1002.2 600.18 0.3368 0.0945 0.1678 0.80967c0.2348 0.61439-0.014 0.89456-0.4642 1.5548-0.5726 0.28476-0.3069 3e-3 -1.007-0.19743-0.1628-0.157-0.541 0.28034-0.5611 0.11655-0.02-0.16379-0.1274-0.3464-0.088-0.61503 0.01-0.53728-0.393-1.294-0.1081-1.7049 0-0.12336 1.4729-0.0561 1.2834-0.0619-0.02-1e-3 0.1723 0.0415 0.4398 3e-3z"/>
    <path d="m1003.4 581.4 0.6623 0.12709 0.3303 1.0973c0.4595 0.83173-0.027 1.2101-0.9116 2.1067-1.1255 0.3848-0.6045 3e-3 -1.9783-0.26778-0.3184-0.21306-1.062 0.379-1.1014 0.15768-0.039-0.22224-0.2494-0.46969-0.1733-0.83445 0.017-0.7268-0.76924-1.7521-0.21103-2.3098-3e-3 -0.16753 2.8929-0.0758 2.5193-0.0836-0.04-1e-3 0.3399 0.0568 0.8636 7e-3z"/>
   </g>
   <path d="m1034 537c-2.7543 1.9861-6.5156 4.3081-9.2696 6.2952l-3.2617 3.021-4.3034 4.4266-0.1434 2.8667-1.2294 1.6801-5.6819 8.0422-3.2685 1.1775-0.332 3.1164 0.4853 3.0304-0.3967 1.4913-1.6733 1.0263 0.9319 2.1736 1.4856 1.3663 0.7797 2.6993 1.4414 2.9999 0.227 5.9542-1.0134 4.8821-2.2626 4.2184c4.9819 0.11384 7.2125 6.4589 8.3785 12.808l2.272 1.2787 13.526 3.0121 2.9649 4.2021 4.3893 6.333 5.0607 2.6579 1.9042 2.6283 1.0148 4.1858 4.8223-1.1554 1.6971 2.1854c13.209-4.8117 17.317 5.3691 24.337 5.0291l2.4694-0.21102 2.5067-1.113 5.2159-3.0121 8.5846-5.8544c-1.6403-12.155-0.7644-3.3368 12.696-10.625l3.1904 0.52199 2.4327 1.0311c0.4161-0.70946 2.1536-1.0301 3.1337-1.5684 2.0622-1.133 4.0473-1.2651 6.2161-0.68941l0.1601 6.3445 6.016 2.7726c3.4319-8.3431 9.1997-11.792 18.897-11.186 0.6412-3.5976 0.4439-7.8653 0.5825-11.63l1.3785-2.3702 0.048-3.8594 0.06-4.8087c6.0467-9.6021 14.622-21.731 16.835-27.829 2.4154-6.301 10.536-3.2067 15.804-4.8097l0.3279-9.1246c-1.4016-3.8727-4.592-7.689-8.23-9.7713-7.0488-1.6628-10.248-9.2747-12.368-18.554-1.9284-4.4946-6.8777-5.9705-10.315-8.9558-0.751-9.6629-7.2068-14.292-10.643-20.934-2.6552-3.2624-1.9553-12.229-3.436-16.835-2.7041-3.3205-7.3946-5.2998-13.399-9.9632-1.7559-2.863-3.8768-5.726-6.5268-8.589l-6.4753-3.3178-5.8937-3.5531c-2.1757-2.2585-4.3523-3.1751-6.5283-2.7486l-0.7998 0.75466-0.7655 0.72306-1.7259 12.265c-1.0919 3.7949-3.6941 8.9321-4.9541 13.399-4.5095 4.0001-7.6911 8.2647-9.9631 12.712l-0.6711 4.2347 0.6711 1.6057c4.6518 5.2064 8.3387 10.734 10.307 16.835l-3.0654 8.1906-0.3699 2.1162 2.7024 6.4857 0.7329 6.2103-2.1019 1.6557-3.2193 1.4682-4.4792-0.46018-3.4224 0.10908-2.4857 4.4378-1.4692 0.70777-2.3624 1.1041-4.8532-0.0741-3.2376-0.98016-2.0918-1.7521c-2.7485-0.19166-6.1681-0.0482-8.4131-2.4212l-4.1831 0.6344c-2.218 0.44288-4.2907 0.45546-7.818 0.24467l-2.8468-1.0042z" fill="#ff0" fill-rule="evenodd"/>
   <g transform="matrix(3.3962 0 0 3.3962 -453.8 -1738.9)">
    <g clip-path="url(#clipPath862)" stroke-miterlimit="10">
     <g fill="none" stroke="#fff" stroke-width="1.0001">
      <path d="m461.02 697.84c16.889-18.33 11.786-39.707-5.9743-52.379"/>
      <path d="m478.65 682.25c1.4686-6.1351 1-12.247-1.0936-17.942"/>
      <path d="m442.77 699.03c27.636-5.2656 28.334-36.636 7.6941-47.963"/>
      <path d="m434.47 693.34c26.793 3.0365 32.288-24.454 15.992-37.255"/>
      <path d="m428.31 683.49c19.906 17.384 35.468-11.078 22.154-23.916"/>
     </g>
     <path d="m439.73 690.34c0.0463-2.952 0.2183-5.6526 0.4766-8.1814l0.5561-0.3971-0.5561-0.5559-0.5559-0.159-1.2711 0.159-2.7005-0.0797-1.6682-0.7146-1.7473 1.8267-1.6682 0.159-1.5092-3.0183 6.5135-12.153 11.12-0.6355 6.5928 1.6681 0.953 1.7473-0.3971 2.0653 1.5092 0.9533 1.1914-0.3974c0.5295 1.6418 1.218 3.5215 2.5418 5.163l-1.1914 2.0654c0.2647 0.5295 0.1324 0.9796 0.3971 1.5091l1.2711 1.827-0.2121 1.5896 0.1055 1.5925-0.2112 0.154-0.3552 0.8064-0.2803 1.4176-0.7943-0.1587-1.5092 0.6352-1.0607-0.4714-1.0046-0.9581-1.2124-0.8481-2.0443-1.7734-0.8838-0.6035-1.8168-0.2701-0.6355 1.1914c-1.9857 1.112-4.6862 3.3361-6.6722 4.9249z" fill="#008f54" fill-rule="evenodd" stroke="#008f54" stroke-width=".216"/>
    </g>
   </g>
   <path d="m1034 537c-2.7543 1.9861-6.5156 4.3081-9.2696 6.2952l-3.2617 3.021-4.3034 4.4266-0.1434 2.8667-1.2294 1.6801-5.6819 8.0422-3.2685 1.1775-0.332 3.1164 0.4853 3.0304-0.3967 1.4913-1.6733 1.0263 0.9319 2.1736 1.4856 1.3663 0.7797 2.6993 1.4414 2.9999 0.227 5.9542-1.0134 4.8821-2.2626 4.2184c4.9819 0.11384 7.2125 6.4589 8.3785 12.808l2.272 1.2787 13.526 3.0121 2.9649 4.2021 4.3893 6.333 5.0607 2.6579 1.9042 2.6283 1.0148 4.1858 4.8223-1.1554 1.6971 2.1854c13.209-4.8117 17.317 5.3691 24.337 5.0291l2.4694-0.21102 2.5067-1.113 5.2159-3.0121 8.5846-5.8544c-1.6403-12.155-0.7644-3.3368 12.696-10.625l3.1904 0.52199 2.4327 1.0311c0.4161-0.70946 2.1536-1.0301 3.1337-1.5684 2.0622-1.133 4.0473-1.2651 6.2161-0.68941l0.1601 6.3445 6.016 2.7726c3.4319-8.3431 9.1997-11.792 18.897-11.186 0.6412-3.5976 0.4439-7.8653 0.5825-11.63l1.3785-2.3702 0.048-3.8594 0.06-4.8087c6.0467-9.6021 14.622-21.731 16.835-27.829 2.4154-6.301 10.536-3.2067 15.804-4.8097l0.3279-9.1246c-1.4016-3.8727-4.592-7.689-8.23-9.7713-7.0488-1.6628-10.248-9.2747-12.368-18.554-1.9284-4.4946-6.8777-5.9705-10.315-8.9558-0.751-9.6629-7.2068-14.292-10.643-20.934-2.6552-3.2624-1.9553-12.229-3.436-16.835-2.7041-3.3205-7.3946-5.2998-13.399-9.9632-1.7559-2.863-3.8768-5.726-6.5268-8.589l-6.4753-3.3178-5.8937-3.5531c-2.1757-2.2585-4.3523-3.1751-6.5283-2.7486l-0.7998 0.75466-0.7655 0.72306-1.7259 12.265c-1.0919 3.7949-3.6941 8.9321-4.9541 13.399-4.5095 4.0001-7.6911 8.2647-9.9631 12.712l-0.6711 4.2347 0.6711 1.6057c4.6518 5.2064 8.3387 10.734 10.307 16.835l-3.0654 8.1906-0.3699 2.1162 2.7024 6.4857 0.7329 6.2103-2.1019 1.6557-3.2193 1.4682-4.4792-0.46018-3.4224 0.10908-2.4857 4.4378-1.4692 0.70777-2.3624 1.1041-4.8532-0.0741-3.2376-0.98016-2.0918-1.7521c-2.7485-0.19166-6.1681-0.0482-8.4131-2.4212l-4.1831 0.6344c-2.218 0.44288-4.2907 0.45546-7.818 0.24467l-2.8468-1.0042z" fill="none" stroke="#008f54" stroke-miterlimit="10" stroke-width="2.377"/>
   <path d="m1166.1 492.03c-2.2856 1.6917-5.0158 2.9384-8.7258 3.206l-2.014-1.2573c-1.2872-3.5582-2.6939-6.2259-5.6445-8.3604 0.4177-4.5438-1.3092-6.5683-3.5986-11.673-0.6412-1.4298-1.1204-4.8128-1.7433-6.6698 0.7111-1.4237 2.8484-1.78 4.2735-2.6705 2.8205 0.74107 5.492 1.9291 7.8364 4.0952 0.7719 4.572 0.1182 9.3209 2.3152 13.18 5.4614 0.71219 5.4017 7.1229 7.3011 10.151z" fill="none" stroke="#008f54" stroke-miterlimit="10" stroke-width="2.377"/>
   <g fill="#fff" fill-rule="evenodd">
    <path d="m980.36 726.45-0.29869-0.0435-0.32758-0.0761-0.55628-0.2817-0.56311-0.30787-0.82017-0.47479-27.038-18.235c-1.8506-1.1901-3.9644-3.0403-6.1461-7.5352l0.0435-35.293c0.37461-1.907 2.2228-2.7407 3.6747-2.6626 0.2117 0.0102 0.54849 0.0204 0.9472 0.1801 0.36373 0.11146 0.61404 0.22802 0.87522 0.48805 9.2024 9.1552 19.214 17.958 30.942 25.59 0.53252 3.1075 0.73356 6.0833-1.3884 8.1288l-25.974-19.233-0.59502 23.397 28.552 19.614c0.8847 1.2535 1.4671 3.8904-0.0625 6.0402-0.23243 0.32622-0.71932 0.54951-1.2661 0.7047"/>
    <path d="m997.53 734.91c-1.8503-1.0107-2.915-2.2344-4.2225-5.706l0.0445-30.006c1e-3 -2.2422 1.1041-4.3709 3.6737-2.4395 0.38786 0.2919 0.96928 0.94924 1.3313 1.2012 8.1523 5.6849 17.081 7.2686 29.51 13.756 0.6596 1.7895 0.827 3.3433-0.6813 5.8687l-2.0258-0.21986-22.905-8.4216-0.3032 3.2193 0.017 3.1585 21.956 8.68 0.3181 0.28069 0.1821 0.52678 0.068 0.61503 0.043 0.74922 0.01 0.57734-0.01 0.46799-0.024 0.89525-0.1533 0.81273-0.4832 0.60351-0.5788 0.19743-0.331-0.055-21.343-7.3637-0.5033 3.8537 0.1056 1.3894 0.4344 1.2831c9.4962 4.0368 16.9 6.4022 23.129 8.1041 4.1454 4.9897 2.6946 8.2063 0.19 7.5919-6.0422-1.4824-23.23-7.3002-27.448-9.6211z" stroke="#fff" stroke-miterlimit="10" stroke-width=".73358"/>
    <path d="m1100.8 751.43c-1.4437-0.0615-2.703 0.29563-3.6842-0.84737-0.4446-0.51961-0.7642-2.2649-0.9924-3.277l0.05-27.994c5.6031-1.0352 28.21-5.2835 36.717-6.9045 0.7489 1.4824 1.0579 2.7387 0.1703 6.1835l-1.1204 0.56681-25.776 5.062-0.5794 1.7694-0.035 1.8628 0.5264 2.1583 1.4577 0.0965 23.005-4.0608 0.8307 0.94924-0.031 0.56038 0.078 0.58924 0.049 0.73937 0.01 0.58142-0.01 0.47853-0.027 0.92103-0.1744 0.90204-0.5488 0.85789-0.6565 0.49382-0.3773 0.1118-23.056 3.456-0.8154 1.3035-0.465 2.8634v1.7096l0.7289 1.4363c9.0145 0.81949 18.484-5.6027 25.91-4.9079 1.7595 1.9026 1.7626 7.671-0.139 7.8442-6.4695 0.59195-26.26 4.7126-31.05 4.4949"/>
    <path d="m945.96 413.26c-1.2736 0.75768-2.6389 3.2638-3.5209 2.4195-0.71795-0.68639-0.82765-3.5976-0.73933-4.646l0.18044-39.964c4.9405-5.494 22.024-17.404 30.476-22.872 1.475 1.1656 1.7473 3.3867 1.5076 5.2573l-0.44387 2.8562-23.68 17.484-0.3756 2.1593-0.0306 1.2845 1.007 0.92412 1.5578-0.99273c9.0754-4.1743 21.244-20.228 19.432-5.6472-1.8985 5.4903-17.34 14.022-21.184 16.782-0.37529 2.0177-0.34338 3.222-0.58315 4.9676l-2e-3 1.4352 0.81749 1.3402 0.91461-0.10229c6.9979-4.5862 14.94-13.272 21.49-16.688 0.38786 0.34543 0.99341 0.54204 1.2485 1.4777 0.7672 2.8063 0.0238 6.1516-1.2352 7.1405-5.7039 4.485-22.614 21.397-26.837 25.384"/>
    <path d="m1018.1 361.54-2.4337 0.91767c-10.916 5.008-16.173 7.1287-23.973 12.31-2.2412 0.0595-3.9471-0.27865-4.7136-2.7343l-0.40414-25.736c0.11927-3.8336 1.3602-5.2278 3.1259-5.9237 7.7382-3.0508 20.733-8.3747 29.638-11.32 2.0402 1.0416 2.4443 7.0828 0.9551 8.5228-7.8123 2.1036-15.379 3.7266-22.783 7.8836-3.7331 1.3334-3.2482 8.0049-3.3174 11.34 0.60653 11.572 18.087-3.1031 27.13-4.6548 0.807 0.16481 1.6696 4.5506 0.054 7.4958-0.4035 0.73529-3.0441 1.749-3.278 1.8981z" stroke="#fff" stroke-miterlimit="10" stroke-width=".73358"/>
    <path d="m1043.4 747.47-0.5621-32.493c15.671 2.7937 31.994 4.2504 35.729 6.6097 2.0873 1.242 4.7588 2.1817 5.907 6.7517l-0.5621 17.584c-0.9125 2.485-1.3853 4.7367-7.1751 6.048 1.9708 0.0462-23.491-0.46799-33.337-4.4996zm9.1813-4.8223 0.1033-17.286c7.9095-0.23889 17.876 0.73461 19.997 1.9515 1.1832 0.63712 2.1372 1.3738 2.79 3.8788l-0.038 9.1929c-0.5199 1.3986-1.4882 3.0797-4.7751 3.9471 1.1178-0.0204-12.489 0.31093-18.078-1.6838"/>
    <path d="m1149.6 734.9-0.4596-1.2206-0.1974-1.3863-0.1281-2.8556-1.028-23.032c2.2448-1.8136 4.6623-2.0727 6.4762-3.1086l1.2946 12.434 24.35-11.398 0.2599-16.32c2.2442-0.51825 4.7483-1.8129 7.5121-1.5541v31.736l-0.331 1.5704c-0.3045 0.42079-0.2939 0.9472-0.6259 1.3564-10.297 12.711-33.191 20.052-37.123 13.778zm6.735-11.838 23.945-10.699-0.3841 5.6907c-0.07 0.99712-0.3705 1.909-1.1785 2.631-5.7684 4.8742-12.189 8.5989-20.04 9.0339-1.155-0.0693-1.9783-0.70746-2.3026-1.9148z"/>
    <path d="m1196.6 706.01c0.671 3.7362 3.2579 5.2967 7.7613 5.2013 3.745-0.12608 24.552-14.774 26.156-22.159 1.5558-12.504 1.1244-22.275-1.4373-30.18-2.1634-2.4636-4.9697-3.8516-9.198-2.5865-8.3839 5.8435-16.048 12.647-22.131 21.557-0.7095 1.7484-0.954 4.0164-1.1438 6.0246zm7.8982-10.013c-0.2661 4.5632 2.8545 6.0004 5.5664 3.763 3.6689-1.8503 10.066-7.1212 12.996-12.635 0.1954-0.36747 0.6351-1.6461 0.7981-2.0146 0.7112-8.2178 0.6708-11.506-0.4082-15.893-0.413-1.367-1.1968-2.0455-2.1016-2.1158-0.9051-0.0693-1.8024 0.33846-2.8334 0.49582-4.3795 3.2424-9.2459 7.9074-12.424 12.851-0.05 0.55729-0.3044 0.75768-0.5593 1.3469-0.2539 0.59026-0.5081 1.5691-0.5583 2.1267-0.4833 3.5001-0.6691 8.7385-0.4755 12.074"/>
    <path d="m1032 348.11c0.8609 3.1924 2.6426 6.61 9.9679 6.913 4.5169 7e-3 25.736-0.86738 33.448-9.4275 4.3227-8.3931 1.7232-20.359-1.6991-22.949-2.7785-2.7271-6.6033-3.8826-12.254-3.6041-11.135 0.55053-20.221 1.8319-27.594 7.7689-0.9105 1.1235-1.6173 2.303-1.8608 3.819-0.8307 5.4777-0.9194 11.305-0.01 17.48zm8.7174-3.9114c0.7944 2.8793 5.7369 3.7698 8.7231 3.455 4.3801-0.39259 13.16-1.548 16.545-5.493 0.2755-0.32045 1.0368-0.89728 1.0253-1.0562 2.1613-3.3616 1.1544-8.2521-0.2311-12.106-0.7923-0.70539-2.1152-1.7874-3.2706-2.0214-1.1618-0.23515-2.3304-0.42555-3.5813-0.45444-18.363 1.2254-21.289 5.9437-19.211 17.676"/>
    <path d="m1220.5 397-0.8983 10.18c-8.8828-10.779-27.646-17.067-26.648-32.336 1.497-20.16 18.563 5.7888 20.659-2.0958 2.8273-3.3137-12.05-15.956-22.044-18.684-0.2399-0.0652-0.2677-0.23005-0.5016-0.28272l-0.2494-0.96963-0.2593-7.0101c12.675 4.1665 23.921 11.694 32.726 23.848l0.4717 1.3884 0.3641 1.6105 0.051 1.4566-0.017 2.1305-0.2005 2.7879-0.3032 1.9015-0.5206 1.73-0.6507 1.131-0.5604 0.6395c-4.6905 6.5866-20.044-12.903-19.086-4.4912 0.7981 6.587 11.777 11.377 17.666 17.067z" stroke="#fff" stroke-miterlimit="10" stroke-width=".73358"/>
    <path d="m1086.6 349.05-0.2583-31.217c4.6443-0.94621 9.2873-0.68843 13.932 0l6.966 16.769 6.9653-15.221c4.5601 0.0839 8.9473 0.34096 12.125 1.8061l1.3554 0.16379 1.9987 2.1573 0.774 30.186c-2.5801 0.34373-5.5039 0-8.7711-1.0321l-1.2902-20.64-8.7721 18.833c-1.1177 0-2.7516 0.77399-3.8693 0.77399l-2.8311-0.54204-1.8129-1.5218-8.7721-22.187v21.413c-0.9455 0.21476-2.0642 0.34372-3.3531 0.38685-1.2902 0.0425-2.7526 0-4.3862-0.12913"/>
    <path d="m1138.3 325.4 8.8791 0.57973 0.3858 12.256c9.3423 2.6898 18.1 6.5424 26.927 9.7471l0.1927-10.23 8.2996 2.5088-0.7723 25.093c-1.2216 4.2463-4.0527 5.9196-7.9132 5.4044l-29.05-11.291c-2.2517-1.2556-3.924-1.1581-5.5009-5.6944zm33.296 36.963c-8.5171-3.0671-18.19-6.605-22.294-9.5539-1.2264-2.5529-1.2294-4.4273-0.9655-6.7561 8.7751 2.268 17.508 5.7427 25.865 10.809 0.5152 1.834 1.7049 6.1767-2.6059 5.5009"/>
   </g>
  </g>
 </g>
</svg>
