<svg xmlns="http://www.w3.org/2000/svg" viewBox="0 0 207.083 169.793">
	<path fill="#c80f0f" d="M52.931 97.011V61.508A12.554 12.554 0 0 0 47.8 51.2a16.221 16.221 0 0 0-11-4.032H35a15.6 15.6 0 0 0-11.245 4.748c-3.256 3.05-4.949 6.135-5.078 10.737v32.835c.129 4.6 1.822 7.686 5.078 10.736A15.59 15.59 0 0 0 35 110.972h1.8a16.354 16.354 0 0 0 11-4.056c3.273-2.64 4.982-5.448 5.128-9.9Zm-2.09 25.839a17.553 17.553 0 0 0-1.741 1.328l-.163.129q-.174.138-.355.275t-.371.269q-.189.134-.386.264t-.4.258q-.2.127-.413.251t-.426.243q-.217.12-.439.236t-.451.227q-.229.112-.463.218t-.475.209l-.48.2q-.24.1-.479.182-.239.087-.477.167t-.474.152c-.158.048-.315.094-.471.138s-.312.085-.467.123-.309.075-.463.109-.306.065-.457.094-.3.059-.451.083a35.113 35.113 0 0 1-5.666.484h-1.444q-14.153-.339-23.608-9.291A30.838 30.838 0 0 1 0 96.752V61.388a30.838 30.838 0 0 1 9.82-22.445q9.454-8.951 23.608-9.291h1.859a42.064 42.064 0 0 1 5 .363l.45.076c.155.026.311.054.468.084s.315.063.473.1.318.072.478.113.321.082.482.127.323.092.485.141.325.1.488.156.327.112.49.171.326.121.485.184.318.128.474.194.311.134.463.2.3.14.451.212.294.146.439.22.286.151.426.229.277.156.412.236l.124.074.18.112.175.115.175.114.169.117.169.117.163.118.164.118.158.12.157.119.151.121.152.121.145.122.145.122.139.123.139.123.132.124.132.124a2.229 2.229 0 0 0 .273.219 1.948 1.948 0 0 0 .237.13 1.8 1.8 0 0 0 .681.135 1.736 1.736 0 0 0 .68-.137 1.684 1.684 0 0 0 .3-.161 1.773 1.773 0 0 0 .259-.213 1.684 1.684 0 0 0 .213-.259 1.753 1.753 0 0 0 .161-.3 1.712 1.712 0 0 0 .1-.328 1.744 1.744 0 0 0 .042-.352c-.012-1.165-.039-2.751 1.277-3.138a9.314 9.314 0 0 1 2.517-.115h11.932c1.216 0 3.055-.3 3.558 1.191.375 1.108.122 3.419.122 4.6v75.421c0 6.7.269 13.466-.487 20.142-2.1 18.594-11.4 34.395-31.07 37.861-11.909 2.1-23.775-2.144-32.971-9.732-1.124-.927-3.454-2.483-3.36-4.077a2.5 2.5 0 0 1 .679-1.5s7.623-8.064 8.181-8.767c.54-.6 1.3-1.464 2.144-1.461 1.2 0 2.454 1.13 4.634 2.408 3.715 2.177 7.7 4.175 11.93 4.81a18.312 18.312 0 0 0 8.151-.8c9.979-3.232 12.741-15.828 13.314-25.7v-.168a1.612 1.612 0 0 0 0-.176 1.634 1.634 0 0 0-.026-.171 1.81 1.81 0 0 0-.1-.323 1.9 1.9 0 0 0-.159-.293c-.031-.042-.064-.09-.1-.132s-.072-.084-.111-.122a1.647 1.647 0 0 0-.122-.111 1.923 1.923 0 0 0-.275-.187c-.049-.027-.1-.05-.15-.072a1.6 1.6 0 0 0-.158-.058 1.554 1.554 0 0 0-.165-.042 1.639 1.639 0 0 0-.171-.026 1.761 1.761 0 0 0-.352 0 1.62 1.62 0 0 0-.17.026 1.656 1.656 0 0 0-.165.042 1.6 1.6 0 0 0-.158.058 3.487 3.487 0 0 0-.287.159Z"></path>
	<path fill="#c80f0f" d="M207.083 126.208v-12.984a2.147 2.147 0 0 0-.6-1.65 2.249 2.249 0 0 0-1.571-.514h-35.75a2.952 2.952 0 0 1-1.842-.46 1.534 1.534 0 0 1-.568-1.218 3.115 3.115 0 0 1 .46-1.574l39.175-73.936a4.925 4.925 0 0 0 .3-.757 2.782 2.782 0 0 0 .136-.757q-.054-1.677-2.384-1.731H140.26a1.86 1.86 0 0 0-2.167 2.164v12.988a1.86 1.86 0 0 0 2.167 2.164h33.52a3.047 3.047 0 0 1 1.785.442 1.525 1.525 0 0 1 .6 1.294 2.8 2.8 0 0 1-.136.759 4.942 4.942 0 0 1-.3.758l-39.587 73.931a4.934 4.934 0 0 0-.3.757 2.781 2.781 0 0 0-.136.757q.054 1.677 2.384 1.731h66.822a1.86 1.86 0 0 0 2.168-2.164Z"></path>
	<path fill="#c80f0f" d="M96.072 18.064a2.584 2.584 0 0 0 .639 1.634 2.806 2.806 0 0 0 1.966.673h13.51a2.809 2.809 0 0 0 1.967-.673 2.232 2.232 0 0 0 .633-1.612s0-.376 0-.394V2.683a2.868 2.868 0 0 0-.658-2 2.806 2.806 0 0 0-1.966-.673L111.09 0a2.859 2.859 0 0 0-2.318 1.006L97.44 13.663l-.543.641a2.927 2.927 0 0 0-.844 2.058v1.33c0 .108.019.372.019.372Z"></path>
	<path fill="#c80f0f" d="M114.695 32.861a2.47 2.47 0 0 0-.541-1.734 2.36 2.36 0 0 0-1.787-.58H98.303a2.274 2.274 0 0 0-1.787.671 2.451 2.451 0 0 0-.553 1.643v53.225l.016 39.97a2.461 2.461 0 0 0 .541 1.734 2.372 2.372 0 0 0 1.787.58h14.061a2.274 2.274 0 0 0 1.787-.671 2.434 2.434 0 0 0 .54-1.643v-93.2Z"></path>
</svg>
