<svg width="301" height="338" viewBox="0 0 301 338" fill="none" xmlns="http://www.w3.org/2000/svg">
<path d="M151.267 0L157.77 19.8693H178.767L161.781 32.1307L168.268 52L151.267 39.7227L134.265 52L140.768 32.1307L123.767 19.8693H144.779L151.267 0Z" fill="white"/>
<path d="M217.767 161H86.7666V169H217.767V161Z" fill="#CD2735"/>
<path d="M139.767 60H80.7666V68H139.767V60Z" fill="white"/>
<path d="M222 60H163V68H222V60Z" fill="white"/>
<path d="M163 60L163 161L171 161L171 60L163 60Z" fill="white"/>
<path d="M147.767 60L147.767 161L155.767 161L155.767 60L147.767 60Z" fill="white"/>
<path d="M131.767 60L131.767 161L139.767 161L139.767 60L131.767 60Z" fill="white"/>
<path d="M229.767 176H74.7666V184H229.767V176Z" fill="#F9B039"/>
<path d="M244.767 191H59.7666V199H244.767V191Z" fill="#009444"/>
<path d="M50.0012 295.568C43.8648 298.925 37.8276 300.761 30.2191 300.761C12.2398 300.761 0 288.406 0 269.815C0 251.223 11.8759 239 30.9303 239C37.4968 239 43.352 240.323 48.4134 243.152L48.7607 256.483H42.6077L39.9448 242.887L45.7669 244.392V249.255C41.2184 245.351 36.9179 243.714 32.1708 243.714C21.2046 243.714 12.5706 252.53 12.5706 269.798C12.5706 287.066 20.6423 295.965 32.4024 295.965C36.769 295.965 39.8786 294.873 44.3114 292.59L38.9358 297.536V291.582C38.9358 284.618 38.8531 277.803 38.6711 270.823H50.299C50.117 277.688 50.0343 284.618 50.0343 291.747V295.551L50.0012 295.568ZM30.1033 275.008V270.84H55.1453V275.008L45.0722 276.149H41.2514L30.0867 275.008H30.1033Z" fill="white"/>
<path d="M58.9995 244.674V240.506H85.3977V244.674L73.1579 245.997H70.9581L58.9829 244.674H58.9995ZM73.1579 293.782L85.3977 295.105V299.273H58.9995V295.105L70.9746 293.782H73.1745H73.1579ZM66.5418 267.963C66.5418 258.832 66.5418 249.62 66.2772 240.506H78.2854C78.0208 249.454 78.0208 258.667 78.0208 267.963V270.659C78.0208 280.93 78.0208 290.143 78.2854 299.273H66.2772C66.5418 290.325 66.5418 281.112 66.5418 271.817V267.979V267.963ZM72.2813 271.453V266.821H107.727V271.453H72.2813ZM94.6107 244.674V240.506H121.009V244.674L108.868 245.997H106.735L94.5941 244.674H94.6107ZM108.868 293.782L121.009 295.105V299.273H94.6107V295.105L106.751 293.782H108.885H108.868ZM101.988 267.963C101.988 258.832 101.988 249.62 101.723 240.506H113.748C113.483 249.454 113.483 258.667 113.483 267.963V271.8C113.483 280.93 113.483 290.143 113.748 299.257H101.723C101.988 290.309 101.988 281.096 101.988 270.642V267.946V267.963Z" fill="white"/>
<path d="M125.078 295.122L134.059 293.799H135.73L144.794 295.122V299.29H125.061V295.122H125.078ZM150.864 240.225H158.125L178.271 299.273H166.528L150.086 249.007L152.766 246.725L135.283 299.273H130.569L150.864 240.225ZM140.923 276.514H164.84L166.544 281.145H139.468L140.923 276.514ZM157.066 295.204L167.636 293.881H171.523L182.704 295.204V299.273H157.066V295.204Z" fill="white"/>
<path d="M186.624 244.674V240.506H213.667V244.674L201.345 245.997H198.831L186.624 244.674ZM199.972 293.782V299.273H186.624V295.105L198.831 293.782H199.972ZM193.968 240.506H205.976C205.712 249.57 205.712 258.783 205.712 267.963V273.388C205.712 281.046 205.712 290.259 205.976 299.273H193.968C194.233 290.209 194.233 280.996 194.233 272.759V267.979C194.233 258.75 194.233 249.537 193.968 240.522V240.506ZM232.49 282.27L231.597 299.29H199.972V294.543H228.57L222.748 299.29L226.255 282.27H232.474H232.49Z" fill="white"/>
<path d="M237.65 244.674V240.506H264.379V244.674L252.057 245.997H249.857L237.65 244.674ZM252.04 293.782L264.363 295.105V299.273H237.634V295.105L249.841 293.782H252.04ZM245.259 267.963C245.259 258.832 245.259 249.62 244.994 240.506H257.002C256.738 249.454 256.738 258.667 256.738 267.963V271.767C256.738 280.93 256.738 290.143 257.002 299.257H244.994C245.259 290.309 245.259 281.096 245.259 271.8V267.963Z" fill="white"/>
<path d="M271.227 244.674V240.506H297.957V244.674L285.634 245.997H283.434L271.227 244.674ZM285.618 293.782L297.94 295.105V299.273H271.211V295.105L283.418 293.782H285.618ZM278.819 267.963C278.819 258.832 278.819 249.62 278.555 240.506H290.563C290.298 249.454 290.298 258.667 290.298 267.963V271.767C290.298 280.93 290.298 290.143 290.563 299.257H278.555C278.819 290.309 278.819 281.096 278.819 271.8V267.963Z" fill="white"/>
<path d="M14.4239 337.084C13.3653 337.663 12.3067 337.977 10.9835 337.977C7.87395 337.977 5.74023 335.827 5.74023 332.601C5.74023 329.376 7.80777 327.259 11.1158 327.259C12.2571 327.259 13.2661 327.49 14.1427 327.987L14.2089 330.302H13.1337L12.6706 327.937L13.6796 328.202V329.045C12.8856 328.367 12.1413 328.086 11.3143 328.086C9.41219 328.086 7.90703 329.608 7.90703 332.618C7.90703 335.628 9.31293 337.15 11.3474 337.15C12.1082 337.15 12.6375 336.968 13.4149 336.571L12.4887 337.431V336.406C12.4887 335.198 12.4887 334.007 12.4391 332.8H14.457C14.4239 333.991 14.4073 335.198 14.4073 336.439V337.1L14.4239 337.084ZM10.9835 333.511V332.783H15.3336V333.511L13.5803 333.709H12.9187L10.9835 333.511Z" fill="white"/>
<path d="M15.9946 328.251V327.523H20.5762V328.251L18.4591 328.483H18.0786L15.9946 328.251ZM18.4425 336.769L20.5597 337.001V337.729H15.978V337.001L18.0621 336.769H18.4425ZM17.3013 332.287C17.3013 330.699 17.3013 329.111 17.2516 327.523H19.3357C19.2861 329.078 19.2861 330.682 19.2861 332.287V332.75C19.2861 334.536 19.2861 336.124 19.3357 337.712H17.2516C17.3013 336.157 17.3013 334.553 17.3013 332.948V332.287ZM18.2937 332.899V332.088H24.4467V332.899H18.2937ZM22.1641 328.251V327.523H26.7458V328.251L24.6451 328.483H24.2813L22.1806 328.251H22.1641ZM24.6451 336.769L26.7458 337.001V337.729H22.1641V337.001L24.2647 336.769H24.6286H24.6451ZM23.4542 332.287C23.4542 330.699 23.4542 329.111 23.4046 327.523H25.4887C25.4391 329.078 25.4391 330.682 25.4391 332.287V332.948C25.4391 334.536 25.4391 336.124 25.4887 337.712H23.4046C23.4542 336.157 23.4542 334.553 23.4542 332.75V332.287Z" fill="white"/>
<path d="M27.457 337L29.0118 336.768H29.3095L30.8809 337V337.728H27.457V337ZM31.9229 327.473H33.18L36.67 337.711H34.6355L31.7906 328.994L32.2537 328.597L29.2269 337.711H28.3998L31.9229 327.473ZM30.2027 333.774H34.3543L34.6521 334.585H29.9546L30.2027 333.774ZM32.998 337.016L34.834 336.785H35.5121L37.4474 337.016V337.728H32.998V337.016Z" fill="white"/>
<path d="M38.0601 337.001L39.681 336.769H40.0614L41.9305 337.001V337.729H38.0601V337.001ZM38.9367 328.036L39.8629 328.433L38.1097 328.251V327.523H41.0042L46.9422 335.678V337.778H46.0325L38.9367 328.02V328.036ZM39.3667 327.523L40.2434 328.251V337.712H39.3667V327.507V327.523ZM44.3784 327.523H48.2489V328.251L46.6941 328.483H46.3302L44.3784 328.251V327.523ZM46.0655 327.523H46.9422V337.795L46.0655 336.918V327.54V327.523Z" fill="white"/>
<path d="M48.1494 337L49.7042 336.768H50.0019L51.5733 337V337.728H48.1494V337ZM52.6318 327.473H53.8889L57.3789 337.711H55.3444L52.4995 328.994L52.9626 328.597L49.9358 337.711H49.1088L52.6318 327.473ZM50.8951 333.774H55.0467L55.3444 334.585H50.647L50.8951 333.774ZM53.7069 337.016L55.5429 336.785H56.2211L58.1563 337.016V337.728H53.7069V337.016Z" fill="white"/>
<path d="M62.3745 328.251V327.523H67.0719V328.251L64.9383 328.483H64.5082L62.391 328.251H62.3745ZM64.6901 336.769V337.729H62.3745V337.001L64.4917 336.769H64.6901ZM63.6481 327.523H65.7322C65.6826 329.095 65.6826 330.699 65.6826 332.287V333.23C65.6826 334.553 65.6826 336.157 65.7322 337.712H63.6481C63.6977 336.141 63.6977 334.536 63.6977 333.114V332.287C63.6977 330.682 63.6977 329.078 63.6481 327.523ZM70.3304 334.768L70.1815 337.712H64.6901V336.885H69.6522L68.6433 337.712L69.2553 334.768H70.3304Z" fill="white"/>
<path d="M71.2231 328.251V327.523H73.5388V328.483H73.3403L71.2231 328.251ZM73.5388 336.769V337.729H71.2231V337.001L73.3403 336.769H73.5388ZM72.5463 332.287C72.5463 330.699 72.5463 329.111 72.4967 327.523H74.5808C74.5312 329.078 74.5312 330.682 74.5312 332.287V332.833C74.5312 334.536 74.5312 336.141 74.5808 337.729H72.4967C72.5463 336.174 72.5463 334.569 72.5463 332.965V332.303V332.287ZM77.525 327.523L78.4347 328.35H73.5388V327.523H78.964L79.0798 330.219H78.0046L77.5415 327.523H77.525ZM76.9626 332.882H73.5388V332.072H76.9626V332.882ZM79.3775 335.032L79.2617 337.729H73.5222V336.918H78.7324L77.8227 337.729L78.2858 335.032H79.361H79.3775ZM76.4829 332.287L76.7145 330.732H77.5084V334.205H76.7145L76.4829 332.585V332.287Z" fill="white"/>
<path d="M89.0201 337.084C87.9616 337.663 86.903 337.977 85.5963 337.977C82.4702 337.977 80.353 335.827 80.353 332.601C80.353 329.376 82.4206 327.259 85.7121 327.259C86.8534 327.259 87.8623 327.49 88.739 327.987L88.8051 330.302H87.73L87.2669 327.937L88.2758 328.202V329.045C87.4819 328.367 86.7376 328.086 85.9106 328.086C84.0084 328.086 82.5033 329.608 82.5033 332.618C82.5033 335.628 83.9092 337.15 85.9436 337.15C86.7045 337.15 87.2338 336.968 88.0112 336.571L87.0684 337.431V336.406C87.0684 335.198 87.0684 334.007 87.0188 332.8H89.0367C89.0036 333.991 88.9871 335.198 88.9871 336.439V337.1L89.0201 337.084ZM85.5632 333.511V332.783H89.9133V333.511L88.16 333.709H87.4984L85.5632 333.511Z" fill="white"/>
<path d="M89.9302 337L91.485 336.768H91.7827L93.354 337V337.728H89.9302V337ZM94.396 327.473H95.6531L99.1431 337.711H97.1086L94.2637 328.994L94.7268 328.597L91.7 337.711H90.8895L94.4126 327.473H94.396ZM92.6759 333.774H96.8275L97.1252 334.585H92.4277L92.6759 333.774ZM95.4712 337.016L97.3071 336.785H97.9853L99.9205 337.016V337.728H95.4712V337.016Z" fill="white"/>
<path d="M100.599 328.251V327.523H105.297V328.251L103.163 328.483H102.733L100.616 328.251H100.599ZM102.915 336.769V337.729H100.599V337.001L102.716 336.769H102.915ZM101.873 327.523H103.957C103.907 329.095 103.907 330.699 103.907 332.287V333.23C103.907 334.553 103.907 336.157 103.957 337.712H101.873C101.922 336.141 101.922 334.536 101.922 333.114V332.287C101.922 330.682 101.922 329.078 101.873 327.523ZM108.555 334.768L108.406 337.712H102.915V336.885H107.877L106.868 337.712L107.48 334.768H108.555Z" fill="white"/>
<path d="M113.086 328.251V327.523H117.717V328.251L115.584 328.483H115.203L113.086 328.251ZM115.584 336.769L117.717 337.001V337.729H113.086V337.001L115.203 336.769H115.584ZM114.409 332.287C114.409 330.699 114.409 329.111 114.36 327.523H116.444C116.394 329.078 116.394 330.682 116.394 332.287V332.948C116.394 334.536 116.394 336.141 116.444 337.712H114.36C114.409 336.157 114.409 334.553 114.409 332.948V332.287Z" fill="white"/>
<path d="M118.843 337.001L120.464 336.769H120.844L122.713 337.001V337.729H118.843V337.001ZM119.736 328.036L120.646 328.433L118.892 328.251V327.523H121.787L127.725 335.678V337.778H126.815L119.719 328.02L119.736 328.036ZM120.149 327.523L121.026 328.251V337.712H120.149V327.507V327.523ZM125.161 327.523H129.032V328.251L127.477 328.483H127.113L125.161 328.251V327.523ZM126.848 327.523H127.725V337.795L126.848 336.918V327.54V327.523Z" fill="white"/>
<path d="M130.007 328.251V327.523H132.323V328.483H132.124L130.007 328.251ZM132.621 336.769L134.738 337.001V337.729H129.991V337.001L132.108 336.769H132.621ZM131.314 332.287C131.314 330.699 131.314 329.111 131.264 327.523H133.348C133.299 329.078 133.299 330.682 133.299 332.287V332.833C133.299 334.536 133.299 336.141 133.348 337.729H131.264C131.314 336.174 131.314 334.569 131.314 332.965V332.303V332.287ZM136.359 327.523L137.268 328.35H132.306V327.523H137.781L137.897 330.219H136.822L136.359 327.523ZM135.829 332.882H132.323V332.072H135.829V332.882ZM135.35 332.287L135.581 330.732H136.375V334.354H135.581L135.35 332.733V332.287Z" fill="white"/>
<path d="M148.351 332.618C148.351 336.075 146.035 337.977 143.571 337.977C141.106 337.977 138.774 336.157 138.774 332.618C138.774 329.078 141.123 327.259 143.571 327.259C146.019 327.259 148.351 329.078 148.351 332.618ZM143.571 337.15C145.423 337.15 146.184 335.049 146.184 332.618C146.184 330.186 145.423 328.086 143.571 328.086C141.718 328.086 140.957 330.186 140.957 332.618C140.957 335.049 141.718 337.15 143.571 337.15Z" fill="white"/>
<path d="M149.276 328.251V327.523H151.592V328.483H151.394L149.276 328.251ZM151.79 336.769L153.908 337.001V337.729H149.276V337.001L151.394 336.769H151.79ZM150.583 332.287C150.583 330.699 150.583 329.111 150.533 327.523H152.601C152.551 329.111 152.551 330.649 152.551 332.386V332.849C152.551 334.536 152.551 336.141 152.601 337.712H150.533C150.583 336.157 150.583 334.553 150.583 332.948V332.287ZM151.592 332.237H153.461C155.049 332.237 155.677 331.344 155.677 330.236C155.677 328.979 154.999 328.317 153.577 328.317H151.575V327.523H153.891C156.273 327.523 157.646 328.499 157.646 330.153C157.646 331.394 156.686 332.585 154.321 332.75L154.354 332.618C156.141 332.7 156.769 333.362 157.116 334.884L157.695 337.348L156.819 336.802L158.77 337.017V337.745C158.258 337.877 157.96 337.927 157.365 337.927C156.223 337.927 155.644 337.613 155.462 336.653L154.999 334.52C154.768 333.378 154.305 333.031 153.196 333.031H151.575V332.254L151.592 332.237Z" fill="white"/>
<path d="M159.416 337.001L161.12 336.769H161.5L163.005 337.001V337.729H159.416V337.001ZM159.482 327.523H161.599V328.483H161.401L159.499 328.251V327.523H159.482ZM160.855 327.523H161.616L161.748 332.485V337.729H160.855V327.523ZM160.905 327.523H162.906L166.164 335.859H165.652L168.728 327.523H169.638L165.867 337.729H164.891L160.905 327.523ZM167.653 337.001L169.555 336.769H170.068L172.185 337.001V337.729H167.653V337.001ZM168.91 333.114L168.943 327.523H170.928C170.878 329.095 170.878 330.682 170.878 332.287V332.948C170.878 334.536 170.878 336.141 170.928 337.712H168.861C168.91 336.141 168.894 334.553 168.91 333.114ZM169.886 327.523H172.169V328.251L170.084 328.483H169.886V327.523Z" fill="white"/>
<path d="M172.896 337L174.451 336.768H174.749L176.32 337V337.728H172.896V337ZM177.362 327.473H178.619L182.109 337.711H180.075L177.23 328.994L177.693 328.597L174.666 337.711H173.839L177.362 327.473ZM175.642 333.774H179.794L180.092 334.585H175.394L175.642 333.774ZM178.437 337.016L180.273 336.785H180.952L182.887 337.016V337.728H178.437V337.016Z" fill="white"/>
<path d="M182.969 328.35L183.879 327.523L183.432 330.318H182.357L182.44 327.523H191.156L191.239 330.318H190.164L189.717 327.523L190.611 328.35H182.952H182.969ZM187.021 336.769L189.254 337.001V337.729H184.309V337.001L186.525 336.769H187.021ZM185.797 332.287C185.797 330.699 185.797 329.111 185.748 327.523H187.832C187.782 329.078 187.782 330.682 187.782 332.287V332.948C187.782 334.536 187.782 336.141 187.832 337.712H185.748C185.797 336.157 185.797 334.553 185.797 332.948V332.287Z" fill="white"/>
<path d="M192.132 328.251V327.523H196.764V328.251L194.63 328.483H194.249L192.132 328.251ZM194.63 336.769L196.764 337.001V337.729H192.132V337.001L194.249 336.769H194.63ZM193.456 332.287C193.456 330.699 193.456 329.111 193.406 327.523H195.49C195.44 329.078 195.44 330.682 195.44 332.287V332.948C195.44 334.536 195.44 336.141 195.49 337.712H193.406C193.456 336.157 193.456 334.553 193.456 332.948V332.287Z" fill="white"/>
<path d="M207.266 332.618C207.266 336.075 204.951 337.977 202.486 337.977C200.022 337.977 197.689 336.157 197.689 332.618C197.689 329.078 200.038 327.259 202.486 327.259C204.934 327.259 207.266 329.078 207.266 332.618ZM202.486 337.15C204.339 337.15 205.1 335.049 205.1 332.618C205.1 330.186 204.339 328.086 202.486 328.086C200.634 328.086 199.873 330.186 199.873 332.618C199.873 335.049 200.634 337.15 202.486 337.15Z" fill="white"/>
<path d="M208.11 337.001L209.731 336.769H210.112L211.981 337.001V337.729H208.11V337.001ZM208.987 328.036L209.913 328.433L208.16 328.251V327.523H211.055L216.992 335.678V337.778H216.083L208.987 328.02V328.036ZM209.417 327.523L210.294 328.251V337.712H209.417V327.507V327.523ZM214.412 327.523H218.283V328.251L216.728 328.483H216.364L214.412 328.251V327.523ZM216.099 327.523H216.976V337.795L216.099 336.918V327.54V327.523Z" fill="white"/>
<path d="M222.847 328.251V327.523H227.478V328.251L225.345 328.483H224.964L222.847 328.251ZM225.345 336.769L227.478 337.001V337.729H222.847V337.001L224.964 336.769H225.345ZM224.17 332.287C224.17 330.699 224.17 329.111 224.121 327.523H226.205C226.155 329.078 226.155 330.682 226.155 332.287V332.948C226.155 334.536 226.155 336.141 226.205 337.712H224.121C224.17 336.157 224.17 334.553 224.17 332.948V332.287Z" fill="white"/>
<path d="M228.604 337.001L230.225 336.769H230.606L232.475 337.001V337.729H228.604V337.001ZM229.481 328.036L230.407 328.433L228.654 328.251V327.523H231.549L237.487 335.678V337.778H236.577L229.481 328.02V328.036ZM229.911 327.523L230.788 328.251V337.712H229.911V327.507V327.523ZM234.923 327.523H238.793V328.251L237.239 328.483H236.875L234.923 328.251V327.523ZM236.61 327.523H237.487V337.795L236.61 336.918V327.54V327.523Z" fill="white"/>
<path d="M244.913 335.463C244.913 334.553 244.416 334.156 243.292 333.693L242.68 333.428C240.993 332.701 239.934 331.807 239.934 330.17C239.934 328.367 241.423 327.259 243.573 327.259C244.631 327.259 245.574 327.573 246.285 328.053L246.17 330.137H244.995L244.598 327.821L245.706 328.301V329.062C244.913 328.4 244.35 328.102 243.54 328.102C242.498 328.102 241.704 328.681 241.704 329.674C241.704 330.567 242.266 331.063 243.275 331.477L243.937 331.758C245.938 332.585 246.732 333.461 246.732 334.967C246.732 336.786 245.276 337.977 242.911 337.977C241.753 337.977 240.546 337.663 239.752 337.166L239.851 334.95H241.026L241.423 337.381L240.331 336.984V336.24C241.29 336.852 241.869 337.133 242.895 337.133C244.168 337.133 244.946 336.472 244.946 335.463H244.913Z" fill="white"/>
<path d="M247.956 328.35L248.865 327.523L248.419 330.318H247.344L247.426 327.523H256.143L256.226 330.318H255.151L254.704 327.523L255.597 328.35H247.939H247.956ZM252.008 336.769L254.241 337.001V337.729H249.296V337.001L251.512 336.769H252.008ZM250.784 332.287C250.784 330.699 250.784 329.111 250.735 327.523H252.819C252.769 329.078 252.769 330.682 252.769 332.287V332.948C252.769 334.536 252.769 336.141 252.819 337.712H250.735C250.784 336.157 250.784 334.553 250.784 332.948V332.287Z" fill="white"/>
<path d="M257.119 328.251V327.523H261.75V328.251L259.617 328.483H259.236L257.119 328.251ZM259.617 336.769L261.75 337.001V337.729H257.119V337.001L259.236 336.769H259.617ZM258.442 332.287C258.442 330.699 258.442 329.111 258.393 327.523H260.477C260.427 329.078 260.427 330.682 260.427 332.287V332.948C260.427 334.536 260.427 336.141 260.477 337.712H258.393C258.442 336.157 258.442 334.553 258.442 332.948V332.287Z" fill="white"/>
<path d="M263.273 328.35L264.182 327.523L263.736 330.318H262.661L262.743 327.523H271.46L271.543 330.318H270.468L270.021 327.523L270.914 328.35H263.256H263.273ZM267.342 336.769L269.574 337.001V337.729H264.629V337.001L266.845 336.769H267.342ZM266.101 332.287C266.101 330.699 266.101 329.111 266.051 327.523H268.135C268.086 329.078 268.086 330.682 268.086 332.287V332.948C268.086 334.536 268.086 336.141 268.135 337.712H266.051C266.101 336.157 266.101 334.553 266.101 332.948V332.287Z" fill="white"/>
<path d="M272.221 328.251V327.523H276.885V328.251L274.735 328.483H274.354L272.204 328.251H272.221ZM277.811 336.736C279.383 336.736 280.243 335.777 280.243 333.246V327.523H281.136V333.445C281.136 336.686 279.598 337.977 277.282 337.977C274.966 337.977 273.445 336.802 273.445 333.875V332.204C273.445 330.649 273.445 329.078 273.395 327.523H275.479C275.429 329.045 275.429 330.633 275.429 332.204V333.395C275.429 335.893 276.29 336.72 277.811 336.72V336.736ZM280.408 328.433L278.754 328.251V327.523H282.426V328.251L280.788 328.433H280.408Z" fill="white"/>
<path d="M283.667 328.35L284.576 327.523L284.13 330.318H283.055L283.137 327.523H291.854L291.937 330.318H290.862L290.415 327.523L291.308 328.35H283.65H283.667ZM287.736 336.769L289.969 337.001V337.729H285.023V337.001L287.239 336.769H287.736ZM286.495 332.287C286.495 330.699 286.495 329.111 286.445 327.523H288.53C288.48 329.078 288.48 330.682 288.48 332.287V332.948C288.48 334.536 288.48 336.141 288.53 337.712H286.445C286.495 336.157 286.495 334.553 286.495 332.948V332.287Z" fill="white"/>
<path d="M292.829 328.251V327.523H295.145V328.483H294.946L292.829 328.251ZM295.145 336.769V337.729H292.829V337.001L294.946 336.769H295.145ZM294.152 332.287C294.152 330.699 294.152 329.111 294.103 327.523H296.187C296.137 329.078 296.137 330.682 296.137 332.287V332.833C296.137 334.536 296.137 336.141 296.187 337.729H294.103C294.152 336.174 294.152 334.569 294.152 332.965V332.303V332.287ZM299.147 327.523L300.057 328.35H295.161V327.523H300.586L300.686 330.219H299.611L299.147 327.523ZM298.585 332.882H295.161V332.072H298.585V332.882ZM301 335.032L300.901 337.729H295.161V336.918H300.372L299.462 337.729L299.925 335.032H301ZM298.089 332.287L298.32 330.732H299.114V334.205H298.32L298.089 332.585V332.287Z" fill="white"/>
<path d="M87 60L87 126L90 126L90 60L87 60Z" fill="white"/>
<path fill-rule="evenodd" clip-rule="evenodd" d="M89.1499 132.101C98.8149 132.101 106.65 127.624 106.65 122.101L106.649 122H71.6509L71.6499 122.101C71.6499 127.624 79.4849 132.101 89.1499 132.101Z" fill="white"/>
<path d="M73 122.5L88.3333 74L105 122.5" stroke="white" stroke-width="3"/>
<path d="M212.85 60L212.85 126L215.85 126L215.85 60L212.85 60Z" fill="white"/>
<path fill-rule="evenodd" clip-rule="evenodd" d="M215 132.101C224.665 132.101 232.5 127.624 232.5 122.101L232.499 122H197.501L197.5 122.101C197.5 127.624 205.335 132.101 215 132.101Z" fill="white"/>
<path d="M198.85 122.5L214.183 74L230.85 122.5" stroke="white" stroke-width="3"/>
</svg>
